<svg id="OBJECTS" xmlns="http://www.w3.org/2000/svg" xmlns:xlink="http://www.w3.org/1999/xlink" viewBox="0 0 223.82 187.94"><defs><style>.cls-1{fill:#f0f0f0;}.cls-2{fill:url(#linear-gradient);}.cls-3{clip-path:url(#clip-path);}.cls-4{clip-path:url(#clip-path-2);}.cls-5{fill:url(#linear-gradient-4);}.cls-6{fill:#d1e8e6;}.cls-7{fill:#00bfd8;}.cls-8{fill:#fff;}.cls-9{fill:#c5e0e2;}.cls-10{fill:#dfe2ef;}.cls-11{fill:#3d415b;}.cls-12,.cls-26{fill:none;stroke:#3d415b;stroke-miterlimit:10;}.cls-12{stroke-width:2.496px;}.cls-13{fill:#ffe0bc;}.cls-14{fill:#efc9a3;}.cls-15{fill:#129093;}.cls-16{fill:#303348;}.cls-17{fill:#282c3c;}.cls-18{fill:#007c86;}.cls-19{fill:#c2dff1;}.cls-20{fill:#a5c3d3;}.cls-21{fill:#ecf2f5;}.cls-22{fill:#fcd8b6;}.cls-23{fill:#29323d;}.cls-24{fill:#33d18d;}.cls-25{fill:#8b4200;}.cls-26{stroke-width:2px;}</style><linearGradient id="linear-gradient" x1="11.085" y1="94.946" x2="205.828" y2="94.946" gradientUnits="userSpaceOnUse"><stop offset="0" stop-color="#00bfc2"/><stop offset="0.246" stop-color="#00bbc5"/><stop offset="0.49" stop-color="#00afcf"/><stop offset="0.732" stop-color="#009bdf"/><stop offset="0.972" stop-color="#0080f5"/><stop offset="1" stop-color="#007cf8"/></linearGradient><clipPath id="clip-path"><path class="cls-1" d="M142.192,78.942C107.7,58.1,91.425-5.932,38.182,32.332S7.017,149.21,58.038,168.223s116.665,8.272,135.138-27.048C224.741,80.823,165.328,92.923,142.192,78.942Z"/></clipPath><clipPath id="clip-path-2"><path class="cls-2" d="M145.8,74.942C111.315,54.1,95.036-9.932,41.793,28.332S10.628,145.21,61.65,164.223s116.665,8.272,135.138-27.048C228.353,76.823,168.939,88.923,145.8,74.942Z"/></clipPath><linearGradient id="linear-gradient-4" x1="5.899" y1="120.193" x2="217.355" y2="120.193" xlink:href="#linear-gradient"/></defs><title>details-1-office-worker</title><path class="cls-1" d="M142.192,78.942C107.7,58.1,91.425-5.932,38.182,32.332S7.017,149.21,58.038,168.223s116.665,8.272,135.138-27.048C224.741,80.823,165.328,92.923,142.192,78.942Z"/><path class="cls-1" d="M142.192,78.942C107.7,58.1,91.425-5.932,38.182,32.332S7.017,149.21,58.038,168.223s116.665,8.272,135.138-27.048C224.741,80.823,165.328,92.923,142.192,78.942Z"/><g class="cls-3"><path class="cls-1" d="M2.287,153.024s29.411-29.492,78.534-15.5,78.045,2,71.946-72.159c0,0,69.044,9.633,60.192,58.693C202.217,183.6,63.55,206.319,2.287,153.024Z"/></g><path class="cls-2" d="M145.8,74.942C111.315,54.1,95.036-9.932,41.793,28.332S10.628,145.21,61.65,164.223s116.665,8.272,135.138-27.048C228.353,76.823,168.939,88.923,145.8,74.942Z"/><path class="cls-2" d="M145.8,74.942C111.315,54.1,95.036-9.932,41.793,28.332S10.628,145.21,61.65,164.223s116.665,8.272,135.138-27.048C228.353,76.823,168.939,88.923,145.8,74.942Z"/><g class="cls-4"><path class="cls-5" d="M5.9,149.024s29.411-29.492,78.534-15.5,78.045,2,71.946-72.159c0,0,69.044,9.633,60.192,58.693C205.828,179.6,67.161,202.319,5.9,149.024Z"/></g><path class="cls-6" d="M70.312,27.843V56.6a4.487,4.487,0,0,1-4.493,4.484H4.493A4.486,4.486,0,0,1,0,56.6V27.843a4.487,4.487,0,0,1,4.493-4.485H65.819A4.487,4.487,0,0,1,70.312,27.843Z"/><path class="cls-7" d="M70.312,27.843v2.489H0V27.843a4.487,4.487,0,0,1,4.493-4.485H65.819A4.487,4.487,0,0,1,70.312,27.843Z"/><circle class="cls-8" cx="3.963" cy="27.177" r="0.942"/><circle class="cls-8" cx="7.733" cy="27.177" r="0.942"/><circle class="cls-8" cx="11.504" cy="27.177" r="0.942"/><path class="cls-8" d="M9.557,34.5H23.674a0.834,0.834,0,0,1,.834.834V46.76a0.834,0.834,0,0,1-.834.834H9.557a0.835,0.835,0,0,1-.835-0.835V35.335A0.834,0.834,0,0,1,9.557,34.5Z"/><path class="cls-8" d="M60.589,53.721H8.725a0.992,0.992,0,0,1-.992-0.992h0a0.992,0.992,0,0,1,.992-0.992H60.589a0.992,0.992,0,0,1,.992.992h0A0.992,0.992,0,0,1,60.589,53.721Z"/><path class="cls-8" d="M60.589,46.228H29.125a0.992,0.992,0,0,1-.992-0.992h0a0.992,0.992,0,0,1,.992-0.992H60.589a0.992,0.992,0,0,1,.992.992h0A0.992,0.992,0,0,1,60.589,46.228Z"/><path class="cls-8" d="M48.612,39.188H29.125a0.992,0.992,0,0,1-.992-0.992h0a0.992,0.992,0,0,1,.992-0.992H48.612a0.992,0.992,0,0,1,.992.992h0A0.992,0.992,0,0,1,48.612,39.188Z"/><path class="cls-6" d="M145.448,24.139a49.676,49.676,0,0,1,3.633-3.778c2.486-2.138,5.337-5.918,14.456-3.132a21.366,21.366,0,0,1,2.078.793c0.8,0.341,3.294.349,5.844-1.675,4.052-3.218,5.637-5.645,11.189-5.721,6.46-.088,7.476,7.965,12.5,10.026,3.2,1.312,11.625,2.616,13.368,3.2Z"/><path class="cls-8" d="M95.607,48.2l-0.466-1.335L94.675,48.2a4.661,4.661,0,0,1-2.589,2.636h0a4.66,4.66,0,0,1,2.589,2.636l0.466,1.335,0.466-1.335A4.661,4.661,0,0,1,98.2,50.837h0A4.661,4.661,0,0,1,95.607,48.2Z"/><path class="cls-8" d="M53.5,124.5l-0.466-1.335L52.573,124.5a4.661,4.661,0,0,1-2.589,2.636h0a4.661,4.661,0,0,1,2.589,2.636l0.466,1.335,0.466-1.335a4.66,4.66,0,0,1,2.589-2.636h0A4.66,4.66,0,0,1,53.5,124.5Z"/><path class="cls-8" d="M179.729,116.458l-0.308-.881-0.307.881a3.075,3.075,0,0,1-1.708,1.739h0a3.075,3.075,0,0,1,1.708,1.739l0.307,0.881,0.308-.881a3.075,3.075,0,0,1,1.708-1.739h0A3.075,3.075,0,0,1,179.729,116.458Z"/><path class="cls-8" d="M33.155,72.168l-0.308-.881-0.307.881a3.074,3.074,0,0,1-1.708,1.739h0a3.075,3.075,0,0,1,1.708,1.739l0.307,0.881,0.308-.881a3.075,3.075,0,0,1,1.708-1.739h0A3.075,3.075,0,0,1,33.155,72.168Z"/><path class="cls-9" d="M132.9,0H103.71a2.879,2.879,0,0,0-2.882,2.878V18.647a2.879,2.879,0,0,0,2.882,2.878h1.571v7.215l7.215-7.215h20.4a2.879,2.879,0,0,0,2.883-2.878V2.878A2.879,2.879,0,0,0,132.9,0Z"/><path class="cls-8" d="M107.807,15.447h6.886a0.962,0.962,0,0,1,.962.962h0a0.962,0.962,0,0,1-.962.962h-6.886a0.962,0.962,0,0,1-.962-0.962h0A0.962,0.962,0,0,1,107.807,15.447Z"/><path class="cls-8" d="M107.807,10.63H120.5a0.962,0.962,0,0,1,.962.962h0a0.962,0.962,0,0,1-.962.962H107.807a0.962,0.962,0,0,1-.962-0.962h0A0.962,0.962,0,0,1,107.807,10.63Z"/><path class="cls-8" d="M107.807,5.948h21.814a0.962,0.962,0,0,1,.962.962h0a0.962,0.962,0,0,1-.962.962H107.807a0.962,0.962,0,0,1-.962-0.962h0A0.962,0.962,0,0,1,107.807,5.948Z"/><path class="cls-10" d="M114.8,135.305h33.8a13.3,13.3,0,0,0,13.217-11.846l4.874-50.731h-33.78l-0.69,29.415Z"/><path class="cls-11" d="M114.8,134.759l4.477-.163,5.138-.156c1.984-.072,4.223-0.092,6.664-0.146l7.885-.153,8.8-.078,0.573,0,0.229,0,0.288-.016c0.369-.029.8-0.024,1.124-0.082s0.653-.089.993-0.164,0.688-.162,1.028-0.262a11.919,11.919,0,0,0,3.8-1.956,12.1,12.1,0,0,0,4.549-7.254l0.168-1.08,0.119-1.214,0.238-2.425,0.472-4.816,0.93-9.366,1.766-16.594L165.385,77.1l0.536-4.446a0.776,0.776,0,0,1,1.544.148l-0.32,4.467-0.922,11.769L164.8,105.664l-0.87,9.371-0.454,4.818-0.228,2.426-0.114,1.215c-0.057.46-.132,0.888-0.2,1.334a14.4,14.4,0,0,1-10.2,11.158c-0.414.116-.836,0.2-1.252,0.3s-0.877.129-1.312,0.189-0.789.042-1.186,0.067l-0.288.011h-0.346l-0.573,0-8.8-.078-7.885-.153c-2.442-.054-4.68-0.075-6.664-0.146l-5.138-.156-4.477-.163A0.547,0.547,0,0,1,114.8,134.759Z"/><line class="cls-12" x1="134.13" y1="136.264" x2="134.13" y2="172.092"/><rect class="cls-11" x="31.563" y="102.698" width="108.948" height="1.695" transform="translate(172.075 207.09) rotate(180)"/><polygon class="cls-13" points="127.663 178.855 128.82 183 123.19 184.706 121.429 179.588 127.663 178.855"/><polygon class="cls-13" points="93.675 175.847 93.675 179.175 98.659 179.175 99.216 175.847 93.675 175.847"/><path class="cls-14" d="M131.958,79.567L124.43,98.149l-0.167.413a2.842,2.842,0,0,1-2.645,1.769l-21.436-.154a1.57,1.57,0,0,1-.216-3.123l21.212-3.1-2.812,2.181,5.068-19.4a4.5,4.5,0,1,1,8.708,2.275A4.991,4.991,0,0,1,131.958,79.567Z"/><path class="cls-14" d="M102.51,96.683l-7.32-.152a3.478,3.478,0,0,0-3.277,3.649H102.6Z"/><path class="cls-15" d="M120.106,81.829l11.721,2.862,1.923-10.446a5.06,5.06,0,0,0-4.312-5.892h0a5.152,5.152,0,0,0-5.584,3.281Z"/><path class="cls-16" d="M132.224,102.143L96.111,120.469a9.448,9.448,0,0,0-5.156,8.978l2.72,46.4h5.541l7.476-49.645,28.116-19.741Z"/><path class="cls-17" d="M125.851,38.771s10.035-3.412,15.308,6.092a9.6,9.6,0,0,0,1.05,1.566c1.071,1.264,3.3,3.594,5.765,4.349,9.766,3,15.947,21.464-3.493,23.107-24.328,2.057-31.236-2.741-27.756-12.439,2.482-6.916.266-11.826,0.266-11.826Z"/><path class="cls-18" d="M133.863,63.557l-5.193,2.31a8.472,8.472,0,0,0-5.036,7.837c0.08,6.818,1.627,23.746,7.387,30.224h17.557C151.3,91.935,149.731,73.5,149.731,73.5a8.681,8.681,0,0,0-7.638-8.956Z"/><path class="cls-14" d="M134.346,69.147h0a3.362,3.362,0,0,1-3.723-2.912l-1.428-11.159,6.679-.776,1.419,11.082A3.362,3.362,0,0,1,134.346,69.147Z"/><path class="cls-13" d="M119.277,45.563H135.8a0,0,0,0,1,0,0v9.8a8.129,8.129,0,0,1-8.129,8.129H127.4a8.126,8.126,0,0,1-8.126-8.126V45.563a0,0,0,0,1,0,0Z" transform="translate(-5.985 16.966) rotate(-7.437)"/><path class="cls-17" d="M136.371,50.559l-1.4,2.9s-1.862,1.613-2.389-2.44c-0.447-3.433-2.939-2.837-2.939-2.837s-8.538,6.459-13.554,2.027c-3.958-3.5,2.439-9.9,9.759-11.435l9.6,4.195Z"/><circle class="cls-13" cx="136.697" cy="53.249" r="2.71" transform="translate(-5.406 16.803) rotate(-6.898)"/><circle class="cls-8" cx="136.697" cy="54.457" r="0.488" transform="translate(-5.549 16.804) rotate(-6.895)"/><path class="cls-8" d="M122.365,58.7l4.6-.978s0.221,2-2.3,2.358A1.868,1.868,0,0,1,122.365,58.7Z"/><path class="cls-11" d="M148.578,103.928H131.021L102.934,120.9a7.7,7.7,0,0,0-3.066,9.69l21.56,49,6.234-.733-11.588-47.283c9.725-.411,27.784-1.88,32.5-7.139C156.564,115.532,148.578,103.928,148.578,103.928Z"/><path class="cls-19" d="M88.7,73.182L98.719,100.1H66.162l-9.268-25.36a1.163,1.163,0,0,1,1.092-1.562H88.7Z"/><path class="cls-20" d="M88.507,73.182h1.545a1.981,1.981,0,0,1,1.859,1.3l9.364,25.393H98.437Z"/><path class="cls-20" d="M66.252,99.871H98.437a0,0,0,0,1,0,0v2.571a0,0,0,0,1,0,0H68.6a2.35,2.35,0,0,1-2.35-2.35V99.871A0,0,0,0,1,66.252,99.871Z"/><path class="cls-20" d="M98.719,102.7h20.092a1.3,1.3,0,0,0,1.3-1.3h0a1.3,1.3,0,0,0-1.3-1.3H98.719V102.7Z"/><ellipse class="cls-21" cx="77.771" cy="87.483" rx="2.923" ry="3.548" transform="matrix(0.949, -0.314, 0.314, 0.949, -23.557, 28.88)"/><path class="cls-13" d="M145.7,79.059L138.154,98l-0.166.418a2.866,2.866,0,0,1-2.673,1.8l-21.44-.141a1.584,1.584,0,0,1-.222-3.152l21.209-3.14L132.023,96l5.054-19.748a4.542,4.542,0,1,1,8.8,2.252A5.008,5.008,0,0,1,145.7,79.059Z"/><path class="cls-22" d="M115.768,96.328l-7.257-.153a3.487,3.487,0,0,0-3.248,3.685h10.6Z"/><path class="cls-15" d="M133.8,81.4l11.721,2.916,1.923-10.641a5.142,5.142,0,0,0-4.312-6h0a5.142,5.142,0,0,0-5.584,3.342Z"/><path class="cls-23" d="M119.535,180.729l-2.735,2.7-6.145,1.5a1.925,1.925,0,0,0-1.361,1.233l-0.312.889a0.671,0.671,0,0,0,.647.893l19.781-.48a1.118,1.118,0,0,0,1.091-1.209l-1.56-5.6-2.989.715a3.669,3.669,0,0,1-3-.311l-1.063-.619A1.949,1.949,0,0,0,119.535,180.729Z"/><path class="cls-23" d="M91.144,176.843l-2.735,2.7-6.145,1.5a1.925,1.925,0,0,0-1.361,1.233l-0.312.889a0.671,0.671,0,0,0,.647.893l17.9-.378a1.118,1.118,0,0,0,1.091-1.208l-0.465-5.725-2.207.733a3.669,3.669,0,0,1-3-.311l-1.063-.619A1.949,1.949,0,0,0,91.144,176.843Z"/><rect class="cls-9" x="167.39" y="40.326" width="56.429" height="20.426" rx="3.086" ry="3.086" transform="translate(391.21 101.078) rotate(180)"/><path class="cls-8" d="M206.306,44.678h10.4a0.973,0.973,0,0,1,.973.973v9.775a0.974,0.974,0,0,1-.974.974h-10.4a0.973,0.973,0,0,1-.973-0.973V45.652A0.974,0.974,0,0,1,206.306,44.678Z" transform="translate(423.009 101.078) rotate(180)"/><path class="cls-8" d="M174.373,47.132h26.849a0.84,0.84,0,0,0,.84-0.84h0a0.84,0.84,0,0,0-.84-0.84H174.373a0.84,0.84,0,0,0-.84.84h0A0.84,0.84,0,0,0,174.373,47.132Z"/><rect class="cls-8" x="191.01" y="49.698" width="11.052" height="1.681" rx="0.84" ry="0.84" transform="translate(393.072 101.078) rotate(-180)"/><rect class="cls-8" x="173.533" y="49.698" width="12.883" height="1.681" rx="0.84" ry="0.84" transform="translate(359.949 101.078) rotate(-180)"/><path class="cls-8" d="M181.095,55.627h20.127a0.84,0.84,0,0,0,.84-0.84h0a0.84,0.84,0,0,0-.84-0.84H181.095a0.84,0.84,0,0,0-.84.84h0A0.84,0.84,0,0,0,181.095,55.627Z"/><path class="cls-24" d="M49.807,94.539s8.284,0.029,6.563-8.5C56.37,86.042,47.679,86.9,49.807,94.539Z"/><path class="cls-24" d="M48.769,94.081s-8.386.03-6.644-8.6C42.125,85.48,50.923,86.35,48.769,94.081Z"/><path class="cls-24" d="M49.154,94.111s-6.107-6.154,1.1-11.579C50.249,82.532,56.036,89.689,49.154,94.111Z"/><polygon class="cls-25" points="55.855 93.389 42.453 93.389 44.587 102.694 53.55 102.694 55.855 93.389"/><line class="cls-26" x1="82.485" y1="104.392" x2="82.485" y2="170.018"/></svg>