<svg id="Layer_1" data-name="Layer 1" xmlns="http://www.w3.org/2000/svg" viewBox="0 0 799.192 671.648"><defs><style>.cls-1{fill:#f6f9f8;}.cls-2{fill:#fff;}.cls-3{fill:#d1e8e6;}.cls-4{fill:#00bfc2;}.cls-5{fill:#0086f0;}.cls-6{fill:#324553;}.cls-7{fill:#969092;}.cls-8{fill:#b2ccc9;}</style></defs><title>details-lightbox-1</title><rect class="cls-1" x="310.566" y="496.921" width="177.504" height="116.893"/><rect class="cls-2" x="23.484" y="25.408" width="756.077" height="431.162"/><path class="cls-3" d="M778.37,1H22.43A21.622,21.622,0,0,0,.808,22.621v462.6A21.63,21.63,0,0,0,22.43,506.85H778.37A21.632,21.632,0,0,0,800,485.22V22.621A21.625,21.625,0,0,0,778.37,1Zm-7.238,449.255H30.835V31.027h740.3V450.255Z" transform="translate(-0.808 -1)"/><rect class="cls-4" x="50.805" y="50.997" width="216.468" height="90.917"/><rect class="cls-5" x="50.805" y="163.56" width="697.027" height="90.917"/><rect class="cls-4" x="50.805" y="406.004" width="697.027" height="21.647"/><rect class="cls-4" x="288.919" y="50.997" width="458.912" height="90.917"/><rect class="cls-6" x="50.805" y="276.123" width="216.468" height="21.647"/><rect class="cls-6" x="288.919" y="276.123" width="220.797" height="21.647"/><rect class="cls-7" x="531.363" y="276.123" width="216.468" height="108.234"/><rect class="cls-6" x="50.805" y="319.417" width="216.468" height="21.647"/><rect class="cls-6" x="288.919" y="319.417" width="220.797" height="21.647"/><rect class="cls-6" x="50.805" y="362.711" width="216.468" height="21.647"/><rect class="cls-6" x="288.919" y="362.711" width="220.797" height="21.647"/><path class="cls-2" d="M591.709,298.073v67.369H691.8V298.073h-100.1Zm84.346,7.5a8.387,8.387,0,1,1-8.388,8.388A8.387,8.387,0,0,1,676.055,305.577Zm-74.72,50.24V330.742l8.008-16.776,16.578,25.164L642.6,322.351l16.726,25.164,8.363-8.428,16.751,16.73H601.336Z" transform="translate(-0.808 -1)"/><rect class="cls-3" x="262.943" y="613.813" width="272.75" height="21.647"/><rect class="cls-2" x="72.963" y="318.342" width="250.196" height="323.707"/><path class="cls-8" d="M335.236,291.676H67.035A16.762,16.762,0,0,0,50.27,308.437V655.882a16.763,16.763,0,0,0,16.766,16.766h268.2A16.763,16.763,0,0,0,352,655.882V308.437A16.762,16.762,0,0,0,335.236,291.676ZM201.694,664.942a9.347,9.347,0,1,1,9.338-9.342A9.358,9.358,0,0,1,201.694,664.942Zm116.781-25.821H83.8V325.2H318.475V639.121Z" transform="translate(-0.808 -1)"/><rect class="cls-4" x="92.747" y="334.638" width="65.331" height="37.332"/><rect class="cls-4" x="92.747" y="558.631" width="65.331" height="37.332"/><rect class="cls-4" x="167.412" y="558.631" width="65.331" height="37.332"/><rect class="cls-4" x="242.076" y="558.631" width="65.331" height="37.332"/><rect class="cls-5" x="92.747" y="381.304" width="214.659" height="37.332"/><rect class="cls-6" x="92.747" y="427.969" width="214.659" height="9.333"/><rect class="cls-6" x="92.747" y="446.635" width="214.659" height="9.333"/><rect class="cls-6" x="92.747" y="465.301" width="214.659" height="9.333"/><rect class="cls-5" x="92.747" y="539.965" width="214.659" height="9.333"/><rect class="cls-6" x="92.747" y="483.967" width="111.996" height="9.333"/><rect class="cls-6" x="92.747" y="502.633" width="111.996" height="9.333"/><rect class="cls-6" x="92.747" y="521.299" width="111.996" height="9.333"/><rect class="cls-4" x="167.412" y="334.638" width="139.995" height="37.332"/><rect class="cls-4" x="92.747" y="605.296" width="214.659" height="23.333"/><rect class="cls-7" x="214.077" y="483.967" width="93.33" height="46.665"/><path class="cls-2" d="M240.788,494.081v29.312h43.55V494.081h-43.55Zm36.7,3.267a3.648,3.648,0,1,1-3.65,3.65A3.648,3.648,0,0,1,277.486,497.348ZM244.978,519.2v-10.91l3.484-7.3,7.212,10.947,7.26-7.3,7.276,10.951,3.639-3.669,7.287,7.278H244.978Z" transform="translate(-0.808 -1)"/></svg>