<svg id="Layer_1" data-name="Layer 1" xmlns="http://www.w3.org/2000/svg" viewBox="0 0 799.41 671.648"><defs><style>.cls-1{fill:#f6f9f8;}.cls-2{fill:#fff;}.cls-3{fill:#d1e8e6;}.cls-4{fill:#00bfc2;}.cls-5{fill:#0086f0;}.cls-6{fill:#324553;}.cls-7{fill:#969092;}.cls-8{fill:#b2ccc9;}.cls-9{fill:#d0d8e3;}</style></defs><title>details-lighbox-2</title><rect class="cls-1" x="310.566" y="496.921" width="177.504" height="116.893"/><rect class="cls-2" x="23.484" y="25.408" width="756.077" height="431.162"/><path class="cls-3" d="M778.37,1H22.43A21.622,21.622,0,0,0,.808,22.621v462.6A21.63,21.63,0,0,0,22.43,506.85H778.37A21.632,21.632,0,0,0,800,485.22V22.621A21.625,21.625,0,0,0,778.37,1Zm-7.238,449.255H30.835V31.027h740.3V450.255Z" transform="translate(-0.808 -1)"/><rect class="cls-4" x="50.805" y="50.997" width="216.468" height="90.917"/><rect class="cls-5" x="50.805" y="163.56" width="697.027" height="90.917"/><rect class="cls-4" x="50.805" y="406.004" width="697.027" height="21.647"/><rect class="cls-4" x="288.919" y="50.997" width="458.912" height="90.917"/><rect class="cls-6" x="50.805" y="276.123" width="216.468" height="21.647"/><rect class="cls-6" x="288.919" y="276.123" width="220.797" height="21.647"/><rect class="cls-7" x="531.363" y="276.123" width="216.468" height="108.234"/><rect class="cls-6" x="50.805" y="319.417" width="216.468" height="21.647"/><rect class="cls-6" x="288.919" y="319.417" width="220.797" height="21.647"/><rect class="cls-6" x="50.805" y="362.711" width="216.468" height="21.647"/><rect class="cls-6" x="288.919" y="362.711" width="220.797" height="21.647"/><path class="cls-2" d="M591.709,298.073v67.369H691.8V298.073h-100.1Zm84.346,7.5a8.387,8.387,0,1,1-8.388,8.388A8.387,8.387,0,0,1,676.055,305.577Zm-74.72,50.24V330.742l8.008-16.776,16.578,25.164L642.6,322.351l16.726,25.164,8.363-8.428,16.751,16.73H601.336Z" transform="translate(-0.808 -1)"/><rect class="cls-3" x="262.943" y="613.813" width="272.75" height="21.647"/><rect class="cls-2" x="23.501" y="318.342" width="250.196" height="323.707"/><path class="cls-8" d="M285.775,291.676H17.574A16.762,16.762,0,0,0,.808,308.437V655.882a16.763,16.763,0,0,0,16.766,16.766h268.2a16.763,16.763,0,0,0,16.764-16.766V308.437A16.762,16.762,0,0,0,285.775,291.676ZM152.233,664.942a9.347,9.347,0,1,1,9.338-9.342A9.358,9.358,0,0,1,152.233,664.942Zm116.781-25.821H34.335V325.2H269.014V639.121Z" transform="translate(-0.808 -1)"/><rect class="cls-4" x="43.286" y="334.638" width="65.331" height="37.332"/><rect class="cls-4" x="43.286" y="558.631" width="65.331" height="37.332"/><rect class="cls-4" x="117.95" y="558.631" width="65.331" height="37.332"/><rect class="cls-4" x="192.614" y="558.631" width="65.331" height="37.332"/><rect class="cls-5" x="43.286" y="381.304" width="214.659" height="37.332"/><rect class="cls-6" x="43.286" y="427.969" width="214.659" height="9.333"/><rect class="cls-6" x="43.286" y="446.635" width="214.659" height="9.333"/><rect class="cls-6" x="43.286" y="465.301" width="214.659" height="9.333"/><rect class="cls-5" x="43.286" y="539.965" width="214.659" height="9.333"/><rect class="cls-6" x="43.286" y="483.967" width="111.996" height="9.333"/><rect class="cls-6" x="43.286" y="502.633" width="111.996" height="9.333"/><rect class="cls-6" x="43.286" y="521.299" width="111.996" height="9.333"/><rect class="cls-4" x="117.95" y="334.638" width="139.995" height="37.332"/><rect class="cls-4" x="43.286" y="605.296" width="214.659" height="23.333"/><rect class="cls-7" x="164.615" y="483.967" width="93.33" height="46.665"/><path class="cls-2" d="M191.326,494.081v29.312h43.55V494.081h-43.55Zm36.7,3.267a3.648,3.648,0,1,1-3.65,3.65A3.648,3.648,0,0,1,228.025,497.348ZM195.517,519.2v-10.91L199,501l7.212,10.947,7.26-7.3,7.276,10.951,3.639-3.669,7.287,7.278H195.517Z" transform="translate(-0.808 -1)"/><rect class="cls-2" x="678.385" y="455.853" width="117.583" height="189.942"/><path class="cls-8" d="M786.283,427.952H690a13.953,13.953,0,0,0-13.94,13.934V658.71A13.953,13.953,0,0,0,690,672.644h96.287a13.949,13.949,0,0,0,13.936-13.934V441.885A13.949,13.949,0,0,0,786.283,427.952ZM736.649,666.934a9.593,9.593,0,1,1,9.593-9.593A9.588,9.588,0,0,1,736.649,666.934Zm55.413-25.1H684.215V462.386H792.061V641.83Z" transform="translate(-0.808 -1)"/><rect class="cls-4" x="691.952" y="469.42" width="27.135" height="22.612"/><rect class="cls-4" x="691.952" y="582.481" width="27.135" height="18.09"/><rect class="cls-4" x="723.609" y="582.481" width="27.135" height="18.09"/><rect class="cls-4" x="755.266" y="582.481" width="27.135" height="18.09"/><rect class="cls-5" x="691.952" y="496.555" width="90.449" height="18.09"/><rect class="cls-6" x="691.952" y="519.167" width="90.449" height="4.522"/><rect class="cls-5" x="691.952" y="623.183" width="90.449" height="9.045"/><rect class="cls-6" x="691.952" y="528.212" width="90.449" height="4.522"/><rect class="cls-6" x="691.952" y="537.257" width="90.449" height="4.522"/><rect class="cls-5" x="691.952" y="573.436" width="90.449" height="4.522"/><rect class="cls-6" x="691.952" y="546.301" width="45.224" height="4.522"/><rect class="cls-6" x="691.952" y="555.346" width="45.224" height="4.522"/><rect class="cls-6" x="691.952" y="564.391" width="45.224" height="4.522"/><rect class="cls-4" x="723.609" y="469.42" width="58.792" height="22.612"/><rect class="cls-9" x="691.952" y="605.093" width="90.449" height="13.567"/><rect class="cls-7" x="741.699" y="546.301" width="40.702" height="22.612"/><path class="cls-2" d="M750.832,550.07v16.4h22.5v-16.4h-22.5Zm18.96,1.828a2.046,2.046,0,1,1-1.89,2.041A1.967,1.967,0,0,1,769.792,551.9ZM753,564.132v-6.1l1.8-4.09,3.725,6.13,3.747-4.09,3.759,6.135,1.881-2.054,3.763,4.072H753Z" transform="translate(-0.808 -1)"/></svg>