<svg xmlns="http://www.w3.org/2000/svg" xmlns:xlink="http://www.w3.org/1999/xlink" viewBox="0 0 635.652 595.626"><defs><style>.cls-1{fill:none;}.cls-2{isolation:isolate;}.cls-3{fill:#d5dbda;}.cls-4{fill:#fff;}.cls-5{fill:#efefef;}.cls-6{fill:#ffd04d;}.cls-7{fill:#00bfd8;}.cls-8{opacity:0.15;}.cls-10,.cls-13,.cls-30,.cls-51,.cls-8{mix-blend-mode:multiply;}.cls-9{opacity:0.26;}.cls-10,.cls-53{opacity:0.62;}.cls-11{fill:#66341b;}.cls-12{fill:#723e24;}.cls-13{opacity:0.3;}.cls-14{fill:#e8f6f7;}.cls-15{fill:#d0e0e2;}.cls-16{fill:#ffe1bd;}.cls-17{fill:#f4f4f4;}.cls-18{fill:#eaeaea;}.cls-19{fill:#3a3a3a;}.cls-20{fill:#e2e2e2;}.cls-21{fill:#f4d5b5;}.cls-22{fill:#632f00;}.cls-23{fill:#e8c5a0;}.cls-24{fill:#8c4200;}.cls-25{fill:#606060;}.cls-26{fill:#e5bb98;}.cls-27{fill:#d8d8d8;}.cls-28{fill:#09424c;}.cls-29{fill:#0c5a71;}.cls-30{opacity:0.1;}.cls-31{fill:#0b0b3a;}.cls-32,.cls-35{fill:#ce9006;}.cls-32{opacity:0.39;}.cls-33{fill:#d69507;}.cls-34,.cls-51{fill:#efaf11;}.cls-36{fill:#fafeff;}.cls-37{fill:#b4eff9;}.cls-38{fill:#75d9ef;}.cls-39{opacity:0.5;}.cls-40{fill:#282c2d;}.cls-41{fill:#d6d6d6;}.cls-42{fill:#525252;}.cls-43{fill:#a5a5af;}.cls-44{fill:#f1f2f2;}.cls-45{fill:#a7a9ac;}.cls-46{fill:#383838;}.cls-47{fill:#e6e7e8;}.cls-48{fill:#58595b;}.cls-49{fill:#594a42;}.cls-50{fill:#81553a;}.cls-51{opacity:0.55;}.cls-52{fill:#709e3e;}.cls-54{fill:#93bc6c;}.cls-55{fill:#4c2311;}.cls-56{fill:#1a1a47;}.cls-57,.cls-66{fill:#3d3d72;}.cls-57{opacity:0.54;}.cls-58{clip-path:url(#clip-path);}.cls-59{fill:#e1edf9;}.cls-60{fill:#c2e0f2;}.cls-61{fill:#ffd19f;}.cls-62{fill:#006466;}.cls-63{fill:#007d87;}.cls-64,.cls-65{fill:#00b3b7;}.cls-64{opacity:0.18;}.cls-65{opacity:0.45;}.cls-67{fill:#33305b;}</style><clipPath id="clip-path" transform="translate(-1.941 -2.804)"><path class="cls-1" d="M442.612,447.739l29.393,7.018,34.752,0.159,35.97-9.056,64.446,119.988-8.751,36.213S394.973,616.708,389.549,612.1s-30.88-29.293-34.472-38.918S442.612,447.739,442.612,447.739Z"/></clipPath></defs><title>header-teamwork</title><g class="cls-2"><g id="Layer_1" data-name="Layer 1"><rect class="cls-3" x="186.893" y="5.481" width="439.338" height="259.518"/><rect class="cls-4" x="199.087" y="10.557" width="414.949" height="249.366"/><rect class="cls-5" x="229.512" y="22.095" width="351.268" height="16.655"/><rect class="cls-6" x="242.273" y="180.558" width="19.106" height="47.966"/><rect class="cls-7" x="285.326" y="138.45" width="19.106" height="90.074"/><rect class="cls-6" x="328.38" y="147.764" width="19.106" height="80.76"/><rect class="cls-7" x="371.434" y="102.167" width="19.106" height="126.358"/><g class="cls-8"><rect class="cls-9" x="285.326" y="138.45" width="8.769" height="90.074"/></g><g class="cls-8"><rect class="cls-9" x="242.273" y="180.558" width="8.769" height="47.966"/></g><g class="cls-10"><rect class="cls-9" x="371.434" y="102.167" width="8.769" height="126.358"/></g><g class="cls-8"><rect class="cls-9" x="328.38" y="147.764" width="8.769" height="80.76"/></g><polygon class="cls-3" points="400.65 241.728 229.655 241.728 229.655 59.649 232.263 59.649 232.263 239.12 400.65 239.12 400.65 241.728"/><polygon class="cls-3" points="247.218 158.095 245.476 156.154 290.207 115.988 331.639 124.989 376.503 75.043 378.444 76.786 332.566 127.86 290.957 118.821 247.218 158.095"/><polygon class="cls-3" points="381.959 84.165 369.308 72.034 385.64 67.665 381.959 84.165"/><rect class="cls-7" x="416.842" y="169.14" width="16.034" height="16.034"/><rect class="cls-6" x="416.842" y="197.233" width="16.034" height="16.034"/><rect class="cls-5" x="437.294" y="204.156" width="50.826" height="9.112"/><rect class="cls-5" x="437.294" y="176.062" width="50.826" height="9.112"/><rect class="cls-7" x="511.139" y="169.14" width="16.034" height="16.034"/><rect class="cls-6" x="511.139" y="197.233" width="16.034" height="16.034"/><rect class="cls-5" x="531.59" y="204.156" width="50.826" height="9.112"/><rect class="cls-5" x="531.59" y="176.062" width="50.826" height="9.112"/><rect class="cls-5" x="430.529" y="70.652" width="150.252" height="3.423"/><rect class="cls-5" x="418.733" y="78.941" width="162.047" height="3.423"/><rect class="cls-5" x="418.733" y="87.23" width="162.047" height="3.423"/><rect class="cls-5" x="418.733" y="95.518" width="162.047" height="3.423"/><rect class="cls-5" x="418.733" y="103.807" width="162.047" height="3.423"/><rect class="cls-5" x="418.733" y="112.096" width="162.047" height="3.423"/><rect class="cls-5" x="418.733" y="120.385" width="162.047" height="3.423"/><rect class="cls-5" x="418.733" y="128.674" width="162.047" height="3.423"/><rect class="cls-5" x="441.856" y="136.962" width="138.925" height="3.423"/><path class="cls-11" d="M637.593,6.186a3.383,3.383,0,0,1-3.383,3.383H182.795a3.382,3.382,0,0,1-3.382-3.383h0A3.382,3.382,0,0,1,182.795,2.8H634.21a3.383,3.383,0,0,1,3.383,3.383h0Z" transform="translate(-1.941 -2.804)"/><path class="cls-11" d="M637.593,269.9a3.383,3.383,0,0,1-3.383,3.383H182.795a3.382,3.382,0,0,1-3.382-3.383h0a3.382,3.382,0,0,1,3.382-3.383H634.21a3.383,3.383,0,0,1,3.383,3.383h0Z" transform="translate(-1.941 -2.804)"/><path class="cls-12" d="M114,567.646l2.45-130.968h-8.712l2.449,130.968A1.958,1.958,0,1,0,114,567.646Z" transform="translate(-1.941 -2.804)"/><path class="cls-12" d="M33.931,552.326L84.53,431.5l-8.1-3.215L30.386,550.919a2.242,2.242,0,0,0,.885,2.939A2.242,2.242,0,0,0,33.931,552.326Z" transform="translate(-1.941 -2.804)"/><path class="cls-12" d="M190.25,552.326L139.65,431.5l8.1-3.215,46.046,122.632A1.958,1.958,0,1,1,190.25,552.326Z" transform="translate(-1.941 -2.804)"/><g class="cls-13"><path d="M75.026,432.032l5.152,2.045L32.618,553.759a2.779,2.779,0,0,0,1.313-1.434L84.53,431.5l-8.1-3.215Z" transform="translate(-1.941 -2.804)"/><path d="M107.8,440.125h6.492l-2.429,129.9a1.424,1.424,0,0,0,.229.03A2.242,2.242,0,0,0,114,567.646l2.45-130.968h-8.712Z" transform="translate(-1.941 -2.804)"/><path d="M193.794,550.919L147.748,428.287l-8.1,3.215,0.93,2.222,5.011-1.989,45.781,121.928a1.726,1.726,0,0,0,1.536.2A2.242,2.242,0,0,0,193.794,550.919Z" transform="translate(-1.941 -2.804)"/></g><path class="cls-14" d="M172.121,442.866c-8.836,7.19-21.93,13.807-55.186,14.462-43.747.862-66.649-4.1-79.079-26.664C17.1,392.985,43.074,271.257,84.048,298.223c34.252,22.542,41.113,94.5,45.64,104.45S193.563,425.419,172.121,442.866Z" transform="translate(-1.941 -2.804)"/><path class="cls-15" d="M124.518,448.008c-43.747.862-66.648-4.1-79.079-26.664-14.169-25.718-6.564-90.591,12.722-120.612C33.478,323.611,21.954,401.8,37.857,430.663c12.43,22.561,35.331,27.526,79.079,26.664,33.256-.655,46.35-7.272,55.186-14.462,3.009-2.448,4.426-4.8,4.628-7.075C167.883,442.062,154.273,447.422,124.518,448.008Z" transform="translate(-1.941 -2.804)"/><path class="cls-16" d="M143.18,160c2.989-8.624,5.749-17.688,10.437-13.11,4.932,4.819,4.537,4.237,2.746,10.923S140.665,167.254,143.18,160Z" transform="translate(-1.941 -2.804)"/><path class="cls-16" d="M148.534,147.672c1.486-4.105,3.925-8.794,6.433-10.732s-1.292,4.855-2.19,8.035S147.285,151.125,148.534,147.672Z" transform="translate(-1.941 -2.804)"/><path class="cls-17" d="M144.5,194.416c3.514-13.186,5.27-30.42,5.27-30.42l-6.583-4.432s-13.4,27.543-20.641,48.452L85.2,198.427l-4.552-.928L92.8,221.781s35.969,5.237,38.179,4S140.922,207.84,144.5,194.416Z" transform="translate(-1.941 -2.804)"/><path class="cls-18" d="M130.978,225.78c-2.21,1.237-38.179-4-38.179-4L80.647,197.5l4.551,0.928c3.355,1.416,8.791,6.85,13.205,12.623,3.187,4.168,4.943,5.651,9.758,7.457,7.365,2.762,15.191,4.721,18.132,4.931,4.971,0.331,5.457.574,6.518-.884A3.184,3.184,0,0,1,130.978,225.78Z" transform="translate(-1.941 -2.804)"/><path class="cls-17" d="M43.048,270.814a32.888,32.888,0,0,1,1.475,18.971c-2.794,12.574.386,13.418,0.386,13.418s17.042,10.817,31.216,15.238c10.158,3.161,18.816,2.626,18.575-8.589l-0.008-.154c-0.018-.681-0.034-1.332-0.05-1.967-0.479-25.207,4.777-26.489,6.073-54.715,1.337-28.956-6.4-45.107-14.068-52.112-7.679-6.989-18.159-7.249-37.873-2.589-14.809,3.489-19.687,7.419-19.567,18.377A85.943,85.943,0,0,0,30.8,230.181C33.246,243.971,39.084,260.526,43.048,270.814Z" transform="translate(-1.941 -2.804)"/><path class="cls-19" d="M78.812,208.8S94.173,259.154,91.1,283.275l-5.659,10.3-6.187-11.228s5.031-48.225-4.6-72.693Z" transform="translate(-1.941 -2.804)"/><path class="cls-20" d="M43.048,270.814a32.888,32.888,0,0,1,1.475,18.971c-2.794,12.574.386,13.418,0.386,13.418s17.042,10.817,31.216,15.238l13.244-1.256,5.3-4.166,0.021-3.322c-0.018-.681-0.034-1.332-0.05-1.967a98.118,98.118,0,0,1-20-.521,83.007,83.007,0,0,1-19.611-4.913,7.643,7.643,0,0,1-4.822-8.494,109.8,109.8,0,0,0,1.834-17.583c-0.04-5.55-2.61-14.93-4.711-21.7a43.747,43.747,0,0,1-1.765-16.041,143.281,143.281,0,0,0-.015-18.283l-10.5-5.687-5.848,2.179A85.943,85.943,0,0,0,30.8,230.181C33.246,243.971,39.084,260.526,43.048,270.814Z" transform="translate(-1.941 -2.804)"/><path class="cls-21" d="M42.831,324.309c-1.213.2-4.315-5.246-4.315-5.246l1.3-1.727a5.79,5.79,0,0,1,2.928-2.052l0.211-.065a2.5,2.5,0,0,1,2.808.963c0.891,1.32,2.265,2.826,3.863,2.768h0.028a0.36,0.36,0,0,0,.169.028C51.236,319.007,44.044,324.111,42.831,324.309Z" transform="translate(-1.941 -2.804)"/><path class="cls-22" d="M90.673,149.106S91.988,152.78,90,155.7l-8.128-11,5.669-.052Z" transform="translate(-1.941 -2.804)"/><path class="cls-16" d="M46.531,163.657c0.359,14.19,12.6,22.414,12.6,22.414l-0.818,12.915,8.257,5.352,5.666,3.668,3.252-6.795,0.446-8.326a4.292,4.292,0,0,1,3.408-3.958,15.622,15.622,0,0,0,8.052-4.867,5.4,5.4,0,0,0,.514-0.636l0.019-.011c5.366-7.311,7.4-35.31-10.972-43.259C57.987,131.924,46.161,149.447,46.531,163.657Z" transform="translate(-1.941 -2.804)"/><path class="cls-23" d="M67.125,196.592l-0.556,7.746,5.666,3.668,3.252-6.795,0.446-8.326a4.292,4.292,0,0,1,3.408-3.958,15.622,15.622,0,0,0,8.052-4.867,5.4,5.4,0,0,0,.514-0.636A30.519,30.519,0,0,1,76.353,187,10.407,10.407,0,0,0,67.125,196.592Z" transform="translate(-1.941 -2.804)"/><path class="cls-24" d="M66.342,168.031c-0.718.294-1.4-.816-1.4-0.816s-3.983-8.945-5.354-10.316c-2.449-2.481-8.227-2.252-8.683,5.419-0.359,5.941,6.659,18.608,8.814,22.329a1.414,1.414,0,0,1-.359,1.8,1.766,1.766,0,0,1-.783.294h-0.1a1.369,1.369,0,0,1-.914-0.326c-4.537-3.983-24.516-23.145-8.651-41.165,0,0,12.6.816,14.527,6.888a126.9,126.9,0,0,1,3.3,14.331S67.093,167.7,66.342,168.031Z" transform="translate(-1.941 -2.804)"/><path class="cls-24" d="M90.673,149.106s-11.027-8.6-27.773,1.877l-13.713-3.5s-0.577-.187-0.273-2.241,1.819-22.215,25.839-17.683C88.564,130.165,97.023,139.736,90.673,149.106Z" transform="translate(-1.941 -2.804)"/><path class="cls-25" d="M79.875,204.514l-0.08.66a13.106,13.106,0,0,1-.983,3.625h0l-4.158.851-3.622-2.7,4.154-4.83,0.645,0.164a9.19,9.19,0,0,1,3.985,2.172Z" transform="translate(-1.941 -2.804)"/><path class="cls-20" d="M58.412,192.967a13.2,13.2,0,0,0-3.98,4.1,52.471,52.471,0,0,1,5.1,2.669c2.169,1.324,12.591,8.686,12.591,8.686l3.065-6.294S64.3,194.617,58.412,192.967Z" transform="translate(-1.941 -2.804)"/><path class="cls-20" d="M75.186,202.123s3.647,1.247,4.767,3.971c0,0,1.865-3.574-.518-9.935a16.466,16.466,0,0,0-3.539-2.567Z" transform="translate(-1.941 -2.804)"/><path class="cls-26" d="M46.2,315.417a21.682,21.682,0,0,0,2.512,2.749c0.574,0.316.672-.356,0.455-0.83S46.288,314.773,46.2,315.417Z" transform="translate(-1.941 -2.804)"/><path class="cls-22" d="M58.573,186.736h-0.1a1.369,1.369,0,0,1-.914-0.326c-4.537-3.983-24.516-23.145-8.651-41.165a18.57,18.57,0,0,0-.457,5.745S38.333,167.345,58.573,186.736Z" transform="translate(-1.941 -2.804)"/><ellipse class="cls-27" cx="66.459" cy="567.88" rx="65.844" ry="5.009"/><path class="cls-24" d="M35.869,551.57c0.866,3.325.536,4.515,0.877,6.683,0.425,2.688,2.894,3.666,4.325,5.873,1.576,2.431,4.051,6.331-5.616,6.527-10.349.207-16.48-.508-14.725-6.359s2.1-8.427,1.978-10.333,0.005-3.895,1.174-5.04S34.343,545.718,35.869,551.57Z" transform="translate(-1.941 -2.804)"/><path class="cls-19" d="M38.055,365.583S21.718,339.51,44.909,303.2c0,0,18.074,8.091,32.547,9.067,11.4,0.769,17.184-.411,17.184-0.411s0.96,34.909,1,53.725H38.055Z" transform="translate(-1.941 -2.804)"/><path class="cls-19" d="M49.065,441.35c4.469-18.846-14.079-22.165-19.935-8.53-8.284,19.285-7.625,103.99-7.182,116.295,0.057,1.611.9,1.309,1.8,0.983,2.639-.952,4.851-1.33,5.9-1.106a35.6,35.6,0,0,1,6.092,2.533C37.483,534.765,44.741,459.6,49.065,441.35Z" transform="translate(-1.941 -2.804)"/><path class="cls-19" d="M65.743,368.125c1.958-23.412-6.976-41.6-20.971-33.864-5.891,3.253-8.047,9.763-8.837,15.892s-5.127,69.828-6.646,81.338c-3.424,25.949,16.322,18.956,18.464,11.766C53.157,425.1,64.676,380.882,65.743,368.125Z" transform="translate(-1.941 -2.804)"/><path class="cls-19" d="M98.712,440.134c0.733-17.569-13.961-16.551-19.891-2.9-12.809,29.492.093,92.283,2.723,121.9,2.871-4.767,8.313-6.382,9.591-6.281a4.568,4.568,0,0,1,3.2,1.8C93.914,518.32,97.926,458.919,98.712,440.134Z" transform="translate(-1.941 -2.804)"/><path class="cls-19" d="M79.48,442.04c2.19,7.173,21.058,15.475,19.087-10.637-0.874-11.581-3.2-75.535-3.653-81.7s-1.48-15.176-4.46-16.3c-14.9-5.624-29.348,12.766-25.427,35.915C67.644,384.794,74.936,427.162,79.48,442.04Z" transform="translate(-1.941 -2.804)"/><path class="cls-24" d="M94.281,555.182c0.782,1.521,4.524,5.037,9.711,7.355s16.172,3.4,10.068,5.441-13.222.8-16.83,0.226a72.541,72.541,0,0,0-11.351-.685c-5.609-.038-5.652-0.383-4.9-6.708C82.024,552.107,91.758,550.264,94.281,555.182Z" transform="translate(-1.941 -2.804)"/><path class="cls-16" d="M41.807,310.22l2.879,4.057a7.515,7.515,0,0,1,7.6,3.97c2.437,4.772-6.184,10.748-8.635,8.544S35.87,314.4,35.87,314.4Z" transform="translate(-1.941 -2.804)"/><path class="cls-17" d="M20.27,297.35a205.9,205.9,0,0,1,15.955,18.9l1.486-1L43.4,311.38S31.73,286.94,28.414,275.007a42.424,42.424,0,0,0-6.869-13.867c0.222-.213.429-0.424,0.65-0.652,8.459-9.007,15.052-20.621,20.068-27.737a28.584,28.584,0,0,0,4.8-11.464,25.711,25.711,0,0,0,.081-8.456c-0.716-4.462-2.592-8.572-6.909-9.632a7.666,7.666,0,0,0-4.743.357A8.6,8.6,0,0,0,31.429,207c-6.594,10.668-25.272,39.546-28.209,46.669a14.972,14.972,0,0,0-1,3.647,12.46,12.46,0,0,0-.2,1.25C0.886,270.25,12.486,289.5,20.27,297.35Z" transform="translate(-1.941 -2.804)"/><path class="cls-18" d="M20.27,297.35a205.9,205.9,0,0,1,15.955,18.9l1.486-1s-8.563-11.931-12.61-16.764c-6.2-7.4-10.561-13.174-14.26-19.971S5.4,258.615,7.36,254.936c1.944-3.677,12.869-19.924,15.212-23.047,2.344-3.108,21.517-22.238,16.013-27.569a3.87,3.87,0,0,0-3.092-.763A8.6,8.6,0,0,0,31.429,207c-6.594,10.668-25.272,39.546-28.209,46.669a14.972,14.972,0,0,0-1,3.647,12.46,12.46,0,0,0-.2,1.25C0.886,270.25,12.486,289.5,20.27,297.35Z" transform="translate(-1.941 -2.804)"/><path class="cls-19" d="M50.824,314.5s-2.635,9.294-14.344,14.637c-10.1,4.609,16.173,7.245,16.759,6.22s5.635-17.987,5.635-17.987Z" transform="translate(-1.941 -2.804)"/><path class="cls-12" d="M252.078,560.282l2.464-131.773h-8.766l2.464,131.773A1.97,1.97,0,1,0,252.078,560.282Z" transform="translate(-1.941 -2.804)"/><path class="cls-12" d="M171.52,544.868L222.43,423.3l-8.147-3.234L167.954,543.452A1.97,1.97,0,1,0,171.52,544.868Z" transform="translate(-1.941 -2.804)"/><path class="cls-12" d="M328.8,544.868L277.888,423.3l8.148-3.234,46.329,123.385A1.97,1.97,0,1,1,328.8,544.868Z" transform="translate(-1.941 -2.804)"/><g class="cls-13"><path d="M212.868,423.835l5.184,2.058L170.2,546.31a2.8,2.8,0,0,0,1.321-1.443L222.43,423.3l-8.147-3.234Z" transform="translate(-1.941 -2.804)"/><path d="M245.841,431.978h6.532l-2.444,130.694a1.439,1.439,0,0,0,.231.03,2.256,2.256,0,0,0,1.918-2.42l2.464-131.773h-8.766Z" transform="translate(-1.941 -2.804)"/><path d="M332.365,543.452L286.036,420.067l-8.148,3.234,0.937,2.235,5.041-2L329.93,546.212a1.735,1.735,0,0,0,1.545.2A2.255,2.255,0,0,0,332.365,543.452Z" transform="translate(-1.941 -2.804)"/></g><path class="cls-14" d="M313.974,383.42c0,50.54-28.571,62.642-63.815,62.642s-63.815-12.1-63.815-62.642,28.571-99.385,63.815-99.385S313.974,332.88,313.974,383.42Z" transform="translate(-1.941 -2.804)"/><path class="cls-15" d="M255.283,434.684c-35.244,0-63.814-12.1-63.814-62.642a138.246,138.246,0,0,1,9.27-49.681c-9,17.454-14.394,39.1-14.394,61.06,0,50.54,28.571,62.642,63.815,62.642,27.632,0,51.159-7.442,60.034-35.012C299.074,429.36,278.647,434.684,255.283,434.684Z" transform="translate(-1.941 -2.804)"/><path class="cls-28" d="M219.566,370.179s-8.2,17.47-9.869,29.144c-2.438,17.044,1.164,24.427,22.94,25.107s28.124-3.563,38.508-3.563,22.453-19.686,9.081-43.061Z" transform="translate(-1.941 -2.804)"/><path class="cls-16" d="M228.919,513.3l-0.4,6.611s-6.435,18.96-6.752,23.742c-0.553,8.337,3.128,17.67,6.706,17.617,4.079-.06,9.7-5.288,12.206-15.735,1.7-7.075-1.052-20.932-.074-24.184s2.951-9.556,2.951-9.556Z" transform="translate(-1.941 -2.804)"/><path class="cls-24" d="M241.191,541.473c-2.82,2.846-8.556,8.836-10.833,8.721-2.363-.119-6.5-7.38-7.877-10.384a26.132,26.132,0,0,0-.712,3.839c-0.553,8.337,3.128,17.67,6.706,17.617,4.079-.06,9.7-5.288,12.206-15.735A22.611,22.611,0,0,0,241.191,541.473Z" transform="translate(-1.941 -2.804)"/><path class="cls-29" d="M243.235,516.518s26.018-82.15,29.266-92.257,5.868-29.325-9.192-32.677c-13.007-2.895-18.463,16.5-20.842,28.448s-14.362,91.684-14.362,91.684-1.414,4.484,6.352,5.767S243.235,516.518,243.235,516.518Z" transform="translate(-1.941 -2.804)"/><g class="cls-30"><path d="M258.736,391.5c-5.65,7.724-8.516,22.134-10.115,30.157-2.379,11.944-14.241,93.314-14.241,93.314s2,1.025,6.327,2.96a15.2,15.2,0,0,0-2.068-.007c-8.373.6-10.413-4.575-10.413-4.575s11.862-81.371,14.241-93.314C244.546,409.6,248.975,393.471,258.736,391.5Z" transform="translate(-1.941 -2.804)"/></g><path class="cls-16" d="M196.293,510.136l-0.866,6.566S187.66,535.156,187,539.9c-1.144,8.277,1.863,17.848,5.436,18.05,4.073,0.23,10.052-4.585,13.294-14.827,2.2-6.937.439-20.954,1.647-24.129S211,509.676,211,509.676Z" transform="translate(-1.941 -2.804)"/><path class="cls-24" d="M206.53,539.114c-3.015,2.638-9.163,8.205-11.425,7.929-2.348-.287-5.963-7.824-7.119-10.918A26.112,26.112,0,0,0,187,539.9c-1.144,8.277,1.863,17.848,5.436,18.05,4.073,0.23,10.052-4.585,13.294-14.827A22.6,22.6,0,0,0,206.53,539.114Z" transform="translate(-1.941 -2.804)"/><path class="cls-29" d="M210.344,514.367s31.794-80.092,35.753-89.942,7.939-28.833-6.845-33.248c-12.768-3.813-19.59,15.149-22.812,26.894s-20.846,90.43-20.846,90.43-1.73,4.372,5.926,6.2S210.344,514.367,210.344,514.367Z" transform="translate(-1.941 -2.804)"/><g class="cls-30"><path d="M234.7,390.764c-6.185,7.3-10.068,21.472-12.234,29.362-3.223,11.744-20.841,92.065-20.841,92.065s1.921,1.164,6.1,3.4a15.243,15.243,0,0,0-2.062-.154c-8.395,0-10.062-5.3-10.062-5.3s17.618-80.321,20.841-92.065C219.256,407.81,224.82,392.04,234.7,390.764Z" transform="translate(-1.941 -2.804)"/></g><path id="_Path_" data-name="&lt;Path&gt;" class="cls-31" d="M233.595,204.075s2.881-12.376,23.509-8.4c19.69,3.794,18.448,31.262,20.739,38.733a173.676,173.676,0,0,0,7.041,17.57,1.5,1.5,0,0,1-.885,2.048c-7.277,2.419-38.169,11.481-59.238-1.158a10.01,10.01,0,0,1-4.2-4.757,7.089,7.089,0,0,1-.568-2.938c0.143-3.293,2-7.3.573-16.9S220.85,203.788,233.595,204.075Z" transform="translate(-1.941 -2.804)"/><path id="_Path_2" data-name="&lt;Path&gt;" class="cls-16" d="M227.533,230.614a11.268,11.268,0,0,0-1.67,8.688,5.836,5.836,0,0,0,5.792,5.257l0.652-5.4-1.432-9.5Z" transform="translate(-1.941 -2.804)"/><path id="_Path_3" data-name="&lt;Path&gt;" class="cls-16" d="M273.6,230.614a11.268,11.268,0,0,1,1.671,8.688,5.836,5.836,0,0,1-5.793,5.257l-0.651-5.4,1.432-9.5Z" transform="translate(-1.941 -2.804)"/><path id="_Path_4" data-name="&lt;Path&gt;" class="cls-6" d="M276.943,335.721a78.773,78.773,0,0,0,.355,14.767c0.6,6.278,2.7,29.276,2.7,29.276a76.653,76.653,0,0,1-13.037,3.506c-11.055,2.108-30.094-3.552-47.758-9.555,0,0,6.485-15.929,6.577-29.035,0.023-1.787-.012-3.631-0.115-5.522a116.454,116.454,0,0,0-1.89-12.075q-0.275-1.495-.55-3.093c-0.664-3.838-1.329-8.053-1.8-12.349a96.141,96.141,0,0,1-.641-12.876c-1.6-11.525,1.925-22.866,1.925-22.866s14.56-6.083,20.712-6.908c0,0,10.906-2.5,18.57.046,10.024,3.322,15.511,5.258,20.013,7.721,0.481,0.264,3.4,8.81,2.12,16.336-1.879,11.032-4.651,26.165-6.14,35.261C277.389,331.987,277,334.657,276.943,335.721Z" transform="translate(-1.941 -2.804)"/><path id="_Path_5" data-name="&lt;Path&gt;" class="cls-32" d="M280,382.459a44.345,44.345,0,0,0-13.037.811c-3.07-7.916-2.105-36.664-2.105-36.664-8.592-1.432-21.663-6.587-21.663-6.587-3.437,1.627-14.068,3.952-17.413,4.663,0.023-1.787-.012-3.631-0.115-5.522a116.454,116.454,0,0,0-1.89-12.075c4.021-2.807,11.49,3.391,11.49,3.391l37.713-5.922a30.279,30.279,0,0,1,5.006,3.8c-0.6,3.632-.985,6.3-1.043,7.366a78.773,78.773,0,0,0,.355,14.767C277.893,356.766,280,382.459,280,382.459Z" transform="translate(-1.941 -2.804)"/><path id="_Path_6" data-name="&lt;Path&gt;" class="cls-16" d="M271.97,224.405c0,5.533-1.111,18.4-4.582,26.921a23.963,23.963,0,0,1-9.76,11.662c-0.046,2.211-.092,5.121,1.455,5.362,0.447,0.985,1.008,1.237.71,2.784-1.043,5.5-7.446,11.582-9.016,13.105s-2.555,0-2.555,0a35.239,35.239,0,0,1-4.674-6.908c-0.791-1.489-1.409-2.841-1.8-3.792a4.763,4.763,0,0,1,.435-4.376c1.7-.206,1.077-3.849.939-5.8-3.276-2.337-6.369-6.335-8.672-11.032-4.617-9.428-4.869-21.411-4.869-27.929A21.193,21.193,0,1,1,271.97,224.405Z" transform="translate(-1.941 -2.804)"/><path id="_Path_7" data-name="&lt;Path&gt;" class="cls-23" d="M257.341,263.092c-1.248.458-6.347,2.44-7.331,4.582-1.111,2.463-1.741,6.449-2.784,7.572a12.347,12.347,0,0,1-3.677,2.085c-0.791-1.489-1.409-2.841-1.8-3.792a4.763,4.763,0,0,1,.435-4.376c1.7-.206,1.077-3.849.939-5.8a17.383,17.383,0,0,0,6.7,1.226A39.525,39.525,0,0,0,257.341,263.092Z" transform="translate(-1.941 -2.804)"/><path id="_Path_8" data-name="&lt;Path&gt;" class="cls-16" d="M265.087,319.146a42.142,42.142,0,0,1,4.439-.644c1.074,0-2,9.63-2,9.63a5.04,5.04,0,0,0-2.434-1.4c-1.324-.215-0.823-7.482-0.823-7.482Z" transform="translate(-1.941 -2.804)"/><path id="_Path_9" data-name="&lt;Path&gt;" class="cls-33" d="M282.01,276.755s9.584,4.926,9.011,12.373S279.231,337.249,277.3,342.6s-50.813-10.883-50.813-10.883,1.528-6.537,2.864-8.329c0,0,33.413,3.556,37.8,5.274,0,0,6.778-32.268,8.878-37.995S282.01,276.755,282.01,276.755Z" transform="translate(-1.941 -2.804)"/><path id="_Path_10" data-name="&lt;Path&gt;" class="cls-34" d="M265.762,327.416c-5.075,2.864-43.67,18.9-47.244,17.905s-7.882-4.158-8.455-13.609c-0.5-8.386,4.353-41.436,5.487-49.088a6.771,6.771,0,0,1,1.444-3.3,8.589,8.589,0,0,1,.744-0.71,19.866,19.866,0,0,1,4.972-2.715c0.481,1.088.355,5.556,0.951,13.4a9.4,9.4,0,0,1-.172,2.658c-0.962,4.571-2.131,10.528-2.062,13.69a5.077,5.077,0,0,0,.035.573c0.332,3.322,2.8,9.623,2.841,12.281,0.08,6.278.057,7.16,0.046,7.263,1.386-.229,6.2-1.088,12.075-2.131,12.132-2.177,28.766-5.167,28.766-5.167C266.632,321.539,265.762,327.416,265.762,327.416Z" transform="translate(-1.941 -2.804)"/><path id="_Path_11" data-name="&lt;Path&gt;" class="cls-31" d="M225.289,232.714s6.705-1.132,10.574-6.158a35.033,35.033,0,0,0,4.695-9.332s2.344,5.036,10.22,8.616a81.466,81.466,0,0,0,24.4,6.874s0.521-18.33-5.493-25.776-21.623-11.742-32.22-5.3S225.289,232.714,225.289,232.714Z" transform="translate(-1.941 -2.804)"/><path id="_Path_12" data-name="&lt;Path&gt;" class="cls-35" d="M242.253,269.028s1.1,9.88,5.969,15.214c0,0-1.615-.533-4.614,3.079a0.775,0.775,0,0,1-1.35-.319c-0.931-4.017-3.982-13.852-2.285-17.272A2.413,2.413,0,0,1,242.253,269.028Z" transform="translate(-1.941 -2.804)"/><path id="_Path_13" data-name="&lt;Path&gt;" class="cls-35" d="M258.933,268.3a65.061,65.061,0,0,1-2.975,8.459,30,30,0,0,1-5.424,7.7s3.751,0.695,5.486,3.165a0.611,0.611,0,0,0,1.067-.134c1.127-2.173,1.77-4.141,3.025-8.616,1.429-5.1,1.487-7.9,1.32-10.009A2.17,2.17,0,0,0,258.933,268.3Z" transform="translate(-1.941 -2.804)"/><path id="_Path_14" data-name="&lt;Path&gt;" class="cls-32" d="M221.611,328.413c-3.91-3.335.756-9.7,0.424-11.926s-0.321-2.6-.607-4.845a18.693,18.693,0,0,1,.035-5.419c0.332,3.322,2.8,9.623,2.841,12.281,0.08,6.278.057,7.16,0.046,7.263,1.386-.229,14.33-2.548,20.207-3.591C245.93,322.9,224.243,330.658,221.611,328.413Z" transform="translate(-1.941 -2.804)"/><path id="_Path_15" data-name="&lt;Path&gt;" class="cls-16" d="M228.492,325.045l-4.138.727a66.221,66.221,0,0,0-7.752-.217,24.842,24.842,0,0,0-5.93,1.265,0.813,0.813,0,0,1-.988-0.68,11.818,11.818,0,0,1-.5-4.237,15.413,15.413,0,0,1,1.079-4.086,1.668,1.668,0,0,1,.989-0.907c1.537-.542,3.367-0.484,6.046-0.256a7.782,7.782,0,0,1,6.086,3.137l1.7,2.023a3.842,3.842,0,0,0,2.136,1.263l2.046,0.426s-0.227.364-.42,0.743A7.142,7.142,0,0,0,228.492,325.045Z" transform="translate(-1.941 -2.804)"/><polygon class="cls-36" points="143.499 362.455 145.416 325.432 127.294 325.432 129.21 362.455 143.499 362.455"/><polygon class="cls-37" points="130.836 360.716 129.154 327.171 143.556 327.171 141.873 360.716 130.836 360.716"/><polygon class="cls-38" points="129.706 335.375 130.836 360.716 141.873 360.716 143.004 335.375 129.706 335.375"/><g class="cls-39"><path class="cls-4" d="M133.942,359.9h3.012l-1.78-26.43c-0.365-3.194-3.35-3.368-2.88.273Z" transform="translate(-1.941 -2.804)"/></g><rect class="cls-40" x="85.266" y="367.519" width="83.964" height="5.258"/><rect class="cls-41" x="86.08" y="362.294" width="76.057" height="4.218"/><rect class="cls-42" x="82.127" y="365.507" width="83.964" height="2.013"/><rect class="cls-43" x="87.642" y="363.912" width="72.933" height="0.435"/><rect class="cls-43" x="87.642" y="364.855" width="72.933" height="0.435"/><rect class="cls-43" x="87.642" y="362.926" width="72.933" height="0.435"/><rect class="cls-44" x="464.303" y="363.184" width="34.675" height="8.604"/><rect class="cls-45" x="488.036" y="363.184" width="10.943" height="8.604"/><rect class="cls-45" x="462.162" y="363.184" width="34.675" height="0.988"/><rect class="cls-45" x="462.162" y="370.8" width="34.675" height="0.988"/><rect class="cls-46" x="488.977" y="363.184" width="45.249" height="8.604"/><rect class="cls-45" x="493.841" y="365.185" width="24.208" height="4.603"/><rect class="cls-47" x="495.145" y="365.432" width="21.6" height="4.107"/><ellipse class="cls-45" cx="527.912" cy="367.49" rx="2.828" ry="2.305"/><rect class="cls-45" x="466.366" y="364.75" width="19.776" height="0.87"/><rect class="cls-45" x="466.366" y="368.1" width="19.776" height="0.869"/><rect class="cls-45" x="466.366" y="369.353" width="19.776" height="0.869"/><rect class="cls-45" x="472.566" y="366.674" width="12.322" height="0.869"/><rect class="cls-45" x="466.366" y="366.674" width="5.21" height="0.869"/><rect class="cls-44" x="457.774" y="354.784" width="34.675" height="8.604"/><rect class="cls-45" x="481.506" y="354.784" width="10.943" height="8.604"/><rect class="cls-45" x="455.633" y="354.784" width="34.675" height="0.989"/><rect class="cls-45" x="455.633" y="362.4" width="34.675" height="0.988"/><rect class="cls-48" x="482.448" y="354.784" width="45.249" height="8.604"/><rect class="cls-45" x="487.312" y="356.785" width="24.208" height="4.603"/><rect class="cls-47" x="488.616" y="357.033" width="21.6" height="4.107"/><ellipse class="cls-45" cx="521.383" cy="359.091" rx="2.828" ry="2.305"/><rect class="cls-45" x="459.838" y="356.35" width="19.776" height="0.869"/><rect class="cls-45" x="459.838" y="359.7" width="19.776" height="0.869"/><rect class="cls-45" x="459.838" y="360.954" width="19.776" height="0.87"/><rect class="cls-45" x="466.036" y="358.275" width="12.322" height="0.869"/><rect class="cls-45" x="459.838" y="358.275" width="5.21" height="0.869"/><rect class="cls-44" x="464.303" y="346.385" width="34.675" height="8.604"/><rect class="cls-45" x="488.036" y="346.385" width="10.943" height="8.604"/><rect class="cls-45" x="462.162" y="346.385" width="34.675" height="0.988"/><rect class="cls-45" x="462.162" y="354.001" width="34.675" height="0.988"/><rect class="cls-49" x="488.977" y="346.385" width="45.249" height="8.604"/><rect class="cls-45" x="493.841" y="348.386" width="24.208" height="4.603"/><rect class="cls-47" x="495.145" y="348.634" width="21.6" height="4.107"/><ellipse class="cls-45" cx="527.912" cy="350.691" rx="2.828" ry="2.306"/><rect class="cls-45" x="466.366" y="347.952" width="19.776" height="0.869"/><rect class="cls-45" x="466.366" y="351.301" width="19.776" height="0.87"/><rect class="cls-45" x="466.366" y="352.554" width="19.776" height="0.87"/><rect class="cls-45" x="472.566" y="349.875" width="12.322" height="0.869"/><rect class="cls-45" x="466.366" y="349.875" width="5.21" height="0.869"/><polygon class="cls-36" points="537.221 371.557 539.138 343.076 521.016 343.076 522.932 371.557 537.221 371.557"/><polygon class="cls-37" points="524.558 369.818 522.875 344.815 537.278 344.815 535.595 369.818 524.558 369.818"/><polygon class="cls-38" points="523.427 353.02 524.558 369.818 535.595 369.818 536.726 353.02 523.427 353.02"/><g class="cls-39"><path class="cls-4" d="M527.663,369h3.012l-1.78-17.888c-0.365-3.194-3.351-3.368-2.88.274Z" transform="translate(-1.941 -2.804)"/></g><path class="cls-50" d="M173.177,345.43a17.381,17.381,0,0,0,10.918,14.091,0.09,0.09,0,0,0,.069-0.165c-5.759-2.712-10.028-7.455-10.834-13.927-0.012-.1-0.165-0.1-0.153,0h0Z" transform="translate(-1.941 -2.804)"/><path class="cls-50" d="M183.591,335.87a21.1,21.1,0,0,1-3.924,22.879,0.094,0.094,0,0,0,.134.134,20.723,20.723,0,0,0,3.91-23.082c-0.036-.082-0.155-0.011-0.12.07h0Z" transform="translate(-1.941 -2.804)"/><path class="cls-50" d="M200.231,339.44c3.1,3.941,1.36,8.482-.6,12.5-1.731,3.546-5.255,5.213-8.689,6.708a0.127,0.127,0,0,0,.1.232c4.405-1.564,7.709-4.014,9.528-8.362,1.624-3.88,2.655-7.672-.188-11.223-0.085-.106-0.23.044-0.148,0.148h0Z" transform="translate(-1.941 -2.804)"/><path class="cls-50" d="M198.436,352a8.009,8.009,0,0,0,7.672-3.138,0.1,0.1,0,0,0-.151-0.116,8.906,8.906,0,0,1-7.5,3.121,0.068,0.068,0,0,0-.018.133h0Z" transform="translate(-1.941 -2.804)"/><path class="cls-50" d="M190.411,337.211c-0.482,4.25-1.646,11.565-5.946,13.661a0.1,0.1,0,0,0,.077.183c4.538-1.685,5.629-9.8,6.029-13.844,0.01-.1-0.148-0.1-0.159,0h0Z" transform="translate(-1.941 -2.804)"/><path class="cls-50" d="M165.356,343.182a9.626,9.626,0,0,0,9.949,8.361,0.065,0.065,0,0,0,0-.13,9.856,9.856,0,0,1-9.809-8.269c-0.016-.092-0.153-0.052-0.139.038h0Z" transform="translate(-1.941 -2.804)"/><path class="cls-6" d="M205.468,354.688H169.521s-2.915,7.02-2.915,8.755,3.971,5.286,8.246,5.286h25.285c4.275,0,8.246-3.552,8.246-5.286S205.468,354.688,205.468,354.688Z" transform="translate(-1.941 -2.804)"/><polygon class="cls-34" points="199.705 367.731 171.401 367.731 172.391 365.925 198.716 365.925 199.705 367.731"/><path class="cls-34" d="M177.533,363.443c0-1.734,2.914-8.755,2.914-8.755H169.521s-2.915,7.02-2.915,8.755,3.971,5.286,8.246,5.286h10.927C181.5,368.729,177.533,365.177,177.533,363.443Z" transform="translate(-1.941 -2.804)"/><polygon class="cls-51" points="172.391 365.925 171.402 367.731 182.329 367.731 183.318 365.925 172.391 365.925"/><path class="cls-52" d="M186.15,341.622c0.817-.639,4.038-1.781,6.189-0.423a9.258,9.258,0,0,1,4.472,7.255,22.818,22.818,0,0,1-5.942.568C184.14,348.494,184.634,342.807,186.15,341.622Z" transform="translate(-1.941 -2.804)"/><path class="cls-52" d="M202.531,338.041c0.543-.466,2.726-1.356,4.252-0.489a6.385,6.385,0,0,1,3.313,4.857,15.74,15.74,0,0,1-4.076.581C201.366,342.841,201.524,338.907,202.531,338.041Z" transform="translate(-1.941 -2.804)"/><path class="cls-52" d="M201.055,335.72a3.023,3.023,0,0,0-2.927.216,4.424,4.424,0,0,0-1.6,3.726,10.713,10.713,0,0,0,2.821-.131C202.461,338.829,201.845,336.177,201.055,335.72Z" transform="translate(-1.941 -2.804)"/><path class="cls-52" d="M169.087,339.06a4.058,4.058,0,0,0-2.28-.346,3.088,3.088,0,0,0-2.317,4.128,2.772,2.772,0,0,0,2.384,1.4c1.837,0.231,4.038-1.207,5.868-1.8A7.827,7.827,0,0,0,169.087,339.06Z" transform="translate(-1.941 -2.804)"/><path class="cls-52" d="M173.861,343.794a2.464,2.464,0,0,0-1.339,2.033,2.232,2.232,0,0,0,2.249,1.8c1.053,0.05,4.813-.978,6.416-0.155C178.4,342.189,175.581,342.706,173.861,343.794Z" transform="translate(-1.941 -2.804)"/><path class="cls-52" d="M205.561,345.636a2.174,2.174,0,0,0-1.325,1.528,1.746,1.746,0,0,0,1.34,1.859c0.762,0.2,3.689-.125,4.722.808C210.3,345.826,207.005,344.964,205.561,345.636Z" transform="translate(-1.941 -2.804)"/><path class="cls-52" d="M185.564,350.8c0.857-.247,4.1-0.529,5.441,1.208,2.45,3.168.344,5.9,0.072,6.866a20.615,20.615,0,0,1-5.01-1.407C180.746,354.955,182.649,351.246,185.564,350.8Z" transform="translate(-1.941 -2.804)"/><path class="cls-52" d="M173.822,351.366c-0.781-.262-3.423-0.224-4.517,1.454a7.983,7.983,0,0,0-.869,6.938,15.936,15.936,0,0,0,4.387-1.268C177.421,356.139,175.27,351.853,173.822,351.366Z" transform="translate(-1.941 -2.804)"/><path class="cls-52" d="M182.391,335.544a2.507,2.507,0,0,1,1.882,1.4,2.035,2.035,0,0,1-1.084,2.435c-0.823.412-4.244,0.777-5.2,2.089C178.115,335.65,180.58,335.144,182.391,335.544Z" transform="translate(-1.941 -2.804)"/><g class="cls-53"><path class="cls-54" d="M164.334,341.217a17.071,17.071,0,0,1,8.308,1.446c0.044,0.019.082-.044,0.038-0.065a16.11,16.11,0,0,0-8.346-1.443c-0.039,0-.04.065,0,0.062h0Z" transform="translate(-1.941 -2.804)"/><path class="cls-54" d="M165.327,340.555a8.053,8.053,0,0,1,6.354.65,0.037,0.037,0,0,0,.037-0.064,7.367,7.367,0,0,0-6.407-.642,0.029,0.029,0,0,0,.015.055h0Z" transform="translate(-1.941 -2.804)"/><path class="cls-54" d="M164.852,341.584c0.9,1.985,4.154,1.713,5.868,1.261a0.056,0.056,0,0,0-.03-0.108c-1.666.412-4.886,0.726-5.78-1.187-0.019-.04-0.076-0.005-0.059.034h0Z" transform="translate(-1.941 -2.804)"/><path class="cls-54" d="M173.327,344.577a5.761,5.761,0,0,1,7.315,2.489,0.031,0.031,0,0,0,.054-0.031,5.677,5.677,0,0,0-7.392-2.514,0.031,0.031,0,0,0,.024.057h0Z" transform="translate(-1.941 -2.804)"/><path class="cls-54" d="M173.682,344.94a22.99,22.99,0,0,1,6.561,1.822c0.022,0.01.042-.022,0.019-0.033a19.074,19.074,0,0,0-6.581-1.852c-0.041,0-.04.059,0,0.063h0Z" transform="translate(-1.941 -2.804)"/><path class="cls-54" d="M172.956,345.554a12.04,12.04,0,0,0,7,1.59c0.059-.005.06-0.1,0-0.093a13.092,13.092,0,0,1-6.978-1.538,0.024,0.024,0,0,0-.024.041h0Z" transform="translate(-1.941 -2.804)"/><path class="cls-54" d="M178.2,341.213a13.083,13.083,0,0,1,5.016-4.7,0.053,0.053,0,0,0-.054-0.092,11.417,11.417,0,0,0-5.019,4.76,0.032,0.032,0,0,0,.056.033h0Z" transform="translate(-1.941 -2.804)"/><path class="cls-54" d="M180.342,340.2a7.456,7.456,0,0,0,3.91-3.471,0.043,0.043,0,0,0-.074-0.043,8.161,8.161,0,0,1-3.851,3.461c-0.033.014-.019,0.068,0.015,0.054h0Z" transform="translate(-1.941 -2.804)"/><path class="cls-54" d="M178.253,339.8a5.147,5.147,0,0,1,4.7-3.8,0.047,0.047,0,0,0,0-.093,5.066,5.066,0,0,0-4.772,3.878,0.035,0.035,0,0,0,.068.019h0Z" transform="translate(-1.941 -2.804)"/><path class="cls-54" d="M196.9,339.734a9.964,9.964,0,0,1,3.713-3.472,0.053,0.053,0,0,0-.054-0.092,8.282,8.282,0,0,0-3.715,3.531,0.032,0.032,0,0,0,.056.033h0Z" transform="translate(-1.941 -2.804)"/><path class="cls-54" d="M198.478,338.985a5.442,5.442,0,0,0,2.9-2.571,0.043,0.043,0,0,0-.074-0.043,6.151,6.151,0,0,1-2.842,2.56c-0.033.014-.019,0.068,0.015,0.054h0Z" transform="translate(-1.941 -2.804)"/><path class="cls-54" d="M196.938,338.688a3.82,3.82,0,0,1,3.473-2.806,0.047,0.047,0,0,0,0-.093,3.741,3.741,0,0,0-3.541,2.88,0.035,0.035,0,0,0,.068.019h0Z" transform="translate(-1.941 -2.804)"/><path class="cls-54" d="M168.715,359.256a23.958,23.958,0,0,1,6.036-7.4,0.039,0.039,0,0,0-.046-0.06,20.021,20.021,0,0,0-6.045,7.43c-0.018.037,0.037,0.07,0.056,0.033h0Z" transform="translate(-1.941 -2.804)"/><path class="cls-54" d="M168.4,359.369a7,7,0,0,1,5.568-7.911,0.042,0.042,0,0,0-.022-0.081,6.982,6.982,0,0,0-5.622,8.013c0.007,0.051.084,0.029,0.077-.021h0Z" transform="translate(-1.941 -2.804)"/><path class="cls-54" d="M169.04,359.191a6.749,6.749,0,0,0,6.187-6.35c0-.046-0.064-0.043-0.069,0a6.851,6.851,0,0,1-6.118,6.274c-0.048.005-.049,0.082,0,0.077h0Z" transform="translate(-1.941 -2.804)"/><path class="cls-54" d="M184.4,351.483a9.91,9.91,0,0,1,5.612,6.832,0.032,0.032,0,0,0,.063-0.017,9.629,9.629,0,0,0-5.645-6.865c-0.033-.015-0.063.034-0.029,0.05h0Z" transform="translate(-1.941 -2.804)"/><path class="cls-54" d="M184.782,351.64c3.1,0.461,6.567,1.547,6.43,5.348a0.042,0.042,0,0,0,.084,0c0.3-3.84-3.4-4.98-6.5-5.41-0.041-.006-0.059.056-0.017,0.063h0Z" transform="translate(-1.941 -2.804)"/><path class="cls-54" d="M184.618,352.162c-0.634,2.909,2.269,4.539,4.583,5.357a0.031,0.031,0,0,0,.024-0.057c-2.154-1-5.162-2.339-4.54-5.282,0.009-.043-0.057-0.062-0.067-0.018h0Z" transform="translate(-1.941 -2.804)"/><path class="cls-54" d="M185.944,342.718c0.066,4.223,6.209,5.547,9.5,5.544a0.03,0.03,0,0,0,0-.06c-3.287-.118-9.29-1.28-9.466-5.484a0.017,0.017,0,0,0-.034,0h0Z" transform="translate(-1.941 -2.804)"/><path class="cls-54" d="M186.758,343.233a43.446,43.446,0,0,0,9.324,5.037c0.044,0.017.063-.054,0.02-0.071a45.646,45.646,0,0,1-9.321-5c-0.023-.016-0.045.022-0.022,0.038h0Z" transform="translate(-1.941 -2.804)"/><path class="cls-54" d="M186.831,342.567a15.963,15.963,0,0,1,9.372,5.52c0.043,0.05.112-.022,0.072-0.072a15.3,15.3,0,0,0-9.428-5.5c-0.036-.006-0.052.049-0.015,0.055h0Z" transform="translate(-1.941 -2.804)"/><path class="cls-54" d="M187.23,341.554c4.67-.266,8.666,1.493,9.18,6.616a0.035,0.035,0,0,0,.069,0,6.76,6.76,0,0,0-2.5-5.186c-1.952-1.578-4.356-1.66-6.754-1.491-0.039,0-.04.064,0,0.062h0Z" transform="translate(-1.941 -2.804)"/><path class="cls-54" d="M202.064,339.011c0.334,3.02,4.83,3.6,7.209,3.4a0.03,0.03,0,0,0,0-.06c-2.385.077-6.733-.336-7.176-3.343a0.017,0.017,0,0,0-.033,0h0Z" transform="translate(-1.941 -2.804)"/><path class="cls-54" d="M202.684,339.335a31.915,31.915,0,0,0,7.051,3.047,0.037,0.037,0,0,0,.02-0.071,34.222,34.222,0,0,1-7.048-3.014,0.022,0.022,0,0,0-.022.038h0Z" transform="translate(-1.941 -2.804)"/><path class="cls-54" d="M202.711,338.866a11.792,11.792,0,0,1,7.1,3.38,0.051,0.051,0,0,0,.072-0.072,11.184,11.184,0,0,0-7.167-3.365c-0.037,0-.036.054,0,0.058h0Z" transform="translate(-1.941 -2.804)"/><path class="cls-54" d="M202.943,338.131c3.313-.422,6.317.545,7.023,4.16a0.035,0.035,0,0,0,.068-0.009,4.69,4.69,0,0,0-2.091-3.536,6.88,6.88,0,0,0-5.008-.676,0.031,0.031,0,0,0,.008.061h0Z" transform="translate(-1.941 -2.804)"/><path class="cls-54" d="M204.293,347.336a2.335,2.335,0,0,0,1.451,1.087c0.612,0.158,1.262.08,1.885,0.189a7.2,7.2,0,0,1,2.575,1.032,0.006,0.006,0,0,0,.006-0.01,6.942,6.942,0,0,0-2.962-1.13c-1.111-.135-2.275-0.085-2.917-1.189a0.021,0.021,0,0,0-.037.022h0Z" transform="translate(-1.941 -2.804)"/><path class="cls-54" d="M204.694,346.785a6.889,6.889,0,0,1,5.346,2.653,0.015,0.015,0,0,0,.023-0.018,6.637,6.637,0,0,0-5.37-2.685,0.025,0.025,0,0,0,0,.05h0Z" transform="translate(-1.941 -2.804)"/><path class="cls-54" d="M205.318,346.423a3.569,3.569,0,0,1,4.658,2.552,0.028,0.028,0,0,0,.054-0.015,3.572,3.572,0,0,0-4.726-2.59c-0.033.011-.019,0.064,0.015,0.053h0Z" transform="translate(-1.941 -2.804)"/></g><path class="cls-54" d="M165.875,345.034c-0.743-.639-3.672-1.781-5.629-0.422a10.686,10.686,0,0,0-4.412,7.545,21.213,21.213,0,0,0,5.749.278C167.7,351.906,167.253,346.219,165.875,345.034Z" transform="translate(-1.941 -2.804)"/><path class="cls-54" d="M199.829,338.647c-0.624-.432-2.974-1.078-4.373.126a7.36,7.36,0,0,0-2.553,5.92,14.679,14.679,0,0,0,4.211,0C201.79,343.8,200.988,339.45,199.829,338.647Z" transform="translate(-1.941 -2.804)"/><path class="cls-54" d="M185.083,331.91a2.175,2.175,0,0,0-1.326,1.529,1.748,1.748,0,0,0,1.34,1.859c0.762,0.2,3.689-.125,4.723.808C189.821,332.1,186.527,331.238,185.083,331.91Z" transform="translate(-1.941 -2.804)"/><path class="cls-54" d="M198.776,351.1c0.694-.388,3.469-1.312,5.056-0.15,2.893,2.12,1.688,4.842,1.677,5.708a19.783,19.783,0,0,1-4.724-.108C195.527,355.59,196.324,352.094,198.776,351.1Z" transform="translate(-1.941 -2.804)"/><path class="cls-52" d="M156.2,351.908a16.644,16.644,0,0,0,3.342-2.712,16.189,16.189,0,0,1,5.508-3.545c0.052-.02.032-0.1-0.024-0.085-3.752,1.155-5.609,4.42-8.874,6.261a0.047,0.047,0,0,0,.048.082h0Z" transform="translate(-1.941 -2.804)"/><path class="cls-52" d="M156.2,351.5a41.046,41.046,0,0,1,2.9-4.239c1.585-1.756,3.458-2.179,5.755-2.1,0.081,0,.1-0.132.02-0.145-4.727-.738-6.589,3.03-8.719,6.455a0.027,0.027,0,0,0,.046.027h0Z" transform="translate(-1.941 -2.804)"/><path class="cls-52" d="M157.384,352.111c3.547-.179,9.523-0.918,8.536-5.923a0.07,0.07,0,0,0-.136.018c0.018,1.551-.237,3.169-1.555,4.166-1.76,1.332-4.743,1.5-6.846,1.644-0.06,0-.061.1,0,0.094h0Z" transform="translate(-1.941 -2.804)"/><path class="cls-52" d="M156.569,351.978c1.83-.6,3.776-0.961,5.542-1.747,1.741-.775,2.479-2.285,3.355-3.89a0.047,0.047,0,0,0-.082-0.048c-1.177,1.95-2.108,3.364-4.335,4.193-1.474.549-3.015,0.9-4.5,1.4-0.055.019-.032,0.107,0.024,0.088h0Z" transform="translate(-1.941 -2.804)"/><path class="cls-52" d="M184.843,333.017a9.858,9.858,0,0,1,4.579,2.63,0.031,0.031,0,0,0,.044-0.044,8.631,8.631,0,0,0-4.61-2.632,0.024,0.024,0,0,0-.013.046h0Z" transform="translate(-1.941 -2.804)"/><path class="cls-52" d="M184.168,333.519a1.481,1.481,0,0,0,1.133.908c1.079,0.359,2.172.7,3.273,0.979a0.035,0.035,0,0,0,.019-0.068c-0.7-.255-1.4-0.473-2.114-0.688s-1.92-.374-2.218-1.157c-0.022-.058-0.115-0.034-0.094.026h0Z" transform="translate(-1.941 -2.804)"/><path class="cls-52" d="M184.874,332.706a4.289,4.289,0,0,1,4.732,2.731c0.016,0.036.072,0.01,0.062-.026a4.151,4.151,0,0,0-4.822-2.8c-0.066.012-.037,0.11,0.027,0.1h0Z" transform="translate(-1.941 -2.804)"/><path class="cls-52" d="M193.405,344.538c2.132-1.427,4.183-3,6.229-4.551a0.018,0.018,0,0,0-.018-0.031c-2.2,1.326-4.118,3.091-6.234,4.542-0.024.017,0,.056,0.023,0.039h0Z" transform="translate(-1.941 -2.804)"/><path class="cls-52" d="M193.959,344.454c2.363-.361,5.048-1.832,5.985-4.148a0.032,0.032,0,0,0-.058-0.024,7.951,7.951,0,0,1-5.935,4.145c-0.018,0-.01.03,0.007,0.027h0Z" transform="translate(-1.941 -2.804)"/><path class="cls-52" d="M193.3,344.236a9.341,9.341,0,0,1,5.675-4.677,0.032,0.032,0,0,0-.017-0.063,8.854,8.854,0,0,0-5.727,4.7,0.04,0.04,0,0,0,.069.04h0Z" transform="translate(-1.941 -2.804)"/><path class="cls-52" d="M194.421,344.54a7.571,7.571,0,0,0,4.669-1.168,2.253,2.253,0,0,0,1.013-2.734c-0.015-.035-0.072-0.01-0.061.026,1.024,3.129-3.59,3.782-5.621,3.833a0.021,0.021,0,0,0,0,.043h0Z" transform="translate(-1.941 -2.804)"/><path class="cls-52" d="M193.114,343.8c0.691-2.775,2.487-5.034,5.61-4.838,0.062,0,.059-0.088,0-0.094-3.128-.355-5.054,2.155-5.681,4.913a0.037,0.037,0,0,0,.071.02h0Z" transform="translate(-1.941 -2.804)"/><path class="cls-52" d="M199.548,351.4a24.819,24.819,0,0,1,5.62,5.047c0.024,0.027.062-.012,0.04-0.04a22.875,22.875,0,0,0-5.637-5.046,0.023,0.023,0,0,0-.023.039h0Z" transform="translate(-1.941 -2.804)"/><path class="cls-52" d="M199.806,351.235a6.694,6.694,0,0,1,5.509,4.891,0.033,0.033,0,0,0,.064-0.018,6.522,6.522,0,0,0-5.561-4.916c-0.028,0-.04.038-0.012,0.043h0Z" transform="translate(-1.941 -2.804)"/><path class="cls-52" d="M200.355,351.074a4.965,4.965,0,0,1,3.806,1.1,4.1,4.1,0,0,1,1.151,3.224,0.035,0.035,0,0,0,.071,0,3.959,3.959,0,0,0-1.158-3.288,4.944,4.944,0,0,0-3.869-1.077c-0.025,0-.026.043,0,0.04h0Z" transform="translate(-1.941 -2.804)"/><path class="cls-52" d="M199.349,351.43c-1.611,2.294,4.161,4.715,5.641,5.031a0.041,0.041,0,0,0,.022-0.078c-1.4-.391-7.069-2.654-5.613-4.924,0.02-.032-0.029-0.059-0.05-0.029h0Z" transform="translate(-1.941 -2.804)"/><path class="cls-52" d="M198.706,351.659a1.846,1.846,0,0,0-.207,2.873c1.247,1.434,3.607,1.941,5.413,1.934a0.045,0.045,0,0,0,0-.09,10.283,10.283,0,0,1-3.273-.642c-1.353-.532-4.2-2.508-1.905-4.028a0.027,0.027,0,0,0-.028-0.047h0Z" transform="translate(-1.941 -2.804)"/><rect class="cls-55" x="103.822" y="378.908" width="10.026" height="197.199"/><rect class="cls-55" x="516.41" y="378.908" width="10.027" height="197.199"/><rect class="cls-55" x="83.481" y="373.164" width="463.295" height="8.699"/><rect class="cls-11" x="78.622" y="371.425" width="473.014" height="3.899"/><rect class="cls-42" x="160.802" y="369.413" width="99.989" height="2.012"/><path class="cls-41" d="M258.509,369.62s-39.525-2.34-45.336,1.739c-7.973-3.634-46.209-1.739-46.209-1.739v2.6h91.545v-2.6Z" transform="translate(-1.941 -2.804)"/><path class="cls-43" d="M258.509,371.359c-3.791-.3-7.586-0.545-11.382-0.749s-7.593-.4-11.393-0.5-7.6-.135-11.4,0c-1.9.073-3.792,0.191-5.671,0.418a27.8,27.8,0,0,0-2.791.466,8.181,8.181,0,0,0-2.58.967l-0.1.068-0.114-.048a14.413,14.413,0,0,0-2.732-.8c-0.94-.187-1.894-0.319-2.849-0.435-1.915-.216-3.843-0.333-5.772-0.413-3.859-.155-7.727-0.142-11.591-0.066s-7.73.23-11.592,0.425q-5.794.263-11.583,0.666c7.705-.694,15.431-1.182,23.168-1.381,3.868-.1,7.74-0.139,11.612-0.008,1.936,0.068,3.871.172,5.8,0.378,0.965,0.11,1.929.238,2.886,0.422a14.029,14.029,0,0,1,2.83.816l-0.213.02a8.522,8.522,0,0,1,2.736-1.018,28.327,28.327,0,0,1,2.835-.455c1.9-.217,3.8-0.323,5.706-0.384,3.808-.111,7.614-0.053,11.417.072C243.348,370.071,250.94,370.615,258.509,371.359Z" transform="translate(-1.941 -2.804)"/><path class="cls-43" d="M258.509,371.359q-5.674-.153-11.349-0.233c-3.782-.074-7.565-0.133-11.348-0.158s-7.566-.016-11.346.068c-1.89.045-3.779,0.108-5.664,0.221-0.942.059-1.884,0.123-2.818,0.23a13.974,13.974,0,0,0-2.737.5l-0.059.02-0.06-.012a23.556,23.556,0,0,0-2.822-.3c-0.952-.064-1.908-0.1-2.863-0.133-1.912-.064-3.826-0.094-5.74-0.115-3.828-.035-7.658-0.022-11.488.01l-22.978.331,11.485-.391,11.49-.23c3.83-.057,7.661-0.1,11.494-0.085,1.916,0.008,3.832.026,5.749,0.078,0.958,0.027,1.917.057,2.876,0.115a21.877,21.877,0,0,1,2.888.3l-0.119.008a14.225,14.225,0,0,1,2.839-.5c0.947-.1,1.893-0.161,2.84-0.214,1.893-.1,3.786-0.153,5.68-0.186,3.786-.06,7.571-0.041,11.356,0s7.568,0.127,11.351.235Q252.839,371.107,258.509,371.359Z" transform="translate(-1.941 -2.804)"/><rect class="cls-42" x="304.077" y="369.413" width="99.989" height="2.012"/><path class="cls-41" d="M401.785,369.62s-39.525-2.34-45.336,1.739c-7.973-3.634-46.209-1.739-46.209-1.739v2.6h91.545v-2.6Z" transform="translate(-1.941 -2.804)"/><path class="cls-43" d="M401.785,371.359c-3.791-.3-7.586-0.545-11.382-0.749s-7.593-.4-11.393-0.5-7.6-.135-11.4,0c-1.9.073-3.792,0.191-5.671,0.418a27.8,27.8,0,0,0-2.791.466,8.183,8.183,0,0,0-2.58.967l-0.1.068-0.114-.048a14.414,14.414,0,0,0-2.731-.8c-0.941-.187-1.894-0.319-2.85-0.435-1.914-.216-3.843-0.333-5.772-0.413-3.859-.155-7.727-0.142-11.591-0.066s-7.729.23-11.591,0.425q-5.8.263-11.584,0.666c7.705-.694,15.431-1.182,23.168-1.381,3.868-.1,7.74-0.139,11.612-0.008,1.936,0.068,3.871.172,5.8,0.378,0.965,0.11,1.929.238,2.887,0.422a14.039,14.039,0,0,1,2.83.816l-0.213.02a8.516,8.516,0,0,1,2.736-1.018,28.31,28.31,0,0,1,2.835-.455c1.9-.217,3.8-0.323,5.705-0.384,3.808-.111,7.614-0.053,11.417.072C386.624,370.071,394.215,370.615,401.785,371.359Z" transform="translate(-1.941 -2.804)"/><path class="cls-43" d="M401.785,371.359q-5.674-.153-11.349-0.233c-3.783-.074-7.566-0.133-11.349-0.158s-7.566-.016-11.346.068c-1.89.045-3.779,0.108-5.664,0.221-0.942.059-1.884,0.123-2.818,0.23a13.973,13.973,0,0,0-2.737.5l-0.059.02-0.06-.012a23.554,23.554,0,0,0-2.822-.3c-0.952-.064-1.908-0.1-2.863-0.133-1.911-.064-3.826-0.094-5.74-0.115-3.828-.035-7.658-0.022-11.488.01l-22.979.331L322,371.392l11.49-.23c3.831-.057,7.661-0.1,11.494-0.085,1.916,0.008,3.832.026,5.749,0.078,0.959,0.027,1.917.057,2.876,0.115a21.882,21.882,0,0,1,2.888.3l-0.118.008a14.215,14.215,0,0,1,2.839-.5c0.946-.1,1.893-0.161,2.839-0.214,1.893-.1,3.787-0.153,5.68-0.186,3.786-.06,7.572-0.041,11.356,0s7.568,0.127,11.35.235Q396.114,371.107,401.785,371.359Z" transform="translate(-1.941 -2.804)"/><polygon class="cls-16" points="452.191 540.283 453.854 550.265 461.466 550.265 464.741 549.704 462.344 534.191 452.191 540.283"/><path id="_Path_16" data-name="&lt;Path&gt;" class="cls-56" d="M465.321,540.229c-0.728.336-1.5,0.63-2.3,0.91a64.215,64.215,0,0,1-9.864,2.182c-9.1-14.93-32.713-87.654-32.713-87.654-2.171-9.187,11.625,2.576,17.368,2.226a12.182,12.182,0,0,1,5.294.77c5.49,2.325,13.543,17.856,13.543,17.856s2.451,5.364,5.014,16.456S465.321,540.229,465.321,540.229Z" transform="translate(-1.941 -2.804)"/><path id="_Path_17" data-name="&lt;Path&gt;" class="cls-57" d="M465.321,540.229c-0.728.336-1.5,0.63-2.3,0.91-0.574-4.426-1.428-11.484-2.689-22.731-2.815-25.209-18.795-54.074-22.521-60.516a12.182,12.182,0,0,1,5.294.77c5.49,2.325,13.543,17.856,13.543,17.856s2.451,5.364,5.014,16.456S465.321,540.229,465.321,540.229Z" transform="translate(-1.941 -2.804)"/><path id="_Path_18" data-name="&lt;Path&gt;" class="cls-56" d="M455.3,551.616a18.478,18.478,0,0,0,5.817-.893,13.876,13.876,0,0,0,4.9-3.1s8.079,4.933,8.068,13.791a1.127,1.127,0,0,1-.739,1.039s-19.372,8.606-26.036,10.96a99.377,99.377,0,0,1-10.691,2.765,0.936,0.936,0,0,1-1.138-.511c-0.35-.9-0.524-2.478,1.452-3.994,3-2.3,6.287-4.183,8.566-6.091s4.608-7.169,6.453-8.666A12.222,12.222,0,0,0,455.3,551.616Z" transform="translate(-1.941 -2.804)"/><g class="cls-58"><path class="cls-12" d="M495.425,595.652l2.829-151.231H488.192l2.829,151.231c0.033,1.534,1.019,2.777,2.2,2.777S495.391,597.186,495.425,595.652Z" transform="translate(-1.941 -2.804)"/><path class="cls-12" d="M402.971,577.961L461.4,438.444l-9.351-3.712-53.17,141.6c-0.535,1.438-.077,2.957,1.022,3.394S402.374,579.375,402.971,577.961Z" transform="translate(-1.941 -2.804)"/><path class="cls-12" d="M583.475,577.961L525.047,438.444l9.351-3.712,53.17,141.6c0.535,1.438.078,2.957-1.021,3.394S584.072,579.375,583.475,577.961Z" transform="translate(-1.941 -2.804)"/><g class="cls-13"><path d="M450.425,439.056l5.95,2.362-54.92,138.2a3.207,3.207,0,0,0,1.516-1.656L461.4,438.444l-9.351-3.712Z" transform="translate(-1.941 -2.804)"/><path d="M488.267,448.4h7.5l-2.805,149.993a1.623,1.623,0,0,0,.265.035c1.183,0,2.168-1.243,2.2-2.777l2.829-151.231H488.192Z" transform="translate(-1.941 -2.804)"/><path d="M587.568,576.337l-53.17-141.6-9.351,3.712,1.075,2.566,5.786-2.3L584.773,579.5a1.992,1.992,0,0,0,1.773.226C587.646,579.294,588.1,577.774,587.568,576.337Z" transform="translate(-1.941 -2.804)"/></g></g><path id="_Path_19" data-name="&lt;Path&gt;" class="cls-4" d="M422.36,367.7H329.912l-18.3-57.537a4.493,4.493,0,0,1,4.282-5.855h83.018a4.493,4.493,0,0,1,4.282,3.131Z" transform="translate(-1.941 -2.804)"/><path id="_Path_20" data-name="&lt;Path&gt;" class="cls-59" d="M420.865,367.7H332.349L314.22,311.226a4.417,4.417,0,0,1,4.241-5.747h79.176a4.447,4.447,0,0,1,4.241,3.073Z" transform="translate(-1.941 -2.804)"/><path id="_Path_21" data-name="&lt;Path&gt;" class="cls-60" d="M365.332,316.154H325a1.088,1.088,0,0,1-1.088-1.088h0A1.088,1.088,0,0,1,325,313.978h40.327a1.088,1.088,0,0,1,1.088,1.088h0A1.088,1.088,0,0,1,365.332,316.154Z" transform="translate(-1.941 -2.804)"/><path id="_Path_22" data-name="&lt;Path&gt;" class="cls-60" d="M371.577,321.183H326.608a1.088,1.088,0,0,1-1.088-1.088h0a1.088,1.088,0,0,1,1.088-1.088h44.969a1.088,1.088,0,0,1,1.088,1.088h0A1.088,1.088,0,0,1,371.577,321.183Z" transform="translate(-1.941 -2.804)"/><path id="_Path_23" data-name="&lt;Path&gt;" class="cls-60" d="M367.411,326.212H328.244a1.088,1.088,0,0,1-1.088-1.088h0a1.088,1.088,0,0,1,1.088-1.088h39.166a1.088,1.088,0,0,1,1.088,1.088h0A1.088,1.088,0,0,1,367.411,326.212Z" transform="translate(-1.941 -2.804)"/><path id="_Path_24" data-name="&lt;Path&gt;" class="cls-60" d="M360.883,331.241H329.84a1.088,1.088,0,0,1-1.088-1.088h0a1.088,1.088,0,0,1,1.088-1.088h31.043a1.088,1.088,0,0,1,1.088,1.088h0A1.088,1.088,0,0,1,360.883,331.241Z" transform="translate(-1.941 -2.804)"/><path id="_Path_25" data-name="&lt;Path&gt;" class="cls-60" d="M376.453,336.269H331.484a1.088,1.088,0,0,1-1.088-1.088h0a1.088,1.088,0,0,1,1.088-1.088h44.969a1.088,1.088,0,0,1,1.088,1.088h0A1.087,1.087,0,0,1,376.453,336.269Z" transform="translate(-1.941 -2.804)"/><path id="_Path_26" data-name="&lt;Path&gt;" class="cls-60" d="M372.26,341.3H333.094a1.088,1.088,0,0,1-1.088-1.088h0a1.088,1.088,0,0,1,1.088-1.088H372.26a1.088,1.088,0,0,1,1.088,1.088h0A1.088,1.088,0,0,1,372.26,341.3Z" transform="translate(-1.941 -2.804)"/><path id="_Path_27" data-name="&lt;Path&gt;" class="cls-60" d="M381.272,351.356H336.3a1.088,1.088,0,0,1-1.088-1.088h0a1.088,1.088,0,0,1,1.088-1.088h44.969a1.088,1.088,0,0,1,1.088,1.088h0A1.088,1.088,0,0,1,381.272,351.356Z" transform="translate(-1.941 -2.804)"/><path id="_Path_28" data-name="&lt;Path&gt;" class="cls-60" d="M382.909,356.385H337.94a1.088,1.088,0,0,1-1.088-1.088h0a1.088,1.088,0,0,1,1.088-1.088h44.969A1.088,1.088,0,0,1,384,355.3h0A1.088,1.088,0,0,1,382.909,356.385Z" transform="translate(-1.941 -2.804)"/><path id="_Path_29" data-name="&lt;Path&gt;" class="cls-60" d="M406.821,356.385H392.3a3.1,3.1,0,0,1-2.959-2.168l-12.11-38.328a3.1,3.1,0,0,1,2.959-4.038h14.526a3.1,3.1,0,0,1,2.959,2.168l12.109,38.328A3.1,3.1,0,0,1,406.821,356.385Z" transform="translate(-1.941 -2.804)"/><path id="_Path_30" data-name="&lt;Path&gt;" class="cls-4" d="M430.107,371.888H329.573a2.974,2.974,0,0,1-2.973-2.974h0a2.974,2.974,0,0,1,2.973-2.974H430.107a2.974,2.974,0,0,1,2.974,2.974h0A2.974,2.974,0,0,1,430.107,371.888Z" transform="translate(-1.941 -2.804)"/><g id="_Group_" data-name="&lt;Group&gt;"><path id="_Compound_Path_" data-name="&lt;Compound Path&gt;" class="cls-56" d="M459.134,292.389a2.528,2.528,0,0,1-2.2-1.268l-3.344-5.882a2.513,2.513,0,0,1,1.012-3.468l9.309-4.917a2.526,2.526,0,0,1,3.384,1.021l3.177,5.833a2.514,2.514,0,0,1-1.008,3.414l-9.141,4.965A2.49,2.49,0,0,1,459.134,292.389Zm5.949-14.664a1.334,1.334,0,0,0-.628.156l-9.309,4.916a1.354,1.354,0,0,0-.545,1.868h0l3.345,5.882a1.363,1.363,0,0,0,1.826.52l9.141-4.965a1.355,1.355,0,0,0,.542-1.838l-3.176-5.833A1.36,1.36,0,0,0,465.083,277.725Z" transform="translate(-1.941 -2.804)"/></g><path id="_Path_31" data-name="&lt;Path&gt;" class="cls-16" d="M420.981,353.2a17.593,17.593,0,0,1-1.172,1.37s-4.874-3.691-6.232-4.039-4.247.731-5.9,0.824-1.786-.883-1.786-0.883-6.291,2.623-7.3,2.867-1.695-.093-1.068-1.694a6.8,6.8,0,0,1,1.161-1.578l0.012-.012c2.147-2.426,6.569-6.3,8.158-7.068,2.031-.963,4.793-2.367,7.009-1.543s9.435,6.232,9.435,6.232C423.511,349.532,422.072,351.8,420.981,353.2Z" transform="translate(-1.941 -2.804)"/><path id="_Path_32" data-name="&lt;Path&gt;" class="cls-61" d="M422.479,348l-1.5,5.2a17.593,17.593,0,0,1-1.172,1.37s-4.874-3.691-6.232-4.039-4.247.731-5.9,0.824-1.786-.883-1.786-0.883-6.291,2.623-7.3,2.867-1.695-.093-1.068-1.694a6.8,6.8,0,0,1,1.161-1.578c-0.533.738-1.125,1.5-.775,2.438,0.426,1.145,7.177-2.074,12.054-5.015,0.076-.046.468-0.24,0.6-0.013a0.725,0.725,0,0,1-.268.547c-0.813.873-4.9,1.18-4.073,2.484,1.166,1.834,5.362-1.532,7.659-.778a23.661,23.661,0,0,1,5.176,2.855S420.378,348.673,422.479,348Z" transform="translate(-1.941 -2.804)"/><path id="_Path_33" data-name="&lt;Path&gt;" class="cls-62" d="M419.068,354.572s23.911,20.913,41.8,23.041S508.933,345.8,508.933,345.8s-1.9-18.083-13.055-15.957-26.111,29.012-32.59,30.27-40.17-13.021-40.17-13.021a8.758,8.758,0,0,0-2.084,2.567A22.48,22.48,0,0,0,419.068,354.572Z" transform="translate(-1.941 -2.804)"/><path id="_Path_34" data-name="&lt;Path&gt;" class="cls-16" d="M500.423,251.505c-6.543-7.49-16.215-8.3-23.681-7.47a24.736,24.736,0,0,0-21.153,17.142,22.019,22.019,0,0,0,.445,14.118c6.093,16.827,12.475,27.562,18.423,30.753,2.27,1.218,6.611.406,11.248-1.223a1.308,1.308,0,0,1,1.592.609l1.957,3.661,17.214-3.723a58.655,58.655,0,0,1-3.389-9.83C505.58,292.383,512.4,265.208,500.423,251.505Z" transform="translate(-1.941 -2.804)"/><path id="_Path_35" data-name="&lt;Path&gt;" class="cls-31" d="M465.636,275.513a4.931,4.931,0,0,1,5,2.936c1.415,3.368,3.6,8.08,5.318,9.612a1.751,1.751,0,0,0,1.892.018,1.481,1.481,0,0,0,.864-1.469,39.93,39.93,0,0,0-1.989-6.706,4.516,4.516,0,0,1,3.391-6.253,7.64,7.64,0,0,1,2.8.173c5.089,1.544,1.583,9.524,1.48,13.693-0.072,2.938,3.445,9.748,5,10.36,5.113,2.006,12.862.194,16.972-4.884s5-22.049,2.756-32.2-10.372-15.884-13.055-16.537A9.456,9.456,0,0,0,492.88,244a2.966,2.966,0,0,1-2.244-.733c-2.705-2.354-10.789-7.733-23.578-2.211a29.644,29.644,0,0,0-18.35,28.287c0.189,4.337,3.595,4.017,5.956,3.261a3.943,3.943,0,0,1,3.75.811A9.554,9.554,0,0,0,465.636,275.513Z" transform="translate(-1.941 -2.804)"/><path id="_Path_36" data-name="&lt;Path&gt;" class="cls-63" d="M488.722,311.851s-1.481-1.65-.919-2.659c0.7-1.252,8.252-7.229,17.069-6.915,1.371,0.049,3.046.049,4.69,3.627a25.851,25.851,0,0,1,2.031,5.948H488.722Z" transform="translate(-1.941 -2.804)"/><path id="_Path_37" data-name="&lt;Path&gt;" class="cls-63" d="M522.281,456.455c-0.534.128-1.114,0.255-1.718,0.372-7.485,1.393-19.659,1.555-19.659,1.555-24-.429-36.13-22.787-40.029-29.46a24.921,24.921,0,0,1-1.915-3.911c1.37-.731,17.672-9.521,16.8-39.538-0.181-6.22-.093-20.146-3.191-25.554-1.706-2.971-6.754-8.994-9.922-15.341-2.6-5.223-3.945-10.665-1.1-14.82,7.056-10.363,18.185-15.876,18.185-15.876s20.425-8.181,37.821-6.325c11.036,1.16,20.865,6.359,23.488,20.251C547.806,363.585,522.281,456.455,522.281,456.455Z" transform="translate(-1.941 -2.804)"/><path id="_Path_38" data-name="&lt;Path&gt;" class="cls-64" d="M482.435,377.616c2.966,29.531-17.138,48.126-21.56,51.306a24.921,24.921,0,0,1-1.915-3.911c1.37-.731,16.7-14.036,16.8-39.538,0.026-6.223-.093-20.146-3.191-25.554-1.706-2.971-6.754-8.994-9.922-15.341l1.346-.522,8.193-1.358,4.155,3.389S480.514,358.486,482.435,377.616Z" transform="translate(-1.941 -2.804)"/><path id="_Path_39" data-name="&lt;Path&gt;" class="cls-65" d="M522.281,456.455c-0.534.128-1.114,0.255-1.718,0.372,1.532-8.066,11.228-58.717,14.385-77.087,6.232-36.266-.255-54.635-3.911-61.216-2.955-5.319-8.645-8.135-13.485-10.967,11.036,1.16,20.865,6.359,23.488,20.251C547.806,363.585,522.281,456.455,522.281,456.455Z" transform="translate(-1.941 -2.804)"/><path id="_Path_40" data-name="&lt;Path&gt;" class="cls-16" d="M404.53,564.674a15.91,15.91,0,0,1-5.708,1.1c-3.524,0-4.548-1.317-4.548-1.317v-8.036l11.609-1.494Z" transform="translate(-1.941 -2.804)"/><path id="_Path_41" data-name="&lt;Path&gt;" class="cls-66" d="M495.739,452.292c-0.07,5.224-1.456,13.557-9.285,15.91-11.68,3.5-20.308,1.513-33.85-.826-11.344-1.947-41.22-8.378-46.71-10.464a0.95,0.95,0,0,0-1.275,1.078c2.591,12.661,4.662,18.133,6.341,37.132,1.411,15.962-4.722,61.143-4.722,61.143a32.4,32.4,0,0,1-3.866.9,15.629,15.629,0,0,1-2.227.2,50.684,50.684,0,0,1-6.484-.546s-12.114-66.539-13.752-93.5,0.939-29.187,13.193-34.9,67.035-3.6,67.035-3.6l0.014,0.014c0.154,0.476,3.235,8.893,12.325,16.512A51.948,51.948,0,0,0,495.739,452.292Z" transform="translate(-1.941 -2.804)"/><path class="cls-67" d="M462.425,429.472a30.892,30.892,0,0,1-2.273-4.644l-0.014-.014s-0.635-.024-1.733-0.059A45.509,45.509,0,0,0,462.425,429.472Z" transform="translate(-1.941 -2.804)"/><path class="cls-67" d="M488.188,450.193c-1.1,3.956-3.47,7.811-8.4,9.293-11.68,3.5-20.308,1.513-33.85-.826-11.344-1.947-41.221-8.378-46.711-10.465a0.95,0.95,0,0,0-1.274,1.078c2.591,12.661,4.662,18.133,6.341,37.132,1.1,12.429.631,52.947,0.369,70.28,0.917-.225,1.576-0.421,1.576-0.421s6.133-45.181,4.722-61.143c-1.68-19-3.751-24.471-6.342-37.131a0.951,0.951,0,0,1,1.275-1.079c5.49,2.087,35.366,8.518,46.71,10.464,13.543,2.339,22.17,4.328,33.85.827,7.829-2.353,9.215-10.686,9.285-15.91A58.75,58.75,0,0,1,488.188,450.193Z" transform="translate(-1.941 -2.804)"/><path id="_Path_42" data-name="&lt;Path&gt;" class="cls-56" d="M394.076,563.333a18.475,18.475,0,0,0,5.762,1.2,13.881,13.881,0,0,0,5.675-1.2s5.846,7.445,2.74,15.741a1.127,1.127,0,0,1-1.056.715H367.992a0.878,0.878,0,0,1-.889-0.85c-0.013-.966.375-2.505,2.756-3.234,3.618-1.109,7.353-1.722,10.154-2.714s6.822-5.106,9.074-5.865A12.221,12.221,0,0,0,394.076,563.333Z" transform="translate(-1.941 -2.804)"/><path id="_Path_43" data-name="&lt;Path&gt;" class="cls-16" d="M376.291,366.829s-3.489-.912-5.3-1.282a19.239,19.239,0,0,0-1.937-.283,10.07,10.07,0,0,0-2.3.072L348.01,367.93a1,1,0,0,1-1.114-.853,2.159,2.159,0,0,1,.728-1.94l1.832-1.577,5.474-4.718c2.711-2.332,4.859-2.749,8.443-2.928a32.765,32.765,0,0,1,3.865.783c3.673,0.673,4.51,1.1,6.958,1.6a16.225,16.225,0,0,0,2.048.326,1.929,1.929,0,0,0,.816-0.031A11.356,11.356,0,0,1,376.291,366.829Z" transform="translate(-1.941 -2.804)"/><path id="_Path_44" data-name="&lt;Path&gt;" class="cls-17" d="M404.906,368.691a0.086,0.086,0,0,1-.112.031c-0.48-.2-3.409-1.4-5-1.968-0.588-.206-1.143-0.362-1.623-0.483a12.632,12.632,0,0,0-2.556-.307H376.8a1.064,1.064,0,0,1-1.086-1.039,2.156,2.156,0,0,1,.986-1.781l2.031-1.311c-1.921,1.46-2.231,2.559-1.268,2.675,0.77,0.093,2.593-.109,7.212-1.395,0.1-.029.145,0.134,0.053,0.191a1.033,1.033,0,0,0,.641,1.954c0.776-.038,4.075-0.247,4.835-0.29,2.95-.169,7.249-0.447,8.075-0.3a14.146,14.146,0,0,1,4.134,1.432c0.808,0.421,1.577-.5,1.871-1.362a35.22,35.22,0,0,1,1.66-4.128,1.933,1.933,0,0,0,.813.082A11.428,11.428,0,0,1,404.906,368.691Z" transform="translate(-1.941 -2.804)"/><path id="_Path_45" data-name="&lt;Path&gt;" class="cls-63" d="M478.974,323.536c-2.48-1.514-9.981-5.68-19.652,9.4s-17.407,26.4-20.792,28.428-11.7.58-14.7,0.58-46.887-3.424-46.887-3.424a30.911,30.911,0,0,0-2.466,8.45s40.214,10.544,65.14,10.64,43.881-37.619,44.751-42.165S484.9,327.155,478.974,323.536Z" transform="translate(-1.941 -2.804)"/><g id="_Group_2" data-name="&lt;Group&gt;"><path id="_Path_46" data-name="&lt;Path&gt;" class="cls-56" d="M454.915,288.414a0.58,0.58,0,0,1-.265-1.1l21.624-11.083c2.447-1.254,7.456-3.819,11.174,1.635a0.58,0.58,0,0,1-.959.654c-2.9-4.255-6.356-2.964-9.645-1.276l-21.664,11.1A0.581,0.581,0,0,1,454.915,288.414Z" transform="translate(-1.941 -2.804)"/></g><path id="_Path_47" data-name="&lt;Path&gt;" class="cls-16" d="M476.633,277.616l2.611,8.341a2.65,2.65,0,0,0,3.99-.29c1.958-2.254,3.662-10.082.072-11.387S477.54,274.824,476.633,277.616Z" transform="translate(-1.941 -2.804)"/><path class="cls-14" d="M574.917,398.406c0-42.122-.991-71.8-27.672-76.268-36.3-6.075-64.7,25.356-58.887,85.579,3.33,34.507-10.82,46.351-22.871,53.09-7.792,4.358-22.875,3.423-22.875,3.423s-6.986-.828-11.675-1.27c2.9,1.338,65.056,31.967,109.408,9.336C579.658,452.237,574.917,423.187,574.917,398.406Z" transform="translate(-1.941 -2.804)"/><path class="cls-15" d="M574.917,398.406c0-42.122-.991-71.8-27.672-76.268-1.282-.215-2.554-0.377-3.815-0.5-29.085,2.879-48.142,33.51-43.068,86.1,3.33,34.507-10.82,46.35-22.871,53.09-7.792,4.358-22.875,3.423-22.875,3.423s-0.354-.111-1-0.306a75.056,75.056,0,0,1-11,.288s-6.986-.828-11.675-1.27c2.9,1.338,65.056,31.967,109.408,9.336C579.658,452.237,574.917,423.187,574.917,398.406Z" transform="translate(-1.941 -2.804)"/></g></g></svg>