<svg id="Layer_2" data-name="Layer 2" xmlns="http://www.w3.org/2000/svg" viewBox="0 0 199.421 199.423"><defs><style>.cls-1{fill:#00bfd8;}</style></defs><title>services-icon-2</title><path class="cls-1" d="M40.033,35.149A17.286,17.286,0,1,0,22.749,17.86,17.306,17.306,0,0,0,40.033,35.149Zm0-28.527A11.243,11.243,0,1,1,28.792,17.86,11.253,11.253,0,0,1,40.033,6.622Z" transform="translate(0 -0.577)"/><path class="cls-1" d="M40.035,56.4a3.024,3.024,0,0,0-3.021,3.023v4.2a3.021,3.021,0,1,0,6.041,0v-4.2A3.023,3.023,0,0,0,40.035,56.4Z" transform="translate(0 -0.577)"/><path class="cls-1" d="M40.035,73.21a3.024,3.024,0,0,0-3.021,3.027v4.2a3.021,3.021,0,0,0,6.041,0v-4.2A3.024,3.024,0,0,0,40.035,73.21Z" transform="translate(0 -0.577)"/><path class="cls-1" d="M40.035,90.023a3.024,3.024,0,0,0-3.021,3.027v2.013a3.021,3.021,0,0,0,6.041,0V93.05A3.024,3.024,0,0,0,40.035,90.023Z" transform="translate(0 -0.577)"/><path class="cls-1" d="M105.248,22.989a11.093,11.093,0,0,0-3.272-7.9,11.437,11.437,0,0,0-15.789,0L63.559,37.725a13.746,13.746,0,0,1-9.782,4.053H19.308A19.329,19.329,0,0,0,0,61.087v50.367A11.179,11.179,0,0,0,11.166,122.62a11.035,11.035,0,0,0,5.148-1.3v65.411a13.4,13.4,0,0,0,23.733,8.391,13.4,13.4,0,0,0,23.733-8.391V73.835a10.949,10.949,0,0,1,3.212-7.774l34.984-35.177A11.093,11.093,0,0,0,105.248,22.989ZM57.737,186.733a7.335,7.335,0,0,1-14.669,0V128.239a3.022,3.022,0,1,0-6.043,0v58.494a7.336,7.336,0,0,1-14.669,0V113.588H57.737v73.144ZM97.7,26.616L62.707,61.8a16.956,16.956,0,0,0-4.97,12.038v33.712H22.353L22.331,63.911a3.022,3.022,0,1,0-6.043,0v47.543a5.122,5.122,0,0,1-10.245,0V61.087A13.281,13.281,0,0,1,19.308,47.82H37.217a2.977,2.977,0,0,0,5.635,0H53.777A19.741,19.741,0,0,0,67.833,42L90.459,19.37a5.242,5.242,0,0,1,7.244,0A5.116,5.116,0,0,1,97.7,26.616Z" transform="translate(0 -0.577)"/><path class="cls-1" d="M196.4,0.577H123.027a3.019,3.019,0,0,0-2.662,4.447l11.322,21.1-11.322,21.09a3.025,3.025,0,0,0,2.662,4.455h70.351V87.857l-29.884,39.826-12.687-16.911a3.136,3.136,0,0,0-4.834,0l-30.829,41.084-12.687-16.911a3.136,3.136,0,0,0-4.834,0L72.128,168.921a3.023,3.023,0,1,0,4.836,3.627l23.074-30.754,39.139,52.16H74.546a3.023,3.023,0,0,0,0,6.045H196.4a3.023,3.023,0,0,0,3.021-3.023V3.6A3.023,3.023,0,0,0,196.4.577Zm-3.023,193.378H146.733l-27.81-37.063,29.466-39.27,44.989,59.958v16.375Zm0-26.445-26.107-34.8,26.107-34.787v69.583Zm0-121.889h-65.3l9.7-18.071a3.021,3.021,0,0,0,0-2.856l-9.7-18.071h65.3v39Z" transform="translate(0 -0.577)"/></svg>