<svg id="Layer_3" data-name="Layer 3" xmlns="http://www.w3.org/2000/svg" viewBox="0 0 199.33 199.178"><defs><style>.cls-1{fill:#00bfd8;}</style></defs><title>services-icon-3</title><path class="cls-1" d="M196.239,148.574c-2.238-1.877-4.9-2.027-8.41-1.131a8.758,8.758,0,0,0-3.772-9.583c-1.979-1.517-4.477-1.647-7.693-.9V122.105A27.013,27.013,0,0,0,153.91,95.433l-20.017-3.455a13.052,13.052,0,0,1-10.43-9.668l-1.541-6.1c9.984-8.03,16.574-21.7,16.574-37.171,0-22.86-14.977-38.217-37.265-38.217S63.962,16.179,63.962,39.04c0,15.467,6.578,29.117,16.55,37.155L78.971,82.31a13.063,13.063,0,0,1-10.434,9.668L48.52,95.433a27.018,27.018,0,0,0-22.455,26.672v8.342H3.692A3.023,3.023,0,0,0,.67,133.464v54.325a3.02,3.02,0,0,0,3.021,3.017H28.6A217.407,217.407,0,0,0,91.49,200c31.068,0,68.686-6.923,101.136-32.65,0.722-.5,7.081-5.053,7.365-11.034C200.084,154.3,199.512,151.324,196.239,148.574ZM26.065,184.768H6.713V136.485H26.065v48.283Zm154.318-42.115c1.63,1.249,1.671,2.235,1.683,2.559,0.056,1.464-1.245,3.581-3.378,5.592-0.669.279-1.31,0.551-2.024,0.851a226.034,226.034,0,0,1-35.8,12.389,10.847,10.847,0,0,0,.568-2.892,22.207,22.207,0,0,0-.215-4.656,200.738,200.738,0,0,0,24.6-9.116C171.352,145.014,178.931,141.753,180.383,142.654Zm-44.84-44.26,17.337,3a20.984,20.984,0,0,1,17.446,20.715v16.85c-2.068.811-4.351,1.793-6.882,2.879a195.636,195.636,0,0,1-24.158,8.942,12.6,12.6,0,0,0-1.792-2.316,14.569,14.569,0,0,0-10.236-3.918,179.783,179.783,0,0,1-23.006-.713V108.779l12.58,11.039a3.046,3.046,0,0,0,1.995.75,2.881,2.881,0,0,0,.377-0.025,3.009,3.009,0,0,0,2.112-1.3Zm-34.312.081L83.773,86.791a18.824,18.824,0,0,0,1.059-3l1.022-4.051a31.314,31.314,0,0,0,30.731.012l1.018,4.039a19.27,19.27,0,0,0,1.054,3Zm20.727-6.619a19.225,19.225,0,0,0,7.3,5.033l-11.01,16.136-12.073-10.593ZM70,39.04a38.415,38.415,0,0,1,2.182-13.18c4.473,2.425,13.423,6.128,26.372,6.128a79.566,79.566,0,0,0,23.221-3.662,3.019,3.019,0,1,0-1.764-5.775C95.8,29.927,80.3,23.492,74.8,20.417c5.244-8.557,14.51-13.553,26.433-13.553,18.967,0,31.226,12.629,31.226,32.175,0,21.331-14.012,38.688-31.226,38.688S70,60.371,70,39.04ZM80.476,91.856l15.8,10.576-12.1,10.593L73.172,96.889A19.221,19.221,0,0,0,80.476,91.856ZM32.107,122.105A20.981,20.981,0,0,1,49.55,101.39l17.337-3,14.226,20.852a3.031,3.031,0,0,0,2.113,1.3,2.937,2.937,0,0,0,.381.025,3.044,3.044,0,0,0,1.991-.75L98.21,108.767v34.041a28.723,28.723,0,0,1-8.873-3.751c-6.72-3.942-14.417-8.387-57.229-8.594v-8.358Zm156.926,40.4c-61.759,48.956-143.117,27.268-156.926,23.083v-49.09c41.239,0.186,48.1,4.213,54.167,7.774,6.229,3.65,11.627,6.793,41.21,6.31a8.322,8.322,0,0,1,5.734,2.149c1.675,1.687,2.413,4.4,2.186,8.062-0.056.892-.223,3.585-5.536,5.718-0.049.016-.174,0.073-0.2,0.081-5.653,2.2-18.111,4.08-45.347.56a3.02,3.02,0,1,0-.774,5.99,214.224,214.224,0,0,0,26.976,2.015q13.5,0,21.015-2.839h0.037a224.958,224.958,0,0,0,47.447-15.1c6.189-2.632,12.032-5.094,13.33-4.015,1.492,1.253,1.626,2.21,1.6,2.823C193.843,158.583,190.388,161.548,189.033,162.5Z" transform="translate(-0.67 -0.822)"/><circle class="cls-1" cx="15.72" cy="145.594" r="3.019"/></svg>