<svg id="Layer_1" data-name="Layer 1" xmlns="http://www.w3.org/2000/svg" viewBox="0 0 200 200"><defs><style>.cls-1{fill:#00bfd8;}</style></defs><title>services-icon-1</title><path class="cls-1" d="M33.887,172.92H6.061V130.245a3.03,3.03,0,1,0-6.061,0v66.723a3.03,3.03,0,1,0,6.061,0V178.98H24.583v17.989a3.03,3.03,0,1,0,6.061,0V178.98h3.243A3.03,3.03,0,0,0,33.887,172.92Z" transform="translate(0 0)"/><path class="cls-1" d="M196.97,127.213a3.034,3.034,0,0,0-3.031,3.032V172.92H166.115a3.03,3.03,0,1,0,0,6.059h3.243v17.989a3.03,3.03,0,1,0,6.061,0V178.98h18.52v17.989a3.03,3.03,0,1,0,6.061,0V130.245A3.032,3.032,0,0,0,196.97,127.213Z" transform="translate(0 0)"/><path class="cls-1" d="M151.515,134.285a3.032,3.032,0,0,0-3.029-3.032H51.515a3.031,3.031,0,0,0,0,6.063H96.97v59.652a3.03,3.03,0,1,0,6.061,0V137.317h45.455A3.032,3.032,0,0,0,151.515,134.285Z" transform="translate(0 0)"/><path class="cls-1" d="M22.365,87.15a15.819,15.819,0,0,0,3.76.452A15.381,15.381,0,1,0,22.365,87.15Zm-2.51-22a9.312,9.312,0,0,1,6.278-2.417,10.1,10.1,0,0,1,2.368.285A9.431,9.431,0,1,1,19.855,65.149Z" transform="translate(0 0)"/><path class="cls-1" d="M69.153,153.174a12.191,12.191,0,0,0-11.434-8.37l-13.47-.163a4.557,4.557,0,0,1-4.527-4.541l-0.4-26.294L61.194,120.8a10.817,10.817,0,0,0,6.571.012l20.683-6.535a9.571,9.571,0,0,0,6.116-12.5v0a9.6,9.6,0,0,0-11.735-5.786l-18.892,5.9a3.424,3.424,0,0,1-2.37-.118L39.848,92.517a14.656,14.656,0,0,0-7.12-1.107L20.471,92.554a11.455,11.455,0,0,0-10.362,11.755l1.772,46.927a16.928,16.928,0,0,0,17.275,16.345l18.18-.44a3.349,3.349,0,0,1,3.44,2.531l6.392,22.538A10.756,10.756,0,0,0,67.476,200H69.5A10.917,10.917,0,0,0,79.87,185.665Zm4.285,38.757a4.8,4.8,0,0,1-3.933,2.01H67.476A4.671,4.671,0,0,1,63,190.56L56.61,168.025a9.541,9.541,0,0,0-9.186-6.945H47.192l-18.186.443a10.707,10.707,0,0,1-11.068-10.494L16.166,104.1a5.379,5.379,0,0,1,4.872-5.513L33.29,97.44a8.718,8.718,0,0,1,4.183.651l21.716,9.245a9.5,9.5,0,0,0,6.555.325L84.6,101.778A3.518,3.518,0,0,1,88.89,103.9a3.517,3.517,0,0,1-2.252,4.59l-20.7,6.539a4.788,4.788,0,0,1-2.9,0L37.15,106.75a3.03,3.03,0,0,0-3.955,2.93l0.466,30.5A10.706,10.706,0,0,0,44.177,150.7l13.47,0.163a6.142,6.142,0,0,1,5.754,4.211l10.716,32.491A4.813,4.813,0,0,1,73.438,191.931Z" transform="translate(0 0)"/><path class="cls-1" d="M173.877,87.6a15.817,15.817,0,0,0,3.76-.452,15.479,15.479,0,1,0-19.114-17.216A15.464,15.464,0,0,0,173.877,87.6Zm-9.348-16.846a9.44,9.44,0,0,1,6.968-7.739,10.111,10.111,0,0,1,2.373-.285,9.421,9.421,0,0,1,9.3,10.8A9.42,9.42,0,0,1,164.528,70.756Z" transform="translate(0 0)"/><path class="cls-1" d="M188.116,151.257l1.78-46.968a11.463,11.463,0,0,0-10.37-11.735L167.283,91.41a14.737,14.737,0,0,0-7.127,1.107l-18.192,7.719a3.469,3.469,0,0,1-3.294-.3L125.494,90.93a9.569,9.569,0,0,0-10.744,15.837l19.9,13.77a9.545,9.545,0,0,0,9.165.911l16.856-7.194-0.4,25.858a4.611,4.611,0,0,1-4.523,4.529l-13.475.163a12.188,12.188,0,0,0-11.43,8.374l-10.718,32.487A10.917,10.917,0,0,0,130.5,200h2.024a10.751,10.751,0,0,0,10.307-7.788l6.39-22.534a3.422,3.422,0,0,1,3.438-2.535l18.188,0.44A17.016,17.016,0,0,0,188.116,151.257Zm-44.728,16.765L137,190.56a4.668,4.668,0,0,1-4.474,3.382H130.5a4.857,4.857,0,0,1-4.612-6.376L136.6,155.078a6.139,6.139,0,0,1,5.75-4.215l13.475-.163a10.7,10.7,0,0,0,10.51-10.506l0.47-30.51a3.027,3.027,0,0,0-4.218-2.836l-21.145,9.025a3.516,3.516,0,0,1-3.355-.325l-19.9-13.77a3.51,3.51,0,0,1-.789-5.038,3.507,3.507,0,0,1,4.7-.789l13.175,9.009a9.538,9.538,0,0,0,9.055.855L162.524,98.1a8.753,8.753,0,0,1,4.2-.651l12.243,1.143a5.386,5.386,0,0,1,4.877,5.493l-1.78,46.968A10.7,10.7,0,0,1,171,161.523L152.8,161.08A9.5,9.5,0,0,0,143.388,168.022Z" transform="translate(0 0)"/><path class="cls-1" d="M57.731,73.34a3.02,3.02,0,0,0,3.223-.411L83.547,54.236h57.434a3.032,3.032,0,0,0,3.03-3.032V3.031A3.032,3.032,0,0,0,140.981,0H59.021A3.033,3.033,0,0,0,55.99,3.031V70.6A3.036,3.036,0,0,0,57.731,73.34ZM62.05,6.063h75.9v42.11h-55.5a3.042,3.042,0,0,0-1.933.7L62.05,64.156V6.063Z" transform="translate(0 0)"/></svg>