<svg id="Layer_1" data-name="Layer 1" xmlns="http://www.w3.org/2000/svg" viewBox="0 0 127.815 121"><defs><style>.cls-1{fill:#4b5763;}.cls-2{fill:#fff;}</style></defs><title>statement-1</title><circle class="cls-1" cx="63.907" cy="60.5" r="60.5"/><path class="cls-2" d="M117.89,90.976H12.106a1.05,1.05,0,0,1-1.05-1.05V31.755A6.352,6.352,0,0,1,17.4,25.409h95.2a6.353,6.353,0,0,1,6.344,6.346v58.17A1.05,1.05,0,0,1,117.89,90.976Zm-104.735-2.1H116.84V31.755A4.249,4.249,0,0,0,112.6,27.51H17.4a4.249,4.249,0,0,0-4.245,4.245v57.12Z" transform="translate(-1.093 -4.5)"/><path class="cls-2" d="M112.6,85.685H17.4a1.05,1.05,0,0,1-1.05-1.05V31.755a1.05,1.05,0,0,1,1.05-1.05h95.2a1.05,1.05,0,0,1,1.05,1.05V84.635A1.05,1.05,0,0,1,112.6,85.685Zm-94.146-2.1h93.1V32.806H18.45V83.585Z" transform="translate(-1.093 -4.5)"/><path class="cls-2" d="M121.043,104.591H8.957a7.873,7.873,0,0,1-7.865-7.865v-6.8a1.05,1.05,0,0,1,1.05-1.05H127.857a1.05,1.05,0,0,1,1.05,1.05v6.8A7.873,7.873,0,0,1,121.043,104.591ZM3.192,90.976v5.75a5.771,5.771,0,0,0,5.766,5.764H121.043a5.769,5.769,0,0,0,5.764-5.764v-5.75H3.192Z" transform="translate(-1.093 -4.5)"/><path class="cls-2" d="M64.992,100.429a3.7,3.7,0,1,1,3.7-3.685A3.693,3.693,0,0,1,64.992,100.429Zm0-5.291a1.6,1.6,0,1,0,1.6,1.605A1.6,1.6,0,0,0,64.992,95.138Z" transform="translate(-1.093 -4.5)"/><path class="cls-2" d="M92.472,71.935H80.5a1.051,1.051,0,0,1-1.033-.861,11.152,11.152,0,0,0-3.432-5.789A15.53,15.53,0,0,1,71.3,52.307a15.745,15.745,0,0,1,13.8-13.8,7.944,7.944,0,0,1,2.113-.038c0.175,0.016.348,0.031,0.536,0.031a15.735,15.735,0,0,1,13.914,13.8,15.428,15.428,0,0,1-4.733,12.982,11.4,11.4,0,0,0-3.432,5.8A1.05,1.05,0,0,1,92.472,71.935Zm-11.14-2.1H91.644a14.052,14.052,0,0,1,3.837-6.062,13.345,13.345,0,0,0,4.1-11.238,13.6,13.6,0,0,0-11.941-11.94c-0.134,0-.374-0.014-0.609-0.036-0.214-.019-0.44-0.033-0.661-0.031a5.787,5.787,0,0,0-.981.06,13.645,13.645,0,0,0-12,11.949,13.445,13.445,0,0,0,4.1,11.232A13.825,13.825,0,0,1,81.331,69.834Z" transform="translate(-1.093 -4.5)"/><path class="cls-2" d="M93.911,74.472H79.064a1.05,1.05,0,0,1,0-2.1H93.911A1.05,1.05,0,0,1,93.911,74.472Z" transform="translate(-1.093 -4.5)"/><path class="cls-2" d="M93.911,77.053H79.064a1.05,1.05,0,0,1,0-2.1H93.911A1.05,1.05,0,0,1,93.911,77.053Z" transform="translate(-1.093 -4.5)"/><path class="cls-2" d="M93.911,79.615H79.064a1.05,1.05,0,0,1,0-2.1H93.911A1.05,1.05,0,0,1,93.911,79.615Z" transform="translate(-1.093 -4.5)"/><path class="cls-2" d="M86.477,71.951a1.069,1.069,0,0,1-.4-0.08,1.053,1.053,0,0,1-.61-0.692l-5.8-11.44a1.05,1.05,0,0,1,1.874-.949l4.662,9.2,2.236-8.976a1.05,1.05,0,0,1,2.037.511L87.512,71.135A1.079,1.079,0,0,1,86.477,71.951Z" transform="translate(-1.093 -4.5)"/><path class="cls-2" d="M84.653,58.954a3.3,3.3,0,0,1-2.28-1.024c-0.812-.752-1.59-0.531-2.925.211a2.79,2.79,0,0,1-1.322.487,1.05,1.05,0,0,1-.131-2.091,4.755,4.755,0,0,0,.431-0.23c1.071-.6,3.3-1.84,5.379.087,0.751,0.7,1.094.538,2.055-.077a3.8,3.8,0,0,1,1.793-.743A12.2,12.2,0,0,1,92.065,56.9a1.049,1.049,0,0,1-.938,1.877,9.89,9.89,0,0,0-3.356-1.107,3.011,3.011,0,0,0-.781.413A4.4,4.4,0,0,1,84.653,58.954Z" transform="translate(-1.093 -4.5)"/><path class="cls-2" d="M87.416,82.064H85.571a6.122,6.122,0,0,1-6.122-6.106V70.885a1.05,1.05,0,0,1,1.05-1.05H92.472a1.05,1.05,0,0,1,1.05,1.05v5.073A6.113,6.113,0,0,1,87.416,82.064ZM81.549,71.935v4.023a4.018,4.018,0,0,0,4.022,4.006h1.845a4.009,4.009,0,0,0,4.006-4.006V71.935H81.549Z" transform="translate(-1.093 -4.5)"/><path class="cls-2" d="M86.493,38.592a1.05,1.05,0,0,1-1.05-1.05V35.048a1.05,1.05,0,1,1,2.1,0v2.493A1.05,1.05,0,0,1,86.493,38.592Z" transform="translate(-1.093 -4.5)"/><path class="cls-2" d="M95.419,40.979a1.037,1.037,0,0,1-.524-0.142,1.049,1.049,0,0,1-.383-1.434l1.246-2.154a1.049,1.049,0,0,1,1.817,1.05l-1.246,2.154A1.051,1.051,0,0,1,95.419,40.979Z" transform="translate(-1.093 -4.5)"/><path class="cls-2" d="M101.945,47.518a1.05,1.05,0,0,1-.525-1.96l2.17-1.247a1.05,1.05,0,1,1,1.047,1.82l-2.17,1.247A1.05,1.05,0,0,1,101.945,47.518Z" transform="translate(-1.093 -4.5)"/><path class="cls-2" d="M106.84,56.444h-2.493a1.05,1.05,0,1,1,0-2.1h2.493A1.05,1.05,0,0,1,106.84,56.444Z" transform="translate(-1.093 -4.5)"/><path class="cls-2" d="M104.112,66.614a1.041,1.041,0,0,1-.52-0.14l-2.17-1.244a1.049,1.049,0,1,1,1.044-1.82l2.17,1.244A1.05,1.05,0,0,1,104.112,66.614Z" transform="translate(-1.093 -4.5)"/><path class="cls-2" d="M68.876,66.614a1.05,1.05,0,0,1-.527-1.96l2.157-1.244a1.051,1.051,0,1,1,1.05,1.82L69.4,66.474A1.057,1.057,0,0,1,68.876,66.614Z" transform="translate(-1.093 -4.5)"/><path class="cls-2" d="M68.641,56.444H66.148a1.05,1.05,0,1,1,0-2.1h2.493A1.05,1.05,0,0,1,68.641,56.444Z" transform="translate(-1.093 -4.5)"/><path class="cls-2" d="M71.03,47.518a1.038,1.038,0,0,1-.524-0.142l-2.157-1.247a1.049,1.049,0,0,1,1.05-1.817l2.157,1.247A1.05,1.05,0,0,1,71.03,47.518Z" transform="translate(-1.093 -4.5)"/><path class="cls-2" d="M77.569,40.979a1.047,1.047,0,0,1-.91-0.525L75.413,38.3a1.049,1.049,0,1,1,1.817-1.05L78.475,39.4a1.049,1.049,0,0,1-.383,1.434A1.037,1.037,0,0,1,77.569,40.979Z" transform="translate(-1.093 -4.5)"/></svg>