<svg id="Layer_1" data-name="Layer 1" xmlns="http://www.w3.org/2000/svg" viewBox="0 0 200 200"><defs><style>.cls-1{fill:#00bfd8;}.cls-2{fill:#461811;}.cls-3{fill:#eac8ad;}.cls-4{fill:#f2d7bc;}.cls-5{fill:#eac0a7;}.cls-6{fill:#fff;}.cls-7{fill:#71b6e7;}.cls-8{fill:#5eacdd;}</style></defs><title>team-member-3</title><rect class="cls-1" width="200" height="200"/><path class="cls-2" d="M148.258,118.774c0,26.653-21.606,12.827-48.258,12.827h0c-26.652,0-48.258,13.827-48.258-12.827V75.151A48.257,48.257,0,0,1,100,26.893h0a48.258,48.258,0,0,1,48.258,48.258v43.624Z"/><circle class="cls-2" cx="100.209" cy="75.56" r="49.226"/><polygon class="cls-3" points="116.679 180.977 100 200 83.739 180.977 83.739 144.859 116.679 144.859 116.679 180.977"/><path class="cls-4" d="M100.209,44.759c-15.993,0-41.284,9.092-41.284,51.7,0,24.6,9.588,36.195,13.082,40.653,3.216,4.1,19.721,17.358,28.2,17.358V44.759Z"/><path class="cls-4" d="M50.969,106.612c-0.706-6.807,2.538-12.848,7.242-13.493s9.093,4.35,9.8,11.157-2.539,12.845-7.245,13.491S51.673,113.417,50.969,106.612Z"/><path class="cls-5" d="M100.078,44.759c15.992,0,41.283,9.092,41.283,51.7,0,24.6-9.586,36.195-13.081,40.653-3.216,4.1-19.72,17.358-28.2,17.358V44.759Z"/><path class="cls-5" d="M149.449,106.612c0.7-6.807-2.54-12.848-7.243-13.493s-9.092,4.35-9.8,11.157,2.538,12.845,7.243,13.491S148.742,113.417,149.449,106.612Z"/><path class="cls-3" d="M100,200V182.77s-12.288-3.044-15-13a35.17,35.17,0,0,1-1.264-8.623S56.871,170.224,50.872,179.6c-4.991,14.858-6.36,20.4-6.36,20.4H100Z"/><path class="cls-3" d="M100,200V182.77s12.288-3.044,15-13a35.2,35.2,0,0,0,1.264-8.623s26.868,9.075,32.866,18.448c4.991,14.858,6.36,20.4,6.36,20.4H100Z"/><path class="cls-6" d="M100.209,139.462c6.234,0,11.288-3.828,11.288-8.551H88.92C88.92,135.634,93.974,139.462,100.209,139.462Z"/><path class="cls-2" d="M97.881,32.5c-29.223,0-38.107,25.6-38.107,37.392-10.6,14.73.955,27.909,9.135,32.539V95.185c0-9.526,9.057-18.347,22.662-16.879,12.192,1.316,19.87-5.573,26.356-17.289C125.935,45.329,115.941,32.5,97.881,32.5Z"/><path class="cls-2" d="M116.679,56.2s6.827,27.719,25.526,36.917c3.329-24.92,5.3-19.672,0-32.793s-25.526-22.871-25.526-22.871V56.2Z"/><path class="cls-7" d="M100,200V189.921L83.739,161.149S56.871,170.224,50.872,179.6c-4.991,14.858-6.36,20.4-6.36,20.4H100Z"/><path class="cls-8" d="M100,200V189.921l16.261-28.772s26.868,9.075,32.866,18.448c4.991,14.858,6.36,20.4,6.36,20.4H100Z"/><polygon class="cls-6" points="100 189.921 83.739 161.149 68.801 165.926 81.517 194.454 100 189.921"/><polygon class="cls-6" points="100 189.921 116.261 161.149 131.199 165.926 118.482 194.454 100 189.921"/></svg>