<svg id="Layer_1" data-name="Layer 1" xmlns="http://www.w3.org/2000/svg" viewBox="0 0 200 200"><defs><style>.cls-1{fill:#00bfd8;}.cls-2{fill:#d9a78c;}.cls-3{fill:#f1f2f2;}.cls-4{fill:#e6e7e8;}.cls-5{fill:#eac0a7;}.cls-6{fill:#f2d7bc;}.cls-7{fill:#2f343a;}.cls-8{fill:#a0b2be;}.cls-9{fill:#fff;}</style></defs><title>team-member-2</title><rect class="cls-1" width="200" height="200"/><polygon class="cls-2" points="116.453 177.645 100.393 198.046 83.551 177.645 83.551 143.521 116.453 143.521 116.453 177.645"/><path class="cls-3" d="M83.5507,165.0208s-35.2761,4.572-39.896,9.3841C38.1468,180.1444,32.7528,184.4339,29.3333,200H99.9994v-3.9081Z"/><path class="cls-4" d="M116.4532,165.0208s35.2736,4.572,39.8935,9.3841c4.022,4.1925,12.3865,16.7868,14.32,25.5951H99.9994v-3.9081Z"/><path class="cls-5" d="M100.0007,40.2857c15.9749,0,41.2384,9.0821,41.2384,51.6384,0,24.57-8.0108,40.6666-11.5011,45.12-3.2115,4.097-21.266,12.828-29.7374,12.828V40.2857Z"/><path class="cls-5" d="M149.1866,102.0711c0.7035-6.8-2.5352-12.8331-7.235-13.4786s-9.0821,4.3448-9.7868,11.1448c-0.706,6.7972,2.5352,12.83,7.2362,13.4759C144.1008,113.8561,148.4805,108.8685,149.1866,102.0711Z"/><path class="cls-6" d="M100.0007,40.2857c-15.975,0-41.2385,9.0821-41.2385,51.6384,0,24.57,8.0107,40.6666,11.501,45.12,3.2115,4.097,21.266,12.828,29.7375,12.828V40.2857Z"/><path class="cls-6" d="M50.8161,102.0711c-0.7048-6.8,2.5352-12.8331,7.2337-13.4786,4.7023-.6454,9.082,4.3448,9.788,11.1448,0.7048,6.7972-2.5364,12.83-7.2362,13.4759C55.9019,113.8561,51.52,108.8685,50.8161,102.0711Z"/><path class="cls-7" d="M64.2532,102.8171h2.8475s-1.7322-11.0827,3.3483-14.6609V80.9975s-1.9632-.23-1.9632-8.6561c0-8.429,10.0437-14.4312,31.5149-14.4312V27.0835s-42.4441.9036-42.4441,31.7084V88.6185a7.1354,7.1354,0,0,1,5.31,1.3088C65.2537,91.9281,64.2532,102.8171,64.2532,102.8171Z"/><path class="cls-7" d="M135.7493,102.8171h-2.8474s1.7309-11.0827-3.3471-14.6609V80.9975s1.9621-.23,1.9621-8.6561c0-8.429-10.0437-14.4312-31.5161-14.4312V27.0835s42.444-.9682,42.444,29.8354v31.7a7.136,7.136,0,0,0-5.31,1.3088C134.7489,91.9281,135.7493,102.8171,135.7493,102.8171Z"/><polygon class="cls-8" points="100.001 196.092 88.82 168.17 84.692 185.39 100.001 196.092"/><polygon class="cls-9" points="83.086 161.066 88.955 168.694 84.692 185.39 75.676 173.228 83.086 161.066"/><polygon class="cls-8" points="100.002 196.092 110.127 167.721 115.312 185.39 100.002 196.092"/><polygon class="cls-9" points="116.915 161.066 109.991 168.243 115.312 185.39 125.109 173.228 116.915 161.066"/><path class="cls-9" d="M99.9994,131.5427c7.4466,0,13.4824-2.4577,13.4824-5.4937H86.517C86.517,129.085,92.5528,131.5427,99.9994,131.5427Z"/></svg>