<svg id="Layer_1" data-name="Layer 1" xmlns="http://www.w3.org/2000/svg" viewBox="0 0 200 200.135"><defs><style>.cls-1{fill:#00bfd8;}.cls-2{fill:#870b16;}.cls-3{fill:#eac8ad;}.cls-4{fill:#f2d7bc;}.cls-5{fill:#eac0a7;}.cls-6{fill:#fff200;}.cls-7{fill:#f8a41d;}.cls-8{fill:#f98e1c;}.cls-9{fill:#fff;}</style></defs><title>team-member-1</title><rect class="cls-1" width="200" height="200"/><path class="cls-2" d="M100.208,200.135H60.086s-18.518-17.9-9.259-44.445,17.284-37.034,17.9-65.427h31.481V200.135Z"/><path class="cls-2" d="M99.172,200.135h40.122s18.518-17.9,9.259-44.445-17.283-37.034-17.9-65.427H99.172V200.135Z"/><circle class="cls-2" cx="100.208" cy="78.238" r="49.085"/><polygon class="cls-3" points="116.63 183.351 100 200 83.786 183.351 83.786 147.338 116.63 147.338 116.63 183.351"/><path class="cls-4" d="M100.207,47.527c-15.946,0-41.165,9.066-41.165,51.546,0,24.525,9.56,36.088,13.044,40.533,3.207,4.09,19.664,17.31,28.121,17.31V47.527Z"/><path class="cls-4" d="M51.109,109.2c-0.7-6.788,2.532-12.81,7.222-13.455s9.067,4.338,9.771,11.125-2.532,12.808-7.223,13.452S51.813,115.986,51.109,109.2Z"/><path class="cls-5" d="M100.078,47.527c15.946,0,41.165,9.066,41.165,51.546,0,24.525-9.56,36.088-13.044,40.533-3.207,4.09-19.664,17.31-28.121,17.31V47.527Z"/><path class="cls-5" d="M149.306,109.2c0.7-6.788-2.531-12.81-7.222-13.455s-9.066,4.338-9.77,11.125,2.531,12.808,7.224,13.452S148.6,115.986,149.306,109.2Z"/><path class="cls-2" d="M99.667,37.239a20.306,20.306,0,0,0-2.419-.173s-26.935,2.016-34.431,37.1c-3.6,2.7-10.194,13.193-1.5,24.886,1.2-9.894,4.823-17.061,11.093-19.79,11.126-4.84,15.707-.343,28.6-10.236,7.53-5.779,10.237-17.4,8.572-23.891A11.881,11.881,0,0,0,99.667,37.239Z"/><path class="cls-2" d="M107.878,46.985S98.17,83.2,140.559,98.37C150.716,65.214,132.162,43.587,107.878,46.985Z"/><rect class="cls-6" x="57.737" y="116.993" width="3.738" height="3.738" transform="translate(-66.595 76.977) rotate(-45.007)"/><rect class="cls-6" x="139.503" y="116.992" width="3.738" height="3.738" transform="translate(-42.639 134.802) rotate(-45.007)"/><path class="cls-7" d="M100,200V185.14S87.748,182.1,85.046,172.177a35.062,35.062,0,0,1-1.261-8.6s-26.791,9.048-32.772,18.395C46.037,196.79,44.672,200,44.672,200H100Z"/><path class="cls-8" d="M100,200V185.14s12.252-3.036,14.954-12.962a35.04,35.04,0,0,0,1.26-8.6s26.792,9.048,32.772,18.395C153.963,196.79,155.328,200,155.328,200H100Z"/><path class="cls-9" d="M100.208,141.955c6.216,0,11.256-3.817,11.256-8.525H88.952C88.952,138.138,93.992,141.955,100.208,141.955Z"/></svg>