<svg id="Layer_1" data-name="Layer 1" xmlns="http://www.w3.org/2000/svg" viewBox="0 0 200 200"><defs><style>.cls-1{fill:#00bfd8;}.cls-2{fill:#482b1b;}.cls-3{fill:#eac8ad;}.cls-4{fill:#f2d7bc;}.cls-5{fill:#eac0a7;}.cls-6{fill:#fff;}.cls-7{fill:#faa21c;}.cls-8{fill:#f68e1f;}.cls-9{fill:#39b54a;}</style></defs><title>team-member-4</title><rect class="cls-1" width="200" height="200"/><circle class="cls-2" cx="100.22" cy="79.637" r="52.129"/><polygon class="cls-3" points="117.661 191.27 100 199 82.78 191.27 82.78 153.023 117.661 153.023 117.661 191.27"/><path class="cls-4" d="M100.22,47.022c-16.935,0-43.718,9.627-43.718,54.742,0,26.048,10.153,38.329,13.853,43.05,3.406,4.342,20.884,18.382,29.865,18.382V47.022Z"/><path class="cls-4" d="M48.077,112.521c-0.746-7.209,2.689-13.6,7.67-14.289s9.629,4.606,10.376,11.815-2.688,13.6-7.671,14.286S48.824,119.727,48.077,112.521Z"/><path class="cls-5" d="M100.082,47.022c16.935,0,43.718,9.627,43.718,54.742,0,26.048-10.152,38.329-13.853,43.05-3.405,4.342-20.884,18.382-29.865,18.382V47.022Z"/><path class="cls-5" d="M152.364,112.521c0.747-7.209-2.689-13.6-7.67-14.289s-9.629,4.606-10.376,11.815,2.688,13.6,7.671,14.286S151.617,119.727,152.364,112.521Z"/><path class="cls-3" d="M100,200v-6.83S86.987,189.944,84.12,179.4a37.186,37.186,0,0,1-1.34-9.131s-28.453,9.61-34.8,19.536C44.653,193.428,41.241,200,41.241,200H100Z"/><path class="cls-3" d="M100,200v-6.83s13.012-3.225,15.881-13.765a37.221,37.221,0,0,0,1.338-9.131s28.453,9.61,34.8,19.536c4.1,5.709,6.735,10.191,6.735,10.191H100Z"/><path class="cls-3" d="M100,200v-6.83S86.987,189.944,84.12,179.4a37.186,37.186,0,0,1-1.34-9.131s-28.453,9.61-34.8,19.536C45.1,192.827,41.241,200,41.241,200H100Z"/><path class="cls-3" d="M100,200v-6.83s13.012-3.225,15.881-13.765a37.221,37.221,0,0,0,1.338-9.131s28.453,9.61,34.8,19.536A88.6,88.6,0,0,1,158.759,200H100Z"/><path class="cls-6" d="M100.22,147.307c6.6,0,11.954-4.053,11.954-9.055H88.267C88.267,143.254,93.618,147.307,100.22,147.307Z"/><path class="cls-2" d="M97.756,34.041c-30.945,0-40.353,27.111-40.353,39.6-11.223,15.6,1.011,29.555,9.673,34.458V100.42c0-10.088,9.592-19.429,24-17.874,12.911,1.394,21.041-5.9,27.91-18.308C127.464,47.625,116.881,34.041,97.756,34.041Z"/><path class="cls-2" d="M117.661,59.137s7.23,29.354,27.032,39.094c3.524-26.389,5.607-20.83,0-34.726s-27.032-24.218-27.032-24.218v19.85Z"/><path class="cls-7" d="M152.024,189.809c-5.3-8.279-25.962-16.335-32.675-18.78a19.364,19.364,0,0,1-38.7,0c-6.712,2.445-26.6,10.029-32.559,17.846A102.63,102.63,0,0,0,41.241,200H158.759A60.19,60.19,0,0,0,152.024,189.809Z"/><path class="cls-8" d="M158.759,200a45.982,45.982,0,0,0-6.735-10.191c-5.3-8.279-25.962-16.335-32.675-18.78A19.365,19.365,0,0,1,100,189.642V200h58.759Z"/><path class="cls-9" d="M74.269,173.5a26.043,26.043,0,0,0,51.461,0c-2.615-1.069-4.859-1.914-6.382-2.469a19.364,19.364,0,0,1-38.7,0C79.129,171.583,76.885,172.429,74.269,173.5Z"/><circle class="cls-2" cx="100.22" cy="27.508" r="17.441"/></svg>