<svg id="Layer_4" data-name="Layer 4" xmlns="http://www.w3.org/2000/svg" viewBox="0 0 200 200"><defs><style>.cls-1{fill:#fff;}.cls-2{fill:#482b1b;}.cls-3{fill:#f2d7bc;}.cls-4{fill:#eac0a7;}</style></defs><title>testimonial-2</title><rect class="cls-1" width="200" height="200"/><circle class="cls-2" cx="100" cy="92.052" r="59.234"/><path class="cls-3" d="M100,54.991c-19.244,0-49.677,10.939-49.677,62.2,0,29.6,11.537,43.554,15.741,48.918C69.935,171.046,89.795,187,100,187V54.991Z"/><path class="cls-3" d="M40.749,129.418c-0.848-8.191,3.056-15.459,8.715-16.236s10.941,5.234,11.79,13.425S58.2,142.062,52.538,142.84,41.6,137.606,40.749,129.418Z"/><path class="cls-4" d="M99.843,54.991c19.244,0,49.677,10.939,49.677,62.2,0,29.6-11.536,43.554-15.741,48.918C129.909,171.046,110.048,187,99.843,187V54.991Z"/><path class="cls-4" d="M159.251,129.418c0.848-8.191-3.055-15.459-8.715-16.236s-10.941,5.234-11.79,13.425,3.055,15.456,8.717,16.233S158.4,137.606,159.251,129.418Z"/><path class="cls-1" d="M100,168.946c7.5,0,13.583-4.606,13.583-10.289H86.417C86.417,164.34,92.5,168.946,100,168.946Z"/><path class="cls-2" d="M97.2,40.241c-35.162,0-45.853,30.806-45.853,44.993-12.753,17.725,1.149,33.583,10.991,39.155v-8.722c0-11.463,10.9-22.077,27.27-20.311,14.671,1.584,23.909-6.706,31.714-20.8C130.957,55.677,118.931,40.241,97.2,40.241Z"/><path class="cls-2" d="M119.818,68.758s8.216,33.355,30.717,44.423c4-29.985,6.371-23.669,0-39.46S119.818,46.2,119.818,46.2V68.758Z"/><circle class="cls-2" cx="100" cy="32.818" r="19.818"/></svg>