<svg id="Layer_4" data-name="Layer 4" xmlns="http://www.w3.org/2000/svg" viewBox="0 0 200 200"><defs><style>.cls-1{fill:#fff;}.cls-2{fill:#461811;}.cls-3{fill:#f2d7bc;}.cls-4{fill:#eac0a7;}</style></defs><title>testimonial-1</title><rect class="cls-1" width="200" height="200"/><path class="cls-2" d="M161.057,136.057c0,33.869-27.456,16.3-61.322,16.3h0c-33.867,0-61.322,17.57-61.322-16.3V80.623A61.321,61.321,0,0,1,99.735,19.3h0a61.322,61.322,0,0,1,61.322,61.322v55.434Z"/><circle class="cls-2" cx="100" cy="81.143" r="62.553"/><path class="cls-3" d="M100,42C79.678,42,47.54,53.557,47.54,107.694c0,31.256,12.184,45.994,16.624,51.658,4.086,5.21,25.06,22.058,35.837,22.058V42Z"/><path class="cls-3" d="M37.43,120.6c-0.9-8.65,3.225-16.327,9.2-17.146s11.555,5.527,12.452,14.177-3.227,16.322-9.206,17.143S38.325,129.249,37.43,120.6Z"/><path class="cls-4" d="M99.835,42c20.322,0,52.459,11.553,52.459,65.69,0,31.256-12.181,45.994-16.622,51.658-4.086,5.21-25.059,22.058-35.837,22.058V42Z"/><path class="cls-4" d="M162.57,120.6c0.895-8.65-3.227-16.327-9.2-17.146s-11.553,5.527-12.45,14.177,3.225,16.322,9.2,17.143S161.673,129.249,162.57,120.6Z"/><path class="cls-1" d="M100,162.344c7.922,0,14.344-4.864,14.344-10.865H85.656C85.656,157.48,92.078,162.344,100,162.344Z"/><path class="cls-2" d="M97.043,26.429c-37.134,0-48.423,32.532-48.423,47.514-13.467,18.718,1.213,35.465,11.608,41.348v-9.21c0-12.105,11.509-23.314,28.8-21.448,15.493,1.672,25.25-7.082,33.491-21.969C132.691,42.728,119.991,26.429,97.043,26.429Z"/><path class="cls-2" d="M120.929,56.544s8.676,35.224,32.437,46.912c4.23-31.667,6.729-25,0-41.67s-32.437-29.063-32.437-29.063V56.544Z"/></svg>