<svg id="Layer_1" data-name="Layer 1" xmlns="http://www.w3.org/2000/svg" viewBox="0 0 216.395 179.826"><defs><style>.cls-1,.cls-6{fill:#2c2a40;}.cls-1{opacity:0.15;}.cls-2{fill:#63676d;}.cls-3{fill:#404348;}.cls-4{fill:#a0bbe7;}.cls-5{fill:#ecb28a;}.cls-7{fill:#82a6e1;}.cls-8{fill:#383851;}.cls-9{fill:#82423c;}.cls-10{fill:#5c1a31;}.cls-11{fill:#bfd7f7;}.cls-12{fill:#e8967c;}.cls-13{fill:#ededed;}.cls-14{fill:#107b85;}.cls-15{fill:#079798;}.cls-16{fill:#fff;}.cls-17{opacity:0.2;}.cls-18{fill:#ff6160;}.cls-19{fill:#9ca4ae;}.cls-20{fill:#00b3d8;}</style></defs><title>testimonials-2-men-talking</title><ellipse class="cls-1" cx="109.211" cy="174.87" rx="107.184" ry="4.956"/><rect class="cls-2" x="164.964" y="123.056" width="40.5" height="8.75" rx="3.074" ry="3.074" transform="translate(370.429 254.862) rotate(180)"/><path class="cls-2" d="M200.094,69.216l7.429,0.868a8.326,8.326,0,0,1,7.221,9.778l-7.3,39.627a8.326,8.326,0,0,1-8.5,6.811l-18.11-.669a8.325,8.325,0,0,1-7.817-10.137l8.906-39.826a8.326,8.326,0,0,1,8.125-6.509h9.079A8.326,8.326,0,0,1,200.094,69.216Z"/><path class="cls-3" d="M196.832,74.856l5.96,0.7a6.679,6.679,0,0,1,5.793,7.844l-5.859,31.79a6.679,6.679,0,0,1-6.815,5.464l-14.528-.537a6.679,6.679,0,0,1-6.271-8.132l7.145-31.949a6.679,6.679,0,0,1,6.518-5.221h7.284A6.673,6.673,0,0,1,196.832,74.856Z"/><polygon class="cls-2" points="158.705 174.801 162.063 174.801 170.065 142.778 172.808 131.806 173.333 129.701 170.19 128.838 169.448 131.806 166.708 142.778 158.705 174.801"/><polygon class="cls-3" points="166.708 142.778 170.065 142.778 172.808 131.806 169.448 131.806 166.708 142.778"/><polygon class="cls-2" points="197.26 129.701 197.785 131.806 200.528 142.778 208.528 174.801 211.885 174.801 203.885 142.778 201.145 131.806 200.403 128.838 197.26 129.701"/><polygon class="cls-3" points="197.785 131.806 200.528 142.778 203.885 142.778 201.145 131.806 197.785 131.806"/><path class="cls-4" d="M182.38,62.46l-1.872,22.388s-5.33,10.445-8.722,10.19c-2.745-.208-9.755-0.922-13.215-1.28-1.217-.125-1.995-0.208-1.995-0.208l-1.25-5.475c0.74,0.045,1.638.075,2.63,0.095,5.267,0.1,13.107-.095,13.107-0.095C173.175,82.1,182.38,62.46,182.38,62.46Z"/><path class="cls-4" d="M158.57,93.758c-1.217-.125-1.995-0.208-1.995-0.208l-1.25-5.475c0.74,0.045,1.638.075,2.63,0.095A13.3,13.3,0,0,1,158.57,93.758Z"/><path class="cls-5" d="M155.325,88.075s-1.488-1.97-2.175-3.157-1.937-.625-1,2.188a18.789,18.789,0,0,0-5.125-.187c-1.75.375-1.5,4.438,0.375,6.25s9.176,0.383,9.176.383S156.875,90.245,155.325,88.075Z"/><path class="cls-6" d="M200.405,113.464s-1.476,11.363-16.169,9.962c-13.11-1.25-10.915-12.068-10.915-12.068S191.579,110.561,200.405,113.464Z"/><path class="cls-4" d="M206.522,64.21l-2.8,22.54-1.027,8.282-2.29,18.43c-4.622,1.153-8.987,2.115-13.15,1.16-2.6-.6-4.635-0.965-8.477-1.64a19.377,19.377,0,0,1-5.455-1.625l2.52-13.6,0.695-3.755,5.843-31.545,6.557-.675h0l8.685-.257Z"/><path class="cls-7" d="M203.722,86.75l-1.027,8.282a8.973,8.973,0,0,1-3.468,2.7c-4.16,1.608-20.89.242-23.385,0.027l0.695-3.755c20.785,2.023,26.69-7.525,26.69-7.525Z"/><polygon class="cls-6" points="190.608 67.654 183.451 93.717 185.338 100.564 189.252 94.554 191.288 67.802 190.608 67.654"/><polygon class="cls-8" points="189.686 65.871 190.696 69.237 193.879 65.283 191.323 63.594 189.686 65.871"/><path class="cls-6" d="M182.835,119.884s-8.87,8.577-20.5,9.5a69.574,69.574,0,0,1-2.792,12.257c-1.975,5.688-10.234,25.679-10.234,25.679l-7.389-.225L154.9,120.28a5.546,5.546,0,0,1,3.9-3.872l14.765-3.986S183.309,115.619,182.835,119.884Z"/><path class="cls-9" d="M146.967,174.666l-15.8.135c2.16-4.119,10.194-5.708,10.194-5.708l0.333-1.346,0.422-1.379c2.177-.659,7.187.953,7.187,0.953Z"/><path class="cls-10" d="M146.441,170.141c-1.671-1.368-5.075-1.049-5.075-1.049l0.333-1.346C145.238,167.943,146.441,170.141,146.441,170.141Z"/><path class="cls-8" d="M196.9,119.968s-10.913,12.643-21.566,11.805c0,0,.167,8.778-0.333,14.778s-1.818,20.77-1.818,20.77l-6.245.261-1.654-39.727a4.589,4.589,0,0,1,2.326-4.186l13.622-7.7S196.3,115.719,196.9,119.968Z"/><path class="cls-9" d="M172.242,174.768l-15.782.033c2.16-4.119,10.129-5.723,10.129-5.723l0.286-1.331,0.042-.662c2.177-.659,6.266.236,6.266,0.236Z"/><path class="cls-10" d="M171.063,170.141c-1.671-1.368-4.473-1.064-4.473-1.064l0.286-1.331C170.414,167.943,171.063,170.141,171.063,170.141Z"/><path class="cls-4" d="M211.207,74.811c-2,9.235-12.179,21.062-12.179,21.062s-10.985,2.465-21.518-.81c-0.6-.185-1.195-0.388-1.787-0.612a16.194,16.194,0,0,1,0-4.963s0.748,0.235,1.787.453a12.771,12.771,0,0,0,4.025.3c4.4-.6,13.677-2.163,13.677-2.163s4.545-6.537,11.308-23.865C206.52,64.21,213.207,65.573,211.207,74.811Z"/><path class="cls-11" d="M177.51,89.94v5.123c-0.6-.185-1.195-0.388-1.787-0.612a16.194,16.194,0,0,1,0-4.963S176.47,89.723,177.51,89.94Z"/><path class="cls-5" d="M175.722,89.488s-2.612-2.962-3.447-3.008c-1.031-.057-0.428,1.977-0.428,1.977s-2.322-1.164-3.916-.008c-1.452,1.053-.724,8.267,7.791,6V89.488Z"/><path class="cls-5" d="M197.059,60.474a9.335,9.335,0,0,1-7.709,3.43l-0.707-2.652-0.9-3.375a14.233,14.233,0,0,1,1.836-2.664c1.321-1.509,3.29-3.04,5.687-2.726Z"/><path class="cls-12" d="M194.371,53.706s-1.13,5.71-5.729,7.546l-0.9-3.375a14.233,14.233,0,0,1,1.836-2.664Z"/><path class="cls-5" d="M179.963,38.085l-1.2,17.18a3.917,3.917,0,0,0,3.937,4.2c4.387-.046,11.045-1.241,14.143-7.538C201.68,42.09,189.746,31.712,179.963,38.085Z"/><path class="cls-5" d="M179.48,45L177.4,49.8a1.1,1.1,0,0,0,.577,1.451l1.038,0.445S180.664,50.431,179.48,45Z"/><path class="cls-6" d="M180.559,39.494s-4.4-1.552-3.835-5.8c1.055-7.991,15.726-2.116,21.3.794,6.318,3.3,3.133,13.916,1.4,16.977a8.131,8.131,0,0,1-2.6,2.74c-1.125.749-2.844-.1-3.309-1.369s-1.058-2.688,1.091-5.72c1.578-2.228-.727-5.446-3.088-3.328s-3.285,1.708-2.546-1.077S184.737,38.4,180.559,39.494Z"/><path class="cls-6" d="M188.835,43.991s-2.024,9.452-4.832,8.057a5.7,5.7,0,0,0-5.214.051c-2.033,9.312,3.172,9.1,5.36,8.444,3.606-1.085,3.766-6.378,4.038-9.033s2.687-7.183,2.687-7.183Zm-8.409,12.594a3.912,3.912,0,0,1-1-2.777,0.521,0.521,0,0,1,.384-0.546,4.449,4.449,0,0,1,2.667.109C183.014,53.73,181.564,57.515,180.425,56.585Z"/><path class="cls-11" d="M191.323,63.594l3.964,2.618s4.067-4.277,3.3-6.267-1.935-1.3-1.935-1.3S194.545,62.241,191.323,63.594Z"/><path class="cls-11" d="M188.524,60.768S186.8,62.5,186.8,63.873s2.309,2.8,2.309,2.8l2.215-3.081a10.838,10.838,0,0,1-2.033.137Z"/><rect class="cls-2" x="9.419" y="123.056" width="40.5" height="8.75" rx="3.074" ry="3.074"/><path class="cls-2" d="M14.789,69.216l-7.429.868A8.326,8.326,0,0,0,.14,79.863l7.3,39.627a8.326,8.326,0,0,0,8.5,6.811l18.11-.669a8.326,8.326,0,0,0,7.817-10.137L32.96,75.668a8.326,8.326,0,0,0-8.125-6.509H15.756A8.326,8.326,0,0,0,14.789,69.216Z"/><path class="cls-3" d="M18.051,74.856l-5.96.7A6.679,6.679,0,0,0,6.3,83.4l5.859,31.79a6.679,6.679,0,0,0,6.815,5.464l14.528-.537a6.679,6.679,0,0,0,6.271-8.132L32.628,80.032a6.679,6.679,0,0,0-6.518-5.221H18.827A6.673,6.673,0,0,0,18.051,74.856Z"/><polygon class="cls-2" points="56.179 174.801 52.821 174.801 44.819 142.778 42.076 131.806 41.551 129.701 44.694 128.838 45.436 131.806 48.176 142.778 56.179 174.801"/><polygon class="cls-3" points="48.176 142.778 44.819 142.778 42.076 131.806 45.436 131.806 48.176 142.778"/><polygon class="cls-2" points="17.623 129.701 17.098 131.806 14.356 142.778 6.356 174.801 2.998 174.801 10.998 142.778 13.738 131.806 14.481 128.838 17.623 129.701"/><polygon class="cls-3" points="17.098 131.806 14.356 142.778 10.998 142.778 13.738 131.806 17.098 131.806"/><path class="cls-6" d="M32.488,62.46l1.718,11.611S47.4,86.732,50.793,86.479c5.663-.421,13.613-4.084,16.589-5.884,1.048-.633,1.715-1.039,1.715-1.039L67.89,74.071c-0.65.357-1.449,0.767-2.338,1.209-4.719,2.342-14.76,3.59-14.76,3.59C46.331,74.369,32.488,62.46,32.488,62.46Z"/><path class="cls-13" d="M67.382,80.595c1.048-.633,1.715-1.039,1.715-1.039L67.89,74.071c-0.65.357-1.449,0.767-2.338,1.209A13.3,13.3,0,0,0,67.382,80.595Z"/><path class="cls-5" d="M67.89,74.07s0.5-2.416.619-3.784,1.485-1.392,1.838,1.551A18.794,18.794,0,0,1,74.9,69.48c1.743-.408,3.251,3.372,2.33,5.812S69.1,79.556,69.1,79.556,67.415,76.695,67.89,74.07Z"/><path class="cls-6" d="M14.478,113.464s1.476,11.363,16.169,9.962c13.11-1.25,10.915-12.068,10.915-12.068S23.3,110.561,14.478,113.464Z"/><path class="cls-6" d="M14.478,113.464c4.623,1.151,8.988,2.113,13.151,1.159,2.6-.6,4.636-0.966,8.477-1.641a19.418,19.418,0,0,0,5.455-1.624L32.5,62.46l-6.557-.675h0l-8.685-.257-8.9,2.684Z"/><path class="cls-13" d="M27.63,114.623c2.477-.28,5.8-0.5,8.477-1.641-1.442-7.523-7.689-40.232-10.16-51.2h0l-8.685-.257S26.087,98.58,27.63,114.623Z"/><polygon class="cls-14" points="24.275 67.654 31.432 93.717 29.546 100.564 25.632 94.554 23.596 67.802 24.275 67.654"/><polygon class="cls-15" points="25.198 65.871 24.188 69.237 21.005 65.283 23.561 63.594 25.198 65.871"/><path class="cls-6" d="M32.049,119.884s8.87,8.577,20.5,9.5a69.575,69.575,0,0,0,2.792,12.257c1.975,5.688,10.234,25.679,10.234,25.679l7.389-.225L59.979,120.28a5.546,5.546,0,0,0-3.9-3.872l-14.765-3.986S31.575,115.619,32.049,119.884Z"/><path class="cls-9" d="M67.917,174.666l15.8,0.135c-2.16-4.119-10.194-5.708-10.194-5.708l-0.333-1.346-0.422-1.379c-2.177-.659-7.187.953-7.187,0.953Z"/><path class="cls-10" d="M68.443,170.141c1.671-1.368,5.075-1.049,5.075-1.049l-0.333-1.346C69.645,167.943,68.443,170.141,68.443,170.141Z"/><path class="cls-8" d="M17.983,119.968S28.9,132.611,39.549,131.773c0,0-.167,8.778.333,14.778s1.818,20.77,1.818,20.77l6.245,0.261L49.6,127.855a4.589,4.589,0,0,0-2.326-4.186l-13.622-7.7S18.583,115.719,17.983,119.968Z"/><path class="cls-9" d="M42.641,174.768L58.424,174.8c-2.16-4.119-10.129-5.723-10.129-5.723l-0.286-1.331-0.042-.662c-2.177-.659-6.266.236-6.266,0.236Z"/><path class="cls-10" d="M43.821,170.141c1.671-1.368,4.473-1.064,4.473-1.064l-0.286-1.331C44.469,167.943,43.821,170.141,43.821,170.141Z"/><path class="cls-6" d="M6.266,83.148a18.9,18.9,0,0,0,9.59,12.725s10.985,2.465,21.518-.81c0.6-.185,1.2-0.388,1.787-0.612a16.194,16.194,0,0,0,0-4.963s-0.747.235-1.787,0.453a12.771,12.771,0,0,1-4.025.3c-4.4-.6-13.677-2.163-13.677-2.163S15.126,81.538,8.363,64.21C8.363,64.21,4.266,73.91,6.266,83.148Z"/><path class="cls-13" d="M37.374,89.94v5.123c0.6-.185,1.2-0.388,1.787-0.612a16.194,16.194,0,0,0,0-4.963S38.414,89.723,37.374,89.94Z"/><path class="cls-5" d="M39.162,89.488s2.612-2.962,3.447-3.008c1.031-.057.428,1.977,0.428,1.977s2.322-1.164,3.916-.008c1.451,1.053.724,8.267-7.791,6V89.488Z"/><path class="cls-5" d="M17.854,60.372a9.335,9.335,0,0,0,7.735,3.37l0.687-2.657L27.151,57.7a14.232,14.232,0,0,0-1.857-2.649c-1.333-1.5-3.314-3.014-5.708-2.681Z"/><path class="cls-12" d="M20.489,53.584s1.175,5.7,5.787,7.5L27.151,57.7a14.232,14.232,0,0,0-1.857-2.649Z"/><path class="cls-5" d="M34.776,37.85l1.332,17.17a3.917,3.917,0,0,1-3.9,4.226c-4.387-.012-11.055-1.155-14.2-7.428C13.09,42.025,24.943,31.554,34.776,37.85Z"/><path class="cls-5" d="M35.312,44.76l2.12,4.788A1.1,1.1,0,0,1,36.866,51l-1.035.453S34.171,50.2,35.312,44.76Z"/><path class="cls-6" d="M16.726,33.49c-6.275,3.382-3.06,14.842-1.3,17.89a8.13,8.13,0,0,0,2.618,2.72c1.131,0.74,2.843-.122,3.3-1.394s1.037-2.7-1.135-5.711c-1.6-2.215.684-5.452,3.062-3.352s3.3,1.682,2.537-1.1S30,38.2,34.19,39.264c0,0,4.345-.337,3.669-5.476s-6.784-6.257-6.784-6.257,2.116,2.3-.429,3.4S21.076,31.145,16.726,33.49Z"/><path class="cls-16" d="M23.561,63.594L19.6,66.213s-4.067-4.277-3.3-6.267,1.935-1.3,1.935-1.3S20.339,62.241,23.561,63.594Z"/><path class="cls-16" d="M26.36,60.768s1.721,1.734,1.725,3.105-2.309,2.8-2.309,2.8l-2.215-3.081a10.839,10.839,0,0,0,2.033.137Z"/><rect class="cls-9" x="47.899" y="102.045" width="5.443" height="72.444"/><rect class="cls-10" x="47.899" y="102.045" width="5.443" height="12.58"/><rect class="cls-9" x="161.642" y="102.045" width="5.443" height="72.444"/><rect class="cls-10" x="161.642" y="102.045" width="5.443" height="12.58"/><rect class="cls-9" x="36.361" y="95.043" width="140.642" height="7.002"/><rect class="cls-10" x="53.343" y="121.248" width="108.299" height="3.261"/><rect class="cls-10" x="53.343" y="138.241" width="108.299" height="3.261"/><path class="cls-17" d="M110.255,29.664a14.133,14.133,0,1,1,14.133-14.133A14.149,14.149,0,0,1,110.255,29.664Z"/><path class="cls-6" d="M110.255,28.267a14.133,14.133,0,1,1,14.133-14.133A14.149,14.149,0,0,1,110.255,28.267Z"/><circle class="cls-16" cx="110.255" cy="14.133" r="12.054"/><path class="cls-6" d="M110.255,5.851a0.4,0.4,0,0,1-.4-0.4V3.229a0.4,0.4,0,0,1,.791,0V5.455A0.4,0.4,0,0,1,110.255,5.851Z"/><path class="cls-6" d="M110.255,25.175a0.4,0.4,0,0,1-.4-0.4V22.553a0.4,0.4,0,0,1,.791,0v2.226A0.4,0.4,0,0,1,110.255,25.175Z"/><path class="cls-6" d="M102.443,14a0.4,0.4,0,0,1-.4.4H99.822a0.4,0.4,0,0,1,0-.791h2.226A0.4,0.4,0,0,1,102.443,14Z"/><path class="cls-6" d="M121.768,14a0.4,0.4,0,0,1-.4.4h-2.226a0.4,0.4,0,0,1,0-.791h2.226A0.4,0.4,0,0,1,121.768,14Z"/><path class="cls-6" d="M104.643,8.481a0.4,0.4,0,0,1-.56,0L102.51,6.907a0.4,0.4,0,0,1,.56-0.56l1.574,1.574A0.4,0.4,0,0,1,104.643,8.481Z"/><path class="cls-6" d="M118.308,22.145a0.4,0.4,0,0,1-.56,0l-1.574-1.574a0.4,0.4,0,0,1,.56-0.56l1.574,1.574A0.4,0.4,0,0,1,118.308,22.145Z"/><path class="cls-6" d="M104.885,19.769a0.4,0.4,0,0,1,0,.56L103.311,21.9a0.4,0.4,0,0,1-.56-0.56l1.574-1.574A0.4,0.4,0,0,1,104.885,19.769Z"/><path class="cls-6" d="M118.55,6.105a0.4,0.4,0,0,1,0,.56l-1.574,1.574a0.4,0.4,0,1,1-.56-0.56l1.574-1.574A0.4,0.4,0,0,1,118.55,6.105Z"/><path class="cls-17" d="M122.308,14.133q0,0.526-.045,1.04a12.053,12.053,0,0,0-24.017,0q-0.046-.513-0.045-1.04A12.053,12.053,0,0,1,122.308,14.133Z"/><polygon class="cls-18" points="110.574 14.4 113.99 22.635 109.999 14.796 110.574 14.4"/><circle class="cls-6" cx="110.339" cy="14.004" r="1.28"/><polygon class="cls-6" points="109.241 14.004 107.272 9.119 110.339 13.401 109.241 14.004"/><polygon class="cls-6" points="110.435 13.303 118.12 16.532 109.999 14.652 110.435 13.303"/><path class="cls-8" d="M109.4,77.948v5.69H83.62a1.469,1.469,0,0,1-1.469-1.469V79.417a1.469,1.469,0,0,1,1.469-1.469H109.4Z"/><path class="cls-13" d="M109.4,78.668v4.25H86.009a1.357,1.357,0,0,1-1.357-1.358V80.028a1.358,1.358,0,0,1,1.357-1.36H109.4Z"/><rect class="cls-19" x="87.027" y="79.53" width="22.375" height="0.375"/><rect class="cls-19" x="87.027" y="80.605" width="22.375" height="0.375"/><rect class="cls-19" x="87.027" y="81.68" width="22.375" height="0.375"/><path class="cls-18" d="M109.4,83.638v5.69H83.62a1.469,1.469,0,0,1-1.469-1.469V85.107a1.469,1.469,0,0,1,1.469-1.469H109.4Z"/><path class="cls-13" d="M109.4,84.358v4.25H86.009a1.357,1.357,0,0,1-1.357-1.358V85.718a1.358,1.358,0,0,1,1.357-1.36H109.4Z"/><rect class="cls-19" x="87.027" y="85.22" width="22.375" height="0.375"/><rect class="cls-19" x="87.027" y="86.295" width="22.375" height="0.375"/><rect class="cls-19" x="87.027" y="87.37" width="22.375" height="0.375"/><path class="cls-20" d="M109.4,89.328v5.69H83.62a1.469,1.469,0,0,1-1.469-1.469V90.8a1.469,1.469,0,0,1,1.469-1.469H109.4Z"/><path class="cls-13" d="M109.4,90.048V94.3H86.009a1.357,1.357,0,0,1-1.357-1.358V91.408a1.358,1.358,0,0,1,1.357-1.36H109.4Z"/><rect class="cls-19" x="87.027" y="90.91" width="22.375" height="0.375"/><rect class="cls-19" x="87.027" y="91.985" width="22.375" height="0.375"/><rect class="cls-19" x="87.027" y="93.06" width="22.375" height="0.375"/><path class="cls-8" d="M131.55,84.5V80.95H120.788V95.2H131.55V93.018A4.258,4.258,0,0,0,131.55,84.5Zm0,6.765V86.253A2.507,2.507,0,0,1,131.55,91.268Z"/></svg>