<svg id="Layer_4" data-name="Layer 4" xmlns="http://www.w3.org/2000/svg" viewBox="0 0 200 200"><defs><style>.cls-1{fill:#fff;}.cls-2{fill:#eac0a7;}.cls-3{fill:#f2d7bc;}.cls-4{fill:#2f343a;}</style></defs><title>testimonial-3</title><rect class="cls-1" width="200" height="200"/><path class="cls-2" d="M100,36.1c21.182,0,54.681,12.043,54.681,68.472,0,32.58-10.622,53.923-15.25,59.828-4.258,5.433-28.2,17.01-39.431,17.01V36.1Z"/><path class="cls-2" d="M165.219,118.027c0.933-9.017-3.362-17.017-9.593-17.872s-12.043,5.761-12.977,14.778,3.362,17.013,9.6,17.869S164.283,127.04,165.219,118.027Z"/><path class="cls-3" d="M100,36.1c-21.183,0-54.682,12.043-54.682,68.472,0,32.58,10.622,53.923,15.25,59.828,4.258,5.433,28.2,17.01,39.431,17.01V36.1Z"/><path class="cls-3" d="M34.781,118.027c-0.935-9.017,3.362-17.017,9.592-17.872s12.043,5.761,12.979,14.778-3.363,17.013-9.6,17.869S35.714,127.04,34.781,118.027Z"/><path class="cls-4" d="M52.6,119.016h3.776s-2.3-14.7,4.44-19.44V90.084s-2.6-.3-2.6-11.478S71.529,59.47,100,59.47V18.595s-56.28,1.2-56.28,42.045v39.549s4.108-.729,7.041,1.735C53.926,104.577,52.6,119.016,52.6,119.016Z"/><path class="cls-4" d="M147.4,119.016h-3.776s2.3-14.7-4.438-19.44V90.084s2.6-.3,2.6-11.478S128.471,59.47,100,59.47V18.595s56.28-1.284,56.28,39.561v42.033s-4.106-.729-7.041,1.735C146.075,104.577,147.4,119.016,147.4,119.016Z"/><path class="cls-1" d="M100,157.106c9.874,0,17.877-3.259,17.877-7.285H82.12C82.12,153.847,90.124,157.106,100,157.106Z"/></svg>