<svg id="Layer_2" data-name="Layer 2" xmlns="http://www.w3.org/2000/svg" xmlns:xlink="http://www.w3.org/1999/xlink" viewBox="0 0 1200 656"><defs><style>.cls-1{fill:#00bfd8;}.cls-2{fill:#009193;}.cls-3{opacity:0.2;}.cls-17,.cls-4{fill:#fff;}.cls-5{fill:#e1e1e1;}.cls-6{fill:url(#Degradado_sin_nombre_4);}.cls-7{fill:#007cf8;}.cls-8{fill:#003948;}.cls-9{fill:#008bef;}.cls-10{fill:#182632;}.cls-11{fill:#dc3645;}.cls-12{opacity:0.8;fill:url(#Degradado_sin_nombre_4-2);}.cls-13{fill:#bbb;}.cls-14{fill:#384444;}.cls-15{fill:#436867;opacity:0.57;}.cls-16{fill:#f1bc03;}.cls-17{opacity:0.5;}.cls-18{fill:#f68e37;}.cls-19{fill:#faf8a8;}.cls-20{fill:#ffd04d;}.cls-21{fill:#ffd469;}.cls-22{fill:#fcc53a;}.cls-23{fill:#3c3c71;}.cls-24{fill:#eaba42;}.cls-25{fill:#33c8cb;}.cls-26{opacity:0.1;}.cls-27{fill:#00eeed;}.cls-28{opacity:0.11;}</style><linearGradient id="Degradado_sin_nombre_4" x1="176.648" y1="546.724" x2="176.648" y2="367.08" gradientUnits="userSpaceOnUse"><stop offset="0" stop-color="#fff"/><stop offset="0.216" stop-color="#fff" stop-opacity="0.763"/><stop offset="0.604" stop-color="#fff" stop-opacity="0.356"/><stop offset="0.874" stop-color="#fff" stop-opacity="0.1"/><stop offset="1" stop-color="#fff" stop-opacity="0"/></linearGradient><linearGradient id="Degradado_sin_nombre_4-2" x1="601.111" y1="-994.248" x2="601.111" y2="729.523" xlink:href="#Degradado_sin_nombre_4"/></defs><title>video-frame</title><rect class="cls-1" width="1200" height="656"/><rect class="cls-2" y="441.26" width="1200" height="214.74"/><ellipse class="cls-3" cx="176.649" cy="592.705" rx="67.263" ry="10.061"/><path class="cls-4" d="M233.067,507.159a28.523,28.523,0,1,0-8.664,55.649c0.3,0,.584-0.011.873-0.019A28.523,28.523,0,0,0,233.067,507.159Zm-0.25,41.289A16.545,16.545,0,1,1,240.8,534.2,16.493,16.493,0,0,1,232.817,548.448Z"/><path class="cls-5" d="M224.339,550.839a16.493,16.493,0,0,0,8.478-2.39c-1.426,5.887-3.792,11.025-7.541,14.341-0.289.009-.577,0.017-0.873,0.019a28.522,28.522,0,1,1,8.664-55.649c0.446,3.089,1.093,8.19,1.442,14.144A16.55,16.55,0,1,0,224.339,550.839Z"/><path class="cls-4" d="M227.775,494.472l0.216,40.308a51.616,51.616,0,0,1-103.23.554l-0.217-40.308Z"/><path class="cls-5" d="M211.991,592.862l-70.607.379a7.2,7.2,0,0,1-7.217-7.14h0a7.2,7.2,0,0,1,7.14-7.216l70.607-.379a7.2,7.2,0,0,1,7.217,7.14h0A7.2,7.2,0,0,1,211.991,592.862Z"/><path class="cls-5" d="M217.123,566.74a51.706,51.706,0,0,1-12.941,11.807l-55.143.3a51.64,51.64,0,0,1-24.278-43.509l-0.217-40.308,30.747-.165,0.058,10.765a61.445,61.445,0,0,0,61.774,61.114h0Z"/><path class="cls-6" d="M157.46,481.03s-11.851-8.57-8.394-25.359,17.283-19.258,13.332-45.429-5.926-49.873,5.432-63.7h37.034s-12.962,35.183-4.074,58.885,1.053,33.454-6.819,46.787,3.979,28.815,3.979,28.815H157.46Z"/><rect class="cls-3" x="1006.013" y="329.498" width="104.377" height="83.269"/><rect class="cls-4" x="1006.013" y="321.654" width="104.377" height="83.269"/><path class="cls-7" d="M1006.014,300.546v21.368h104.372V300.546H1006.014Zm14.247,15.416a5.145,5.145,0,0,1-5.143-5.137v-0.006a5.136,5.136,0,0,1,10.273,0v0.006A5.134,5.134,0,0,1,1020.261,315.962Zm75.885,0a5.139,5.139,0,0,1-5.137-5.137v-0.006a5.136,5.136,0,0,1,10.273,0v0.006A5.135,5.135,0,0,1,1096.146,315.962Z"/><path class="cls-7" d="M1110.387,310.825v11.088H1006.014V310.825h9.1a5.136,5.136,0,1,0,10.273,0h65.618a5.136,5.136,0,1,0,10.273,0h9.1Z"/><path class="cls-4" d="M1017.963,288.974h4.586a1,1,0,0,1,1,1v20.7a0.151,0.151,0,0,1-.151.151h-6.284a0.151,0.151,0,0,1-.151-0.151v-20.7A1,1,0,0,1,1017.963,288.974Z"/><path class="cls-4" d="M1093.853,288.974h4.586a1,1,0,0,1,1,1v20.7a0.151,0.151,0,0,1-.151.151H1093a0.151,0.151,0,0,1-.151-0.151v-20.7A1,1,0,0,1,1093.853,288.974Z"/><path class="cls-8" d="M1035.479,342.519c6.068,0,7.424-2.927,8.638-6.282h5.283v49.972h-7.853V348.087h-6.068v-5.568Z"/><path class="cls-8" d="M1070.386,342.8c-2.5,0-4.069,1.356-4.069,4.926v5.354h-7.424V348.23c0-8,4-12.565,11.707-12.565s11.708,4.569,11.708,12.565c0,15.705-15.634,21.559-15.634,29.769a5.419,5.419,0,0,0,.071,1.071h14.849v7.139h-22.7v-6.139c0-14.706,15.562-17.133,15.562-31.553C1074.455,344.018,1072.885,342.8,1070.386,342.8Z"/><g class="cls-3"><circle cx="141.401" cy="128.289" r="71.055"/></g><circle class="cls-9" cx="141.401" cy="121.043" r="71.055"/><path class="cls-4" d="M141.4,186.5a65.455,65.455,0,1,1,65.455-65.455A65.529,65.529,0,0,1,141.4,186.5Z"/><rect class="cls-10" x="139.125" y="61.539" width="2.45" height="13.651"/><rect class="cls-10" x="139.125" y="166.547" width="2.45" height="13.651"/><rect class="cls-10" x="81.021" y="119.643" width="13.651" height="2.45"/><rect class="cls-10" x="186.029" y="119.643" width="13.651" height="2.45"/><rect class="cls-10" x="170.651" y="82.517" width="13.651" height="2.45" transform="translate(-7.233 150.022) rotate(-45)"/><rect class="cls-10" x="96.399" y="156.769" width="13.651" height="2.45" transform="translate(-81.485 119.266) rotate(-45)"/><rect class="cls-10" x="102" y="76.917" width="2.45" height="13.651" transform="translate(-28.981 97.518) rotate(-45)"/><rect class="cls-10" x="176.251" y="151.168" width="2.45" height="13.651" transform="translate(-59.738 171.756) rotate(-44.997)"/><g class="cls-3"><path d="M206.855,121.043q0,1.88-.105,3.738a65.456,65.456,0,0,0-130.7,0q-0.105-1.858-.105-3.738A65.455,65.455,0,0,1,206.855,121.043Z"/></g><rect class="cls-11" x="150.032" y="112.344" width="2.1" height="24.874" transform="translate(-20.375 219.643) rotate(-68.508)"/><polygon class="cls-10" points="141.401 121.918 103.224 121.918 103.224 119.818 139.3 119.818 139.3 90.185 141.401 90.185 141.401 121.918"/><circle class="cls-12" cx="601.111" cy="335.342" r="305.387"/><ellipse class="cls-3" cx="614.205" cy="512.318" rx="270.723" ry="19.646"/><path class="cls-10" d="M387.556,104.522H824.818a14.023,14.023,0,0,1,14.023,14.023V380.087a0,0,0,0,1,0,0H372.533a0,0,0,0,1,0,0V119.545A15.023,15.023,0,0,1,387.556,104.522Z"/><path class="cls-4" d="M797.04,421.888H414.334a41.8,41.8,0,0,1-41.8-41.8H838.842A41.8,41.8,0,0,1,797.04,421.888Z"/><rect class="cls-5" x="563.074" y="421.888" width="84.617" height="70.413"/><rect class="cls-13" x="563.074" y="421.888" width="84.617" height="22.321"/><path class="cls-4" d="M519.573,492.3h171.62a12,12,0,0,1,12,12v14.785a0,0,0,0,1,0,0H507.573a0,0,0,0,1,0,0V504.3A12,12,0,0,1,519.573,492.3Z"/><path class="cls-14" d="M399.388,124.611a7.326,7.326,0,0,0-7.3,7.305v5.248L642.308,353.5H685.15L420.4,124.611H399.388Z"/><path class="cls-14" d="M392.083,217.1V346.2a7.327,7.327,0,0,0,7.3,7.305H606.017L392.083,168.541V217.1Z"/><path class="cls-14" d="M811.378,124.611H524.627L789.372,353.5h22.006a7.327,7.327,0,0,0,7.305-7.305V131.916A7.327,7.327,0,0,0,811.378,124.611Z"/><polygon class="cls-15" points="505.447 124.611 420.404 124.611 685.15 353.504 710.226 353.504 789.372 353.504 524.627 124.611 505.447 124.611"/><polygon class="cls-15" points="392.083 168.541 606.017 353.504 642.308 353.504 392.083 137.164 392.083 168.541"/><circle class="cls-13" cx="603.735" cy="399.585" r="13.187"/><rect class="cls-3" x="715.067" y="367.941" width="46.144" height="48.897" transform="translate(-5.601 10.723) rotate(-0.829)"/><rect class="cls-16" x="712.546" y="366.876" width="46.144" height="46.139" transform="translate(-5.565 10.683) rotate(-0.829)"/><rect class="cls-17" x="731.378" y="355.682" width="7.714" height="15.711" transform="translate(-5.176 10.662) rotate(-0.828)"/><polygon class="cls-3" points="833.596 635 375.881 635 436.32 539.059 773.157 539.059 833.596 635"/><polygon class="cls-5" points="818.23 605.404 390.232 605.404 431.912 539.059 776.55 539.059 818.23 605.404"/><rect class="cls-13" x="390.232" y="605.404" width="427.998" height="15.025"/><polygon class="cls-4" points="454.779 550.771 433.15 550.771 436.32 543.971 457.261 543.971 454.779 550.771"/><polygon class="cls-4" points="457.579 550.771 460.314 543.971 481.256 543.971 479.208 550.771 457.579 550.771"/><polygon class="cls-4" points="482.008 550.771 484.308 543.971 505.25 543.971 503.637 550.771 482.008 550.771"/><polygon class="cls-4" points="506.516 550.771 508.382 543.971 529.324 543.971 528.145 550.771 506.516 550.771"/><polygon class="cls-4" points="530.972 550.771 532.403 543.971 553.344 543.971 552.601 550.771 530.972 550.771"/><polygon class="cls-4" points="555.428 550.771 556.423 543.971 577.365 543.971 577.056 550.771 555.428 550.771"/><polygon class="cls-4" points="579.82 550.771 580.381 543.971 601.322 543.971 601.449 550.771 579.82 550.771"/><polygon class="cls-4" points="604.058 550.771 604.184 543.971 625.126 543.971 625.687 550.771 604.058 550.771"/><polygon class="cls-4" points="628.451 550.771 628.142 543.971 649.083 543.971 650.079 550.771 628.451 550.771"/><polygon class="cls-4" points="652.906 550.771 652.163 543.971 673.104 543.971 674.535 550.771 652.906 550.771"/><polygon class="cls-4" points="677.362 550.771 676.183 543.971 697.125 543.971 698.99 550.771 677.362 550.771"/><polygon class="cls-4" points="701.87 550.771 700.257 543.971 721.199 543.971 723.499 550.771 701.87 550.771"/><polygon class="cls-4" points="726.299 550.771 724.251 543.971 745.193 543.971 747.928 550.771 726.299 550.771"/><polygon class="cls-4" points="750.728 550.771 772.357 550.771 769.187 543.971 748.246 543.971 750.728 550.771"/><polygon class="cls-4" points="450.289 563.482 427.865 563.482 431.151 556.431 452.863 556.431 450.289 563.482"/><polygon class="cls-4" points="453.192 563.482 456.028 556.431 477.739 556.431 475.616 563.482 453.192 563.482"/><polygon class="cls-4" points="478.52 563.482 480.904 556.431 502.616 556.431 500.943 563.482 478.52 563.482"/><polygon class="cls-4" points="503.929 563.482 505.863 556.431 527.574 556.431 526.353 563.482 503.929 563.482"/><polygon class="cls-4" points="529.284 563.482 530.767 556.431 552.478 556.431 551.707 563.482 529.284 563.482"/><polygon class="cls-4" points="554.638 563.482 555.671 556.431 577.382 556.431 577.062 563.482 554.638 563.482"/><polygon class="cls-4" points="579.927 563.482 580.509 556.431 602.22 556.431 602.351 563.482 579.927 563.482"/><polygon class="cls-4" points="605.057 563.482 605.187 556.431 626.899 556.431 627.48 563.482 605.057 563.482"/><polygon class="cls-4" points="630.346 563.482 630.025 556.431 651.737 556.431 652.77 563.482 630.346 563.482"/><polygon class="cls-4" points="655.7 563.482 654.93 556.431 676.641 556.431 678.124 563.482 655.7 563.482"/><polygon class="cls-4" points="681.055 563.482 679.833 556.431 701.545 556.431 703.479 563.482 681.055 563.482"/><polygon class="cls-4" points="706.464 563.482 704.792 556.431 726.503 556.431 728.888 563.482 706.464 563.482"/><polygon class="cls-4" points="731.791 563.482 729.668 556.431 751.38 556.431 754.215 563.482 731.791 563.482"/><polygon class="cls-4" points="757.119 563.482 779.542 563.482 776.256 556.431 754.544 556.431 757.119 563.482"/><polygon class="cls-4" points="446.263 575.968 423.167 575.968 426.551 568.706 448.914 568.706 446.263 575.968"/><polygon class="cls-4" points="449.253 575.968 452.173 568.706 474.536 568.706 472.349 575.968 449.253 575.968"/><polygon class="cls-4" points="475.339 575.968 477.796 568.706 500.158 568.706 498.435 575.968 475.339 575.968"/><polygon class="cls-4" points="501.51 575.968 503.502 568.706 525.864 568.706 524.606 575.968 501.51 575.968"/><polygon class="cls-4" points="527.625 575.968 529.152 568.706 551.515 568.706 550.721 575.968 527.625 575.968"/><polygon class="cls-4" points="553.739 575.968 554.802 568.706 577.165 568.706 576.835 575.968 553.739 575.968"/><polygon class="cls-4" points="579.786 575.968 580.385 568.706 602.748 568.706 602.882 575.968 579.786 575.968"/><polygon class="cls-4" points="605.669 575.968 605.804 568.706 628.166 568.706 628.765 575.968 605.669 575.968"/><polygon class="cls-4" points="631.716 575.968 631.387 568.706 653.749 568.706 654.812 575.968 631.716 575.968"/><polygon class="cls-4" points="657.831 575.968 657.037 568.706 679.399 568.706 680.927 575.968 657.831 575.968"/><polygon class="cls-4" points="683.945 575.968 682.687 568.706 705.049 568.706 707.041 575.968 683.945 575.968"/><polygon class="cls-4" points="710.116 575.968 708.394 568.706 730.756 568.706 733.212 575.968 710.116 575.968"/><polygon class="cls-4" points="736.203 575.968 734.015 568.706 756.378 568.706 759.299 575.968 736.203 575.968"/><polygon class="cls-4" points="762.289 575.968 785.385 575.968 782 568.706 759.638 568.706 762.289 575.968"/><polygon class="cls-4" points="440.659 588.706 416.76 588.706 420.262 581.192 443.402 581.192 440.659 588.706"/><polygon class="cls-4" points="443.753 588.706 446.775 581.192 469.916 581.192 467.652 588.706 443.753 588.706"/><polygon class="cls-4" points="470.747 588.706 473.289 581.192 496.429 581.192 494.646 588.706 470.747 588.706"/><polygon class="cls-4" points="497.829 588.706 499.89 581.192 523.03 581.192 521.728 588.706 497.829 588.706"/><polygon class="cls-4" points="524.851 588.706 526.432 581.192 549.572 581.192 548.751 588.706 524.851 588.706"/><polygon class="cls-4" points="655.363 581.192 632.223 581.192 628.89 581.192 605.75 581.192 602.588 581.192 579.448 581.192 552.975 581.192 551.874 588.706 578.828 588.706 602.727 588.706 605.611 588.706 629.51 588.706 632.564 588.706 656.463 588.706 655.363 581.192"/><polygon class="cls-4" points="659.587 588.706 658.765 581.192 681.906 581.192 683.486 588.706 659.587 588.706"/><polygon class="cls-4" points="686.61 588.706 685.308 581.192 708.448 581.192 710.509 588.706 686.61 588.706"/><polygon class="cls-4" points="713.691 588.706 711.909 581.192 735.049 581.192 737.591 588.706 713.691 588.706"/><polygon class="cls-4" points="740.685 588.706 738.422 581.192 761.562 581.192 764.585 588.706 740.685 588.706"/><polygon class="cls-4" points="767.679 588.706 791.578 588.706 788.076 581.192 764.936 581.192 767.679 588.706"/><ellipse class="cls-3" cx="896.963" cy="587.918" rx="28.196" ry="44.634" transform="translate(-60.67 1070.754) rotate(-60)"/><path class="cls-4" d="M935.164,598.008h-0.013a5.5,5.5,0,0,1-.686,1.789,0.013,0.013,0,0,1-.013.013c-8.084,13.087-51.217,5.609-56.019-5.958-0.417-1.009-.834-1.937-1.224-2.8-5.985-12.858-9.791-9.28-20.3-18a10.178,10.178,0,0,1-1.224-1.17c-0.04-.053-0.094-0.094-0.135-0.148-5.918-6.738,1.359-15.333,1.359-15.333q0.666-.524,1.331-1.009v-0.013a34.022,34.022,0,0,1,10.868-5.3,30.939,30.939,0,0,1,5.138-1C905.009,545.6,937.988,584.707,935.164,598.008Z"/><path class="cls-5" d="M934.451,599.811c-8.084,13.087-51.217,5.609-56.019-5.958-0.417-1.009-.834-1.937-1.224-2.8-6.026-12.8-10.114-8.917-20.3-18-0.443-.39-0.847-0.78-1.224-1.17-0.04-.053-0.094-0.094-0.135-0.148-5.918-6.738,1.359-15.333,1.359-15.333q0.666-.524,1.331-1.009c-0.86,2.488-1.681,8.11,5.138,13.571a23.476,23.476,0,0,0,5.313,3.08c1.493,0.645,4.492,2.918,9.845,10.383,8.567,11.93,7.4,13.45,26.4,18.655C923.516,606.186,933.993,600.08,934.451,599.811Z"/><path class="cls-5" d="M887.955,559.556c-11-9.128-18.843-9.468-18.843-9.468a30.939,30.939,0,0,1,5.138-1A27.643,27.643,0,0,1,887.955,559.556Z"/><path class="cls-4" d="M327.315,162.494c-18.45,1.885-19.977,3.412-21.862,21.862-1.885-18.45-3.412-19.978-21.862-21.862,18.45-1.884,19.977-3.412,21.862-21.862C307.337,159.082,308.865,160.61,327.315,162.494Z"/><path class="cls-4" d="M906.79,412.548c-18.45,1.885-19.977,3.412-21.862,21.862-1.885-18.45-3.412-19.978-21.862-21.862,18.45-1.884,19.978-3.412,21.862-21.862C886.813,409.136,888.34,410.663,906.79,412.548Z"/><path class="cls-18" d="M892.654,191.218c-19.751-.242-32.252-2.655-72.266,6.388-0.087.018-.173,0.037-0.263,0.063,0.079-.052.152-0.1,0.225-0.152,34.175-22.692,41.064-33.4,54.53-47.85,13.527-14.514,36.986-15.821,36.986-15.821L922.3,153.907l0.038,0.09,7.3,21.4S912.493,191.46,892.654,191.218Z"/><path class="cls-16" d="M853.7,183.3A205.74,205.74,0,0,0,874.978,162c1.968-2.2,4-4.471,6.163-6.788,7.1-7.62,24.6-13.211,31.309-14.474l6.025,14.085,6.194,14.481c-5.538,3.982-21.247,13.691-31.7,13.564-3.167-.039-6.216-0.137-9.164-0.231A205.562,205.562,0,0,0,853.7,183.3Z"/><path class="cls-19" d="M872.786,175.142c3.473-3.253,6.615-6.359,9.713-9.42l0.037-.037c2.376-2.347,4.832-4.774,7.4-7.224,4.831-4.609,16.307-9.408,24.887-12.179l7.536,17.618c-8.468,4.927-19.423,10.071-25.665,10.361-3.55.165-7.009,0.265-10.353,0.362H886.3C881.948,174.75,877.535,174.877,872.786,175.142Z"/><path class="cls-20" d="M949.729,96.881a34.717,34.717,0,0,0-12.6-3.55c-22.7-2.394-52.34,10.514-52.34,10.514a0.03,0.03,0,0,1,0-.011c-0.082-.6-3.254-25.572,21.849-45.707C919.812,47.566,935.715,44.7,947.983,44.39a4.609,4.609,0,0,1,4.5,2.845,5,5,0,0,1,.07,3.79,4.663,4.663,0,0,1-2.574,2.556l33.542,3.57,25.115,2.672h0.011C987.348,80.681,949.729,96.881,949.729,96.881Z"/><path class="cls-21" d="M884.791,103.835c-0.082-.6-3.254-25.572,21.849-45.707C919.812,47.566,935.715,44.7,947.983,44.39a4.609,4.609,0,0,1,4.5,2.845,5,5,0,0,1,.07,3.79q-1.2,1.242-2.574,2.556s-26.593,2.28-45.372,19.408C886.119,89.848,884.828,103.416,884.791,103.835Z"/><path class="cls-22" d="M949.729,96.881a34.717,34.717,0,0,0-12.6-3.55c12.659-16,30.914-28.03,46.386-36.181l25.115,2.672h0.011C987.348,80.681,949.729,96.881,949.729,96.881Z"/><path class="cls-20" d="M982.522,173.546a34.717,34.717,0,0,1-6.134,11.562C962.44,203.179,932.636,215.7,932.636,215.7l0.007,0.008c0.379,0.476,16.246,20.014,48.145,15.767,16.736-2.231,29.793-11.752,38.489-20.411a4.609,4.609,0,0,0,1.048-5.216,5,5,0,0,0-2.693-2.668,4.662,4.662,0,0,0-3.626.1l20.584-26.722L1050,156.543l0.008-.007C1020.22,157.528,982.522,173.546,982.522,173.546Z"/><path class="cls-21" d="M932.643,215.7c0.379,0.476,16.246,20.014,48.145,15.767,16.736-2.231,29.793-11.752,38.489-20.411a4.609,4.609,0,0,0,1.048-5.216,5,5,0,0,0-2.693-2.668q-1.729.012-3.626,0.1s-20.015,17.656-45.372,19.408C943.676,224.4,932.971,215.967,932.643,215.7Z"/><path class="cls-22" d="M982.522,173.546a34.717,34.717,0,0,1-6.134,11.562c20.313,1.894,41.622-3,58.2-8.556L1050,156.543l0.008-.007C1020.22,157.528,982.522,173.546,982.522,173.546Z"/><path class="cls-4" d="M1046.935,157.586a250.105,250.105,0,0,1-25.073,9.583,148.354,148.354,0,0,1-25.616,5.321c-0.318.042-.636,0.074-0.953,0.091l-16.079.95-17.764,1.048-33.8,2-18.107-42.332,2.816-2.618,21.972-20.444,13.026-12.123a200.375,200.375,0,0,1,56.5-37.184c0.595-.258,1.2-0.52,1.8-0.778,28.81-12.323,54.621-17.25,76.313-18.307q2.319-.113,4.572-0.169,5.411-.132,10.445.035,2.172,0.067,4.264.183c0.714,0.038,1.418.08,2.117,0.127a168.6,168.6,0,0,1,23.645,3.23,139.2,139.2,0,0,1,18.669,5.254,8.309,8.309,0,0,1,4.934,11.535,155.331,155.331,0,0,1-23.089,36.459q-0.74.887-1.507,1.779-1.358,1.588-2.8,3.194-3.359,3.737-7.187,7.555-1.549,1.546-3.185,3.1C1097.109,130.017,1075.727,145.27,1046.935,157.586Z"/><path class="cls-23" d="M945.324,175.53l-17.672,1.046q-1.917-2.414-3.649-4.885-1.466-2.092-2.795-4.232a82.043,82.043,0,0,1-7.688-15.767,74.14,74.14,0,0,1-3.975-17.448l12.961-12.058a116.286,116.286,0,0,0,5.473,21.866,112.372,112.372,0,0,0,11.714,23.565q1.21,1.86,2.5,3.686Q943.7,173.439,945.324,175.53Z"/><path class="cls-5" d="M913.52,151.692a74.14,74.14,0,0,1-3.975-17.448l12.961-12.058,11.826-11,13.026-12.123a200.375,200.375,0,0,1,56.5-37.184c0.595-.258,1.2-0.52,1.8-0.778,38.986-16.676,72.484-19.81,97.712-18.13a168.6,168.6,0,0,1,23.645,3.23c-1.306,6.035.812,7.654-10.019,14.13,0,0-70.314-8.794-119.8,22.818-45.331,28.959-27.893,39.078-27.893,39.078l-41.329,21.83Z"/><path class="cls-20" d="M898.853,166.609a2.714,2.714,0,0,1-1.991-4.654c32.958-32.186,102.185-49.876,130.682-56.039a2.707,2.707,0,0,1,2.092,4.89C1005.5,127.158,944.892,165,898.853,166.609Z"/><path class="cls-24" d="M1030.613,107.5l-134.35,57.468a2.682,2.682,0,0,1,.6-3.009c32.958-32.186,102.185-49.876,130.682-56.039A2.644,2.644,0,0,1,1030.613,107.5Z"/><circle class="cls-23" cx="1065.983" cy="92.366" r="25.771" transform="translate(49.574 426.676) rotate(-23.159)"/><path class="cls-25" d="M1074,111.106c-0.081.035-.166,0.071-0.249,0.1a20.4,20.4,0,0,1-26.4-10.58c-0.038-.08-0.075-0.165-0.109-0.246A20.392,20.392,0,1,1,1074,111.106Z"/><path class="cls-26" d="M1078.785,108.23a20.384,20.384,0,0,0-20.818-34.6q-0.775.332-1.5,0.718a20.39,20.39,0,0,1,19.237,35.2,19.956,19.956,0,0,1-3.279,2.152c0.445-.144.888-0.313,1.326-0.492,0.083-.031.168-0.068,0.249-0.1A20.326,20.326,0,0,0,1078.785,108.23Z"/><path class="cls-27" d="M1080.832,93.013s-4.37,10.788-14.059,12.23c-10.609,1.578-15.677-5.833-16.912-15.485,0,0-3.265,8.9,5.364,16.674C1064.231,114.547,1079.262,107.832,1080.832,93.013Z"/><path class="cls-20" d="M1127.533,99.444a177.987,177.987,0,0,1-24.159-56.478,155.324,155.324,0,0,1,42.314,8.484,8.4,8.4,0,0,1,5.548,6.046,8.811,8.811,0,0,1-.614,5.489A155.331,155.331,0,0,1,1127.533,99.444Z"/><path class="cls-28" d="M1127.533,99.444a177.987,177.987,0,0,1-24.159-56.478,155.324,155.324,0,0,1,42.314,8.484,8.4,8.4,0,0,1,5.548,6.046c-1.623-.768-13.412-6.029-23.021-1.919C1117.869,60,1114.54,77.2,1127.533,99.444Z"/></svg>